<?xml version="1.0" encoding="utf-8"?>
<!-- Generator: Adobe Illustrator 24.0.3, SVG Export Plug-In . SVG Version: 6.00 Build 0)  -->
<svg version="1.1" id="Layer_1" xmlns="http://www.w3.org/2000/svg" xmlns:xlink="http://www.w3.org/1999/xlink" x="0px" y="0px"
	 viewBox="0 0 1450 1800" style="enable-background:new 0 0 1450 1800;" xml:space="preserve">
<style type="text/css">
	.st0{fill:#AAFF80;}
</style>
<g>
	<g>
		<path class="st0" d="M110.2,302h32.2c12.1,0,21,2.9,26.6,8.7c5.6,5.8,8.4,15,8.4,27.7v25.2c0,12.7-2.8,21.9-8.4,27.7
			c-5.6,5.8-14.5,8.7-26.6,8.7h-32.2v-11.1h8.4v-76h-8.4V302z M140.7,389.1c4.3,0,8-0.4,11.1-1.3c3.1-0.8,5.7-2.3,7.8-4.3
			c2.1-2,3.6-4.7,4.5-8s1.5-7.6,1.5-12.7v-23.5c0-5.1-0.5-9.4-1.5-12.7s-2.5-6-4.5-8c-2.1-2-4.6-3.4-7.8-4.3
			c-3.1-0.8-6.8-1.3-11.1-1.3h-10.4v76.2H140.7z"/>
		<path class="st0" d="M196.7,302h59.4v10.9h-47.6v32.5h46.8v10.9h-46.8v32.8h48.4V400h-60.2V302z"/>
		<path class="st0" d="M333.1,330.3c0-3.2-0.6-6-1.9-8.4c-1.3-2.4-3-4.4-5.1-6c-2.1-1.6-4.6-2.8-7.4-3.6c-2.8-0.8-5.7-1.3-8.8-1.3
			c-2.7,0-5.3,0.4-7.7,1c-2.4,0.7-4.6,1.7-6.5,3c-1.9,1.3-3.4,2.9-4.6,4.8c-1.1,1.9-1.7,4.1-1.7,6.6v0.8c0,2.7,0.6,5,1.7,6.9
			c1.1,1.9,2.8,3.5,5,4.9c2.2,1.4,4.9,2.5,8.2,3.4c3.3,0.9,7.1,1.7,11.5,2.3c10.3,1.6,17.8,4.6,22.7,9c4.9,4.4,7.3,10.4,7.3,17.9
			v1.7c0,4.2-0.7,8.1-2.2,11.6c-1.4,3.5-3.6,6.5-6.4,9c-2.8,2.5-6.4,4.5-10.6,5.9c-4.2,1.4-9.1,2.1-14.6,2.1
			c-6.3,0-11.8-0.9-16.6-2.7c-4.8-1.8-8.8-4.3-12-7.6c-3.2-3.2-5.7-7-7.4-11.3c-1.7-4.3-2.5-9.1-2.5-14.2v-4.2h11.8v3.4
			c0,8.6,2.4,15,7.1,19.3c4.7,4.3,11.3,6.4,19.7,6.4c7.3,0,12.8-1.6,16.5-4.8c3.7-3.2,5.5-7.5,5.5-12.8v-0.8c0-5.1-1.9-9.1-5.7-11.8
			c-3.8-2.7-9.9-4.7-18.4-5.9c-4.9-0.7-9.4-1.7-13.4-3c-4-1.4-7.4-3.1-10.1-5.3c-2.8-2.2-4.9-4.8-6.4-7.9c-1.5-3.1-2.2-6.7-2.2-10.9
			v-1.7c0-3.8,0.8-7.3,2.4-10.5c1.6-3.2,3.8-5.9,6.6-8.3c2.8-2.3,6.3-4.1,10.2-5.4c4-1.3,8.3-1.9,13.1-1.9c5.5,0,10.4,0.8,14.8,2.4
			c4.3,1.6,8,3.7,11,6.4c3,2.7,5.2,5.8,6.8,9.4c1.5,3.6,2.3,7.4,2.3,11.3v5.9h-11.8V330.3z"/>
		<path class="st0" d="M363.9,302h59.4v10.9h-47.6v32.5h46.8v10.9h-46.8v32.8h48.4V400h-60.2V302z"/>
		<path class="st0" d="M496.3,395h1.7v-93h11.8v98h-23.5L458,307h-1.7v93h-11.8v-98h23.5L496.3,395z"/>
		<path class="st0" d="M528.1,302h11.8v43.4h41.7V302h11.8v98h-11.8v-43.7h-41.7V400h-11.8V302z"/>
		<path class="st0" d="M665.3,375.6h-42l-7.1,24.4h-12.6l29.7-98h22.1l29.7,98h-12.6L665.3,375.6z M643.5,307l-16.9,57.7h35.6
			L645.2,307H643.5z"/>
		<path class="st0" d="M747.1,395h1.7v-93h11.8v98H737l-28.3-93H707v93h-11.8v-98h23.5L747.1,395z"/>
		<path class="st0" d="M778.9,302h32.2c12.1,0,21,2.9,26.6,8.7c5.6,5.8,8.4,15,8.4,27.7v25.2c0,12.7-2.8,21.9-8.4,27.7
			c-5.6,5.8-14.5,8.7-26.6,8.7h-32.2v-11.1h8.4v-76h-8.4V302z M809.4,389.1c4.3,0,8-0.4,11.1-1.3c3.1-0.8,5.7-2.3,7.8-4.3
			c2.1-2,3.6-4.7,4.6-8c1-3.4,1.5-7.6,1.5-12.7v-23.5c0-5.1-0.5-9.4-1.5-12.7c-1-3.4-2.5-6-4.6-8c-2.1-2-4.6-3.4-7.8-4.3
			c-3.1-0.8-6.8-1.3-11.1-1.3H799v76.2H809.4z"/>
		<path class="st0" d="M860.6,340.1c0-12.7,3-22.5,9.1-29.5c6.1-7,14.5-10.5,25.3-10.5c10.8,0,19.3,3.5,25.3,10.5
			c6.1,7,9.1,16.8,9.1,29.5v21.8c0,13.1-3,23-9.1,29.8c-6.1,6.8-14.5,10.2-25.3,10.2c-10.8,0-19.3-3.4-25.3-10.2
			c-6.1-6.8-9.1-16.8-9.1-29.8V340.1z M895.1,391c7.6,0,13.2-2.6,17-7.8c3.8-5.2,5.7-12.6,5.7-22.2v-20.2c0-9-1.9-16.2-5.7-21.7
			c-3.8-5.5-9.4-8.3-17-8.3c-7.6,0-13.2,2.8-17,8.3c-3.8,5.5-5.7,12.7-5.7,21.7v20.2c0,9.6,1.9,17,5.7,22.2S887.5,391,895.1,391z"/>
		<path class="st0" d="M1146.4,391c4,0,7.4-0.7,10.3-2c2.8-1.4,5.2-3.2,7-5.5c1.8-2.3,3.2-4.9,4.1-7.8c0.9-2.9,1.3-6,1.3-9.3v-1.7
			h11.8v1.7c0,4.9-0.7,9.6-2.2,13.9c-1.5,4.3-3.7,8.1-6.6,11.3c-2.9,3.2-6.5,5.7-10.8,7.6c-4.3,1.8-9.2,2.7-14.8,2.7
			c-10.8,0-19.3-3.4-25.3-10.2c-6.1-6.8-9.1-16.8-9.1-29.8v-21.8c0-12.7,3-22.5,9.1-29.5c6.1-7,14.5-10.5,25.3-10.5
			c5.6,0,10.5,0.9,14.8,2.7c4.3,1.8,7.9,4.3,10.8,7.6c2.9,3.2,5.1,7,6.6,11.3c1.5,4.3,2.2,9,2.2,13.9v1.7H1169v-1.7
			c-0.1-3.2-0.6-6.3-1.5-9.2c-0.9-3-2.2-5.6-4.1-7.9c-1.8-2.3-4.1-4.1-6.9-5.5c-2.8-1.4-6.2-2-10.2-2c-7.6,0-13.2,2.8-17,8.3
			c-3.8,5.5-5.7,12.7-5.7,21.7v20.2c0,9.6,1.9,17,5.7,22.2C1133.1,388.4,1138.8,391,1146.4,391z"/>
		<path class="st0" d="M1194.9,340.1c0-12.7,3-22.5,9.1-29.5c6.1-7,14.5-10.5,25.3-10.5c10.8,0,19.3,3.5,25.3,10.5
			c6.1,7,9.1,16.8,9.1,29.5v21.8c0,13.1-3,23-9.1,29.8c-6.1,6.8-14.5,10.2-25.3,10.2c-10.8,0-19.3-3.4-25.3-10.2
			c-6.1-6.8-9.1-16.8-9.1-29.8V340.1z M1229.4,391c7.6,0,13.2-2.6,17-7.8c3.8-5.2,5.7-12.6,5.7-22.2v-20.2c0-9-1.9-16.2-5.7-21.7
			c-3.8-5.5-9.4-8.3-17-8.3c-7.6,0-13.2,2.8-17,8.3c-3.8,5.5-5.7,12.7-5.7,21.7v20.2c0,9.6,1.9,17,5.7,22.2S1221.8,391,1229.4,391z"
			/>
		<path class="st0" d="M1276.6,302h22.4l13.2,93h1.7l13.2-93h22.4v98h-10.9v-93h-1.7l-13.2,93h-21.3l-13.2-93h-1.7v93h-10.9V302z"/>
	</g>
	<g>
		<path class="st0" d="M1037.6,379.1l-7.1-7.1l12.3-12.3l7-3.9l-0.7-1.7l-6.3,2h-59.4V346h59.4l6.3,2l0.7-1.7l-7-3.9l-12.3-12.3
			l7.1-7.1l21.4,21.4v13.4L1037.6,379.1z"/>
	</g>
	<g>
		<path class="st0" d="M895.6,541c4,0,7.4-0.7,10.3-2c2.8-1.4,5.2-3.2,7-5.5c1.8-2.3,3.2-4.9,4.1-7.8c0.9-2.9,1.3-6,1.3-9.3v-1.7
			h11.8v1.7c0,4.9-0.7,9.6-2.2,13.9c-1.5,4.3-3.7,8.1-6.6,11.3c-2.9,3.2-6.5,5.7-10.8,7.6c-4.3,1.8-9.2,2.7-14.8,2.7
			c-10.8,0-19.3-3.4-25.3-10.2c-6.1-6.8-9.1-16.8-9.1-29.8v-21.8c0-12.7,3-22.5,9.1-29.5c6.1-7,14.5-10.5,25.3-10.5
			c5.6,0,10.5,0.9,14.8,2.7c4.3,1.8,7.9,4.3,10.8,7.6c2.9,3.2,5.1,7,6.6,11.3c1.5,4.3,2.2,9,2.2,13.9v1.7h-11.8v-1.7
			c-0.1-3.2-0.6-6.3-1.5-9.2c-0.9-3-2.2-5.6-4.1-7.9c-1.8-2.3-4.1-4.1-6.9-5.5c-2.8-1.4-6.2-2-10.2-2c-7.6,0-13.2,2.8-17,8.3
			c-3.8,5.5-5.7,12.7-5.7,21.7v20.2c0,9.6,1.9,17,5.7,22.2C882.4,538.5,888.1,541,895.6,541z"/>
		<path class="st0" d="M944.2,490.1c0-12.7,3-22.5,9.1-29.5c6.1-7,14.5-10.5,25.3-10.5c10.8,0,19.3,3.5,25.3,10.5
			c6.1,7,9.1,16.8,9.1,29.5v21.8c0,13.1-3,23-9.1,29.8c-6.1,6.8-14.5,10.2-25.3,10.2c-10.8,0-19.3-3.4-25.3-10.2
			c-6.1-6.8-9.1-16.8-9.1-29.8V490.1z M978.6,541c7.6,0,13.2-2.6,17-7.8c3.8-5.2,5.7-12.6,5.7-22.2v-20.2c0-9-1.9-16.2-5.7-21.7
			c-3.8-5.5-9.4-8.3-17-8.3c-7.6,0-13.2,2.8-17,8.3c-3.8,5.5-5.7,12.7-5.7,21.7v20.2c0,9.6,1.9,17,5.7,22.2S971.1,541,978.6,541z
			 M996,425.1l-11.8,16.5h-10.1l9.2-16.5H996z"/>
		<path class="st0" d="M1029.6,452h32.2c12.1,0,21,2.9,26.6,8.7c5.6,5.8,8.4,15,8.4,27.7v25.2c0,12.7-2.8,21.9-8.4,27.7
			c-5.6,5.8-14.5,8.7-26.6,8.7h-32.2v-11.1h8.4v-76h-8.4V452z M1060.1,539.1c4.3,0,8-0.4,11.1-1.3c3.1-0.8,5.7-2.3,7.8-4.3
			c2.1-2,3.6-4.7,4.6-8c1-3.4,1.5-7.6,1.5-12.7v-23.5c0-5.1-0.5-9.4-1.5-12.7c-1-3.4-2.5-6-4.6-8c-2.1-2-4.6-3.4-7.8-4.3
			c-3.1-0.8-6.8-1.3-11.1-1.3h-10.4v76.2H1060.1z"/>
		<path class="st0" d="M1114.7,452h62.2v10.9h-25.2v76.2h25.2V550h-62.2v-10.9h25.2v-76.2h-25.2V452z"/>
		<path class="st0" d="M1220,503h43.7v47h-10.9v-11.8h-1.7c-1.6,4.1-4.4,7.4-8.4,9.9c-4,2.5-8.7,3.8-14,3.8
			c-10.5,0-18.8-3.4-24.8-10.2c-6-6.8-9-16.8-9-29.8v-21.8c0-12.7,3-22.5,9.1-29.5c6.1-7,14.5-10.5,25.3-10.5
			c5.6,0,10.5,0.9,14.8,2.7c4.3,1.8,7.9,4.3,10.8,7.6c2.9,3.2,5.1,7,6.6,11.3c1.5,4.3,2.2,9,2.2,13.9v1.7h-11.8v-1.7
			c0-3.2-0.4-6.3-1.3-9.2c-0.9-3-2.2-5.6-4.1-7.9c-1.8-2.3-4.2-4.1-7-5.5c-2.8-1.4-6.3-2-10.3-2c-7.6,0-13.2,2.8-17,8.3
			c-3.8,5.5-5.7,12.7-5.7,21.7v20.2c0,9.6,1.9,17,5.7,22.2c3.8,5.2,9.5,7.8,17.3,7.8c7,0,12.5-2.2,16.4-6.7c4-4.5,6-10.7,6-18.8
			v-1.7H1220V503z"/>
		<path class="st0" d="M1278.5,490.1c0-12.7,3-22.5,9.1-29.5c6.1-7,14.5-10.5,25.3-10.5c10.8,0,19.3,3.5,25.3,10.5
			c6.1,7,9.1,16.8,9.1,29.5v21.8c0,13.1-3,23-9.1,29.8c-6.1,6.8-14.5,10.2-25.3,10.2c-10.8,0-19.3-3.4-25.3-10.2
			c-6.1-6.8-9.1-16.8-9.1-29.8V490.1z M1313,541c7.6,0,13.2-2.6,17-7.8c3.8-5.2,5.7-12.6,5.7-22.2v-20.2c0-9-1.9-16.2-5.7-21.7
			c-3.8-5.5-9.4-8.3-17-8.3c-7.6,0-13.2,2.8-17,8.3c-3.8,5.5-5.7,12.7-5.7,21.7v20.2c0,9.6,1.9,17,5.7,22.2S1305.4,541,1313,541z"/>
	</g>
	<g>
		<path class="st0" d="M143.4,691c4,0,7.4-0.7,10.3-2c2.8-1.4,5.2-3.2,7-5.5c1.8-2.3,3.2-4.9,4.1-7.8c0.9-2.9,1.3-6,1.3-9.3v-1.7
			h11.8v1.7c0,4.9-0.7,9.6-2.2,13.9c-1.5,4.3-3.7,8.1-6.6,11.3c-2.9,3.2-6.5,5.7-10.8,7.6c-4.3,1.8-9.2,2.7-14.8,2.7
			c-10.8,0-19.3-3.4-25.3-10.2c-6.1-6.8-9.1-16.8-9.1-29.8v-21.8c0-12.7,3-22.5,9.1-29.5c6.1-7,14.5-10.5,25.3-10.5
			c5.6,0,10.5,0.9,14.8,2.7c4.3,1.8,7.9,4.3,10.8,7.6c2.9,3.2,5.1,7,6.6,11.3c1.5,4.3,2.2,9,2.2,13.9v1.7h-11.8v-1.7
			c-0.1-3.2-0.6-6.3-1.5-9.2c-0.9-3-2.2-5.6-4.1-7.9c-1.8-2.3-4.1-4.1-6.9-5.5c-2.8-1.4-6.2-2-10.2-2c-7.6,0-13.2,2.8-17,8.3
			c-3.8,5.5-5.7,12.7-5.7,21.7v20.2c0,9.6,1.9,17,5.7,22.2C130.2,688.5,135.8,691,143.4,691z"/>
		<path class="st0" d="M192,640.1c0-12.7,3-22.5,9.1-29.5c6.1-7,14.5-10.5,25.3-10.5c10.8,0,19.3,3.5,25.3,10.5
			c6.1,7,9.1,16.8,9.1,29.5v21.8c0,13.1-3,23-9.1,29.8c-6.1,6.8-14.5,10.2-25.3,10.2c-10.8,0-19.3-3.4-25.3-10.2
			c-6.1-6.8-9.1-16.8-9.1-29.8V640.1z M226.4,691c7.6,0,13.2-2.6,17-7.8c3.8-5.2,5.7-12.6,5.7-22.2v-20.2c0-9-1.9-16.2-5.7-21.7
			c-3.8-5.5-9.5-8.3-17-8.3s-13.2,2.8-17,8.3c-3.8,5.5-5.7,12.7-5.7,21.7v20.2c0,9.6,1.9,17,5.7,22.2
			C213.2,688.5,218.9,691,226.4,691z"/>
		<path class="st0" d="M273.6,602H296l13.2,93h1.7l13.2-93h22.4v98h-10.9v-93h-1.7l-13.2,93h-21.3l-13.2-93h-1.7v93h-10.9V602z"/>
	</g>
	<g>
		<path class="st0" d="M133.5,803h43.7v47h-10.9v-11.8h-1.7c-1.6,4.1-4.4,7.4-8.4,9.9c-4,2.5-8.7,3.8-14,3.8
			c-10.5,0-18.8-3.4-24.9-10.2c-6-6.8-9-16.8-9-29.8v-21.8c0-12.7,3-22.5,9.1-29.5c6.1-7,14.5-10.5,25.3-10.5
			c5.6,0,10.5,0.9,14.8,2.7c4.3,1.8,7.9,4.3,10.8,7.6c2.9,3.2,5.1,7,6.6,11.3c1.5,4.3,2.2,9,2.2,13.9v1.7h-11.8v-1.7
			c0-3.2-0.4-6.3-1.3-9.2c-0.9-3-2.2-5.6-4.1-7.9c-1.8-2.3-4.2-4.1-7-5.5c-2.8-1.4-6.3-2-10.3-2c-7.6,0-13.2,2.8-17,8.3
			c-3.8,5.5-5.7,12.7-5.7,21.7v20.2c0,9.6,1.9,17,5.7,22.2c3.8,5.2,9.5,7.8,17.3,7.8c7,0,12.5-2.2,16.5-6.7c4-4.5,5.9-10.7,5.9-18.8
			v-1.7h-31.9V803z"/>
		<path class="st0" d="M204.6,752v65c0,7.9,1.8,13.9,5.5,18c3.7,4.1,9.1,6.1,16.3,6.1c7.2,0,12.6-2,16.3-6.1
			c3.7-4.1,5.5-10.1,5.5-18v-65H260v65c0,11.4-3,20.1-9,26c-6,6-14.2,9-24.6,9c-10.5,0-18.7-3-24.6-9c-6-6-9-14.7-9-26v-65H204.6z"
			/>
		<path class="st0" d="M278.9,752h62.2v10.9h-25.2v76.2h25.2V850h-62.2v-10.9h25.2v-76.2h-25.2V752z"/>
		<path class="st0" d="M362.9,752h11.8v87.1h51.2V850h-63V752z"/>
		<path class="st0" d="M444.5,752h11.8v43.4H498V752h11.8v98H498v-43.7h-41.7V850h-11.8V752z"/>
		<path class="st0" d="M531.1,752h59.4v10.9h-47.6v32.5h46.8v10.9h-46.8v32.8h48.4V850h-60.2V752z"/>
		<path class="st0" d="M675,850h-11.8v-32.8c0-2.4-0.6-4.3-1.7-5.6c-1.1-1.3-3.1-2-5.9-2h-30.5V850h-11.8v-98h35
			c5,0,9.4,0.7,13.2,2.2c3.7,1.4,6.8,3.4,9.3,5.8c2.5,2.4,4.3,5.2,5.6,8.5c1.3,3.2,1.9,6.6,1.9,10.1v4.2c0,3.6-1,7.3-3,10.9
			c-2,3.6-5.1,6.4-9.3,8.4v1.7c2.8,0.5,5,1.6,6.6,3.4c1.6,1.8,2.4,4.3,2.4,7.6V850z M625.1,798.8H647c6.6,0,11.5-1.4,14.8-4.3
			c3.2-2.8,4.8-7,4.8-12.5v-2.5c0-4.9-1.6-8.9-4.8-12c-3.2-3-8.1-4.6-14.8-4.6h-21.8V798.8z"/>
		<path class="st0" d="M691.5,752h22.4l13.2,93h1.7l13.2-93h22.4v98h-10.9v-93h-1.7l-13.2,93h-21.3l-13.2-93h-1.7v93h-10.9V752z"/>
		<path class="st0" d="M781.8,752h59.4v10.9h-47.6v32.5h46.8v10.9h-46.8v32.8H842V850h-60.2V752z"/>
	</g>
	<g>
		<path class="st0" d="M856,902h12.6l25.6,93h1.7l25.6-93h12.6l-27.7,98h-22.7L856,902z"/>
		<path class="st0" d="M947.6,902h62.2v10.9h-25.2v76.2h25.2v10.9h-62.2v-10.9h25.2v-76.2h-25.2V902z"/>
		<path class="st0" d="M1032.5,902h59.4v10.9h-47.6v32.5h46.8v10.9h-46.8v32.8h48.4v10.9h-60.2V902z"/>
		<path class="st0" d="M1114.7,902h62.2v10.9h-25.2v76.2h25.2v10.9h-62.2v-10.9h25.2v-76.2h-25.2V902z"/>
		<path class="st0" d="M1260,1000h-11.8v-32.8c0-2.4-0.6-4.3-1.7-5.6c-1.1-1.3-3.1-2-5.9-2h-30.5v40.3h-11.8v-98h35
			c5,0,9.4,0.7,13.2,2.2c3.7,1.4,6.8,3.4,9.3,5.8c2.5,2.4,4.3,5.2,5.6,8.5c1.3,3.2,1.9,6.6,1.9,10.2v4.2c0,3.6-1,7.3-3,10.9
			c-2,3.6-5.1,6.4-9.3,8.4v1.7c2.8,0.5,5,1.6,6.6,3.4c1.6,1.8,2.4,4.3,2.4,7.6V1000z M1210.2,948.8h21.8c6.6,0,11.5-1.4,14.8-4.3
			c3.2-2.8,4.8-7,4.8-12.5v-2.5c0-4.9-1.6-8.9-4.8-12c-3.2-3-8.1-4.6-14.8-4.6h-21.8V948.8z"/>
		<path class="st0" d="M1334,975.6h-42l-7.1,24.4h-12.6l29.7-98h22.1l29.7,98h-12.6L1334,975.6z M1312.1,907l-16.9,57.7h35.6
			l-16.9-57.7H1312.1z"/>
	</g>
	<g>
		<path class="st0" d="M596.6,1696.4h-0.9c-0.3,0.6-0.6,1.1-1,1.6c-0.4,0.5-0.9,1-1.5,1.4c-0.6,0.4-1.4,0.7-2.2,1s-1.9,0.4-3.1,0.4
			c-1.5,0-3-0.3-4.3-0.8c-1.3-0.5-2.5-1.4-3.4-2.5c-1-1.1-1.8-2.4-2.3-4c-0.5-1.6-0.8-3.4-0.8-5.4v-0.9c0-2,0.3-3.8,0.9-5.3
			c0.6-1.6,1.4-2.9,2.4-4c1-1.1,2.2-1.9,3.5-2.5c1.4-0.6,2.8-0.8,4.3-0.8c2,0,3.6,0.4,4.8,1.1c1.2,0.8,2.1,1.8,2.8,3.2h0.9v-3.6h6.3
			v30.9c0,1.1-0.4,2.1-1.1,2.8c-0.7,0.7-1.6,1.1-2.8,1.1h-16.7v-6h12.9c0.9,0,1.4-0.5,1.4-1.5V1696.4z M590,1694.7
			c2,0,3.6-0.6,4.8-1.9c1.2-1.2,1.8-2.9,1.8-4.9v-0.6c0-2-0.6-3.7-1.8-4.9c-1.2-1.2-2.8-1.9-4.8-1.9c-2,0-3.6,0.6-4.8,1.8
			c-1.2,1.2-1.8,2.9-1.8,5v0.6c0,2.1,0.6,3.8,1.8,5C586.4,1694.1,588,1694.7,590,1694.7z"/>
		<path class="st0" d="M608.3,1675.2h10.5v3.6h0.9c0.5-1.4,1.3-2.4,2.4-3.2c1.1-0.8,2.5-1.1,4-1.1c2.5,0,4.5,0.8,6,2.3
			c1.5,1.5,2.2,3.9,2.2,7.1v1.1l-6.5,0.6v-0.7c0-1.4-0.4-2.5-1.1-3.3c-0.7-0.8-1.8-1.2-3.1-1.2s-2.5,0.5-3.3,1.5
			c-0.8,1-1.2,2.4-1.2,4.2v8h5.7v6h-17.1v-6h5.1v-12.8h-4.5V1675.2z"/>
		<path class="st0" d="M656.2,1696.4c-0.7,1.6-1.6,2.7-2.8,3.3c-1.2,0.7-2.6,1-4.2,1c-1.5,0-2.9-0.3-4.2-0.9
			c-1.3-0.6-2.5-1.4-3.5-2.5c-1-1.1-1.8-2.4-2.4-4c-0.6-1.6-0.9-3.3-0.9-5.3v-0.8c0-2,0.3-3.7,0.9-5.3c0.6-1.6,1.3-2.9,2.3-4
			c1-1.1,2.1-1.9,3.4-2.5c1.3-0.6,2.7-0.9,4.1-0.9c1.8,0,3.2,0.3,4.3,0.9c1.1,0.6,1.9,1.5,2.6,2.8h0.9v-3h6.3v17.3
			c0,1,0.4,1.5,1.3,1.5h1v6h-4.3c-1.1,0-2.1-0.3-2.8-1s-1.1-1.5-1.1-2.6H656.2z M650.6,1694.7c1.8,0,3.3-0.6,4.4-1.8s1.6-2.9,1.6-5
			v-0.6c0-2.1-0.5-3.8-1.6-5s-2.6-1.8-4.4-1.8c-1.8,0-3.3,0.6-4.4,1.8c-1.1,1.2-1.7,2.9-1.7,5v0.6c0,2.1,0.6,3.8,1.7,5
			C647.3,1694.1,648.7,1694.7,650.6,1694.7z"/>
		<path class="st0" d="M670.5,1675.2h7v-5.1c0-1.4,0.5-2.6,1.5-3.6c1-1,2.2-1.5,3.6-1.5h10.1v6h-7.5c-0.9,0-1.4,0.5-1.4,1.5v2.7h9.8
			v6h-9.8v18.8h-6.3v-18.8h-7V1675.2z"/>
		<path class="st0" d="M717.4,1696.4c-0.7,1.6-1.6,2.7-2.8,3.3c-1.2,0.7-2.6,1-4.2,1c-1.5,0-2.9-0.3-4.2-0.9
			c-1.3-0.6-2.5-1.4-3.5-2.5c-1-1.1-1.8-2.4-2.4-4c-0.6-1.6-0.9-3.3-0.9-5.3v-0.8c0-2,0.3-3.7,0.9-5.3c0.6-1.6,1.3-2.9,2.3-4
			c1-1.1,2.1-1.9,3.4-2.5c1.3-0.6,2.7-0.9,4.1-0.9c1.8,0,3.2,0.3,4.3,0.9c1.1,0.6,1.9,1.5,2.6,2.8h0.9v-3h6.3v17.3
			c0,1,0.4,1.5,1.3,1.5h1v6h-4.3c-1.1,0-2.1-0.3-2.8-1s-1.1-1.5-1.1-2.6H717.4z M711.8,1694.7c1.8,0,3.3-0.6,4.4-1.8s1.6-2.9,1.6-5
			v-0.6c0-2.1-0.5-3.8-1.6-5s-2.6-1.8-4.4-1.8c-1.8,0-3.3,0.6-4.4,1.8c-1.1,1.2-1.7,2.9-1.7,5v0.6c0,2.1,0.6,3.8,1.7,5
			C708.5,1694.1,709.9,1694.7,711.8,1694.7z"/>
		<path class="st0" d="M731.2,1675.2h7.3V1665h6.3v10.2h8.9v6h-8.9v11.3c0,1,0.4,1.5,1.3,1.5h6.7v6h-10.5c-1.1,0-2.1-0.4-2.8-1.1
			c-0.7-0.7-1.1-1.7-1.1-2.8v-14.9h-7.3V1675.2z"/>
		<path class="st0" d="M786.8,1687.9c0,2.1-0.3,3.9-1,5.5s-1.7,2.9-2.9,4c-1.2,1.1-2.6,1.9-4.1,2.5c-1.5,0.6-3.2,0.9-4.9,0.9
			c-1.7,0-3.3-0.3-4.9-0.9c-1.5-0.6-2.9-1.4-4.1-2.5c-1.2-1.1-2.1-2.4-2.8-4s-1-3.4-1-5.5v-0.6c0-2,0.3-3.8,1-5.4s1.7-2.9,2.8-4
			c1.2-1.1,2.6-1.9,4.1-2.5c1.6-0.6,3.2-0.8,4.9-0.8c1.7,0,3.3,0.3,4.9,0.8c1.6,0.6,2.9,1.4,4.1,2.5c1.2,1.1,2.2,2.4,2.9,4
			s1,3.4,1,5.4V1687.9z M773.9,1694.7c0.9,0,1.8-0.2,2.6-0.5c0.8-0.3,1.5-0.7,2.1-1.3s1.1-1.3,1.4-2.1c0.4-0.8,0.5-1.7,0.5-2.8v-1
			c0-1-0.2-2-0.5-2.8c-0.3-0.8-0.8-1.5-1.4-2.1c-0.6-0.6-1.3-1-2.1-1.3c-0.8-0.3-1.7-0.5-2.6-0.5c-0.9,0-1.8,0.1-2.5,0.5
			c-0.8,0.3-1.5,0.7-2.1,1.3c-0.6,0.6-1.1,1.3-1.4,2.1c-0.4,0.8-0.5,1.7-0.5,2.8v1c0,1,0.2,2,0.5,2.8c0.3,0.8,0.8,1.5,1.4,2.1
			c0.6,0.6,1.3,1,2.1,1.3S773,1694.7,773.9,1694.7z"/>
		<path class="st0" d="M791.9,1675.2h10.5v3.6h0.9c0.5-1.4,1.3-2.4,2.4-3.2c1.1-0.8,2.5-1.1,4-1.1c2.5,0,4.5,0.8,6,2.3
			c1.5,1.5,2.2,3.9,2.2,7.1v1.1l-6.5,0.6v-0.7c0-1.4-0.4-2.5-1.1-3.3c-0.7-0.8-1.8-1.2-3.1-1.2c-1.4,0-2.5,0.5-3.3,1.5
			c-0.8,1-1.2,2.4-1.2,4.2v8h5.7v6h-17.1v-6h5.1v-12.8h-4.5V1675.2z"/>
		<path class="st0" d="M824.2,1694h8.4v-12.8h-7.8v-6h14.1v18.8h7.2v6h-21.9V1694z M840.4,1667.8c0,0.7-0.1,1.3-0.4,1.9
			c-0.2,0.6-0.6,1.1-1,1.5c-0.4,0.4-0.9,0.8-1.5,1s-1.2,0.4-1.8,0.4c-0.7,0-1.3-0.1-1.9-0.4c-0.6-0.2-1.1-0.6-1.5-1
			c-0.4-0.4-0.8-0.9-1-1.5c-0.2-0.6-0.4-1.2-0.4-1.9c0-0.7,0.1-1.3,0.4-1.9c0.2-0.6,0.6-1.1,1-1.5c0.4-0.4,0.9-0.8,1.5-1
			c0.6-0.2,1.2-0.4,1.9-0.4c0.6,0,1.2,0.1,1.8,0.4s1.1,0.6,1.5,1c0.4,0.4,0.8,0.9,1,1.5C840.3,1666.6,840.4,1667.2,840.4,1667.8z"/>
		<path class="st0" d="M878.6,1687.9c0,2.1-0.4,3.9-1.1,5.5c-0.7,1.6-1.6,2.9-2.8,4s-2.6,1.9-4.1,2.5s-3.2,0.9-4.9,0.9
			s-3.3-0.3-4.9-0.9s-2.9-1.4-4.1-2.5s-2.2-2.4-2.8-4c-0.7-1.6-1.1-3.4-1.1-5.5v-0.6c0-2,0.4-3.8,1.1-5.4c0.7-1.6,1.6-2.9,2.8-4
			c1.2-1.1,2.6-1.9,4.1-2.5c1.5-0.6,3.2-0.8,4.9-0.8s3.3,0.3,4.9,0.8c1.5,0.6,2.9,1.4,4.1,2.5c1.2,1.1,2.2,2.4,2.8,4
			c0.7,1.6,1.1,3.4,1.1,5.4V1687.9z M865.7,1694.7c0.9,0,1.8-0.2,2.5-0.5s1.5-0.7,2.1-1.3c0.6-0.6,1.1-1.3,1.4-2.1
			c0.3-0.8,0.5-1.7,0.5-2.8v-1c0-1-0.2-2-0.5-2.8c-0.4-0.8-0.8-1.5-1.4-2.1c-0.6-0.6-1.3-1-2.1-1.3c-0.8-0.3-1.6-0.5-2.5-0.5
			s-1.8,0.1-2.5,0.5c-0.8,0.3-1.5,0.7-2.1,1.3c-0.6,0.6-1.1,1.3-1.4,2.1c-0.3,0.8-0.5,1.7-0.5,2.8v1c0,1,0.2,2,0.5,2.8
			c0.4,0.8,0.8,1.5,1.4,2.1c0.6,0.6,1.3,1,2.1,1.3S864.8,1694.7,865.7,1694.7z"/>
	</g>
	<g>
		<path class="st0" d="M208,1700h-10.9l-1.4-18.8v-3h-1.2v3l-1.4,18.8h-10.9l-1.6-24.8h5.8l1.1,18.8v3h1.2v-3l1.2-18.8h10.4
			l1.2,18.8v3h1.2v-3l1.1-18.8h5.8L208,1700z"/>
		<path class="st0" d="M238.6,1700h-10.9l-1.4-18.8v-3h-1.2v3l-1.4,18.8h-10.9l-1.6-24.8h5.8l1.1,18.8v3h1.2v-3l1.2-18.8h10.4
			l1.2,18.8v3h1.2v-3l1.1-18.8h5.8L238.6,1700z"/>
		<path class="st0" d="M269.2,1700h-10.9l-1.4-18.8v-3h-1.2v3l-1.4,18.8h-10.9l-1.6-24.8h5.8l1.1,18.8v3h1.2v-3l1.2-18.8h10.4
			l1.2,18.8v3h1.2v-3l1.1-18.8h5.8L269.2,1700z"/>
		<path class="st0" d="M291.7,1696c0,0.7-0.1,1.3-0.4,1.9c-0.2,0.6-0.6,1.1-1,1.5c-0.4,0.4-0.9,0.8-1.5,1c-0.6,0.2-1.2,0.4-1.8,0.4
			c-0.7,0-1.3-0.1-1.8-0.4c-0.6-0.2-1.1-0.6-1.5-1c-0.4-0.4-0.8-0.9-1-1.5c-0.2-0.6-0.4-1.2-0.4-1.9c0-0.7,0.1-1.3,0.4-1.9
			c0.2-0.6,0.6-1.1,1-1.5c0.4-0.4,0.9-0.8,1.5-1c0.6-0.2,1.2-0.4,1.8-0.4c0.6,0,1.2,0.1,1.8,0.4c0.6,0.2,1.1,0.6,1.5,1
			c0.4,0.4,0.8,0.9,1,1.5C291.6,1694.7,291.7,1695.3,291.7,1696z"/>
	</g>
	<g>
		<path class="st0" d="M1172.7,1696c0,0.7-0.1,1.3-0.4,1.9c-0.2,0.6-0.6,1.1-1,1.5c-0.4,0.4-0.9,0.8-1.5,1c-0.6,0.2-1.2,0.4-1.8,0.4
			c-0.7,0-1.3-0.1-1.8-0.4c-0.6-0.2-1.1-0.6-1.5-1c-0.4-0.4-0.8-0.9-1-1.5c-0.2-0.6-0.4-1.2-0.4-1.9c0-0.7,0.1-1.3,0.4-1.9
			c0.2-0.6,0.6-1.1,1-1.5c0.4-0.4,0.9-0.8,1.5-1c0.6-0.2,1.2-0.4,1.8-0.4c0.6,0,1.2,0.1,1.8,0.4c0.6,0.2,1.1,0.6,1.5,1
			c0.4,0.4,0.8,0.9,1,1.5C1172.5,1694.7,1172.7,1695.3,1172.7,1696z"/>
		<path class="st0" d="M1211.3,1690.9c-0.6,2.9-1.9,5.3-4,7.1c-2.1,1.8-4.9,2.7-8.5,2.7c-1.8,0-3.5-0.3-5.1-0.8
			c-1.6-0.6-3-1.4-4.1-2.5c-1.2-1.1-2.1-2.4-2.8-4c-0.7-1.6-1-3.3-1-5.3v-0.6c0-2,0.3-3.8,1-5.4c0.7-1.6,1.6-3,2.8-4.1
			c1.2-1.1,2.6-2,4.2-2.6c1.6-0.6,3.3-0.9,5.1-0.9c3.5,0,6.3,0.9,8.4,2.7c2.1,1.8,3.5,4.2,4.1,7.1l-6.2,1.6
			c-0.2-1.5-0.8-2.7-1.9-3.8c-1.1-1.1-2.6-1.6-4.5-1.6c-0.9,0-1.8,0.2-2.5,0.5c-0.8,0.3-1.5,0.8-2.1,1.4c-0.6,0.6-1.1,1.4-1.4,2.2
			c-0.3,0.9-0.5,1.9-0.5,3v0.3c0,1.1,0.2,2.1,0.5,2.9c0.4,0.9,0.8,1.6,1.4,2.1c0.6,0.6,1.3,1,2.1,1.3s1.7,0.4,2.5,0.4
			c1.9,0,3.4-0.5,4.4-1.5c1-1,1.7-2.3,2-3.9L1211.3,1690.9z"/>
		<path class="st0" d="M1242,1687.9c0,2.1-0.3,3.9-1,5.5c-0.7,1.6-1.7,2.9-2.9,4c-1.2,1.1-2.6,1.9-4.1,2.5c-1.5,0.6-3.2,0.8-4.9,0.8
			c-1.7,0-3.3-0.3-4.9-0.8c-1.5-0.6-2.9-1.4-4.1-2.5c-1.2-1.1-2.1-2.4-2.8-4c-0.7-1.6-1-3.4-1-5.5v-0.6c0-2,0.3-3.8,1-5.4
			c0.7-1.6,1.7-2.9,2.8-4c1.2-1.1,2.6-1.9,4.1-2.5c1.6-0.6,3.2-0.9,4.9-0.9c1.7,0,3.3,0.3,4.9,0.9c1.6,0.6,2.9,1.4,4.1,2.5
			c1.2,1.1,2.2,2.4,2.9,4c0.7,1.6,1,3.4,1,5.4V1687.9z M1229.1,1694.7c0.9,0,1.8-0.2,2.6-0.5c0.8-0.3,1.5-0.7,2.1-1.3
			c0.6-0.6,1.1-1.3,1.4-2.1c0.4-0.8,0.5-1.7,0.5-2.8v-1c0-1-0.2-2-0.5-2.8c-0.3-0.8-0.8-1.5-1.4-2.1c-0.6-0.6-1.3-1-2.1-1.3
			c-0.8-0.3-1.7-0.5-2.6-0.5c-0.9,0-1.8,0.2-2.5,0.5s-1.5,0.7-2.1,1.3c-0.6,0.6-1.1,1.3-1.4,2.1c-0.4,0.8-0.5,1.7-0.5,2.8v1
			c0,1,0.2,2,0.5,2.8c0.3,0.8,0.8,1.5,1.4,2.1c0.6,0.6,1.3,1,2.1,1.3S1228.2,1694.7,1229.1,1694.7z"/>
		<path class="st0" d="M1273.2,1700h-6.3v-17.4c0-0.7-0.2-1.2-0.5-1.6c-0.3-0.4-0.8-0.5-1.4-0.5c-0.7,0-1.2,0.2-1.6,0.6
			c-0.4,0.4-0.6,1-0.6,1.8v17.1h-6.3v-17.4c0-0.7-0.2-1.2-0.6-1.6c-0.4-0.4-0.8-0.5-1.4-0.5c-0.6,0-1.1,0.2-1.5,0.6
			c-0.4,0.4-0.6,1-0.6,1.8v17.1h-6.3v-24.8h6.3v2.4h0.9c0.2-0.9,0.7-1.6,1.4-2.2c0.7-0.6,1.7-0.9,2.8-0.9c1.1,0,2,0.3,2.8,0.9
			c0.8,0.6,1.3,1.3,1.5,2.2h0.9c0.3-0.9,0.8-1.6,1.7-2.2c0.8-0.6,1.9-0.9,3.2-0.9c1.7,0,3,0.6,4,1.7c1,1.1,1.5,2.7,1.5,4.6V1700z"/>
	</g>
	<g>
		<path class="st0" d="M953.2,137.9c0,2.1-0.3,3.9-1,5.5c-0.7,1.6-1.7,2.9-2.9,4c-1.2,1.1-2.6,1.9-4.1,2.5c-1.5,0.6-3.2,0.9-4.9,0.9
			c-1.7,0-3.3-0.3-4.9-0.9c-1.5-0.6-2.9-1.4-4.1-2.5c-1.2-1.1-2.1-2.4-2.8-4c-0.7-1.6-1-3.4-1-5.5v-0.6c0-2,0.3-3.8,1-5.4
			c0.7-1.6,1.7-2.9,2.8-4c1.2-1.1,2.6-1.9,4.1-2.5c1.6-0.6,3.2-0.9,4.9-0.9c1.7,0,3.3,0.3,4.9,0.9c1.6,0.6,2.9,1.4,4.1,2.5
			c1.2,1.1,2.2,2.4,2.9,4c0.7,1.6,1,3.4,1,5.4V137.9z M940.3,144.7c0.9,0,1.8-0.2,2.6-0.5c0.8-0.3,1.5-0.7,2.1-1.3
			c0.6-0.6,1.1-1.3,1.4-2.1c0.4-0.8,0.5-1.7,0.5-2.8v-1c0-1-0.2-2-0.5-2.8c-0.3-0.8-0.8-1.5-1.4-2.1c-0.6-0.6-1.3-1-2.1-1.3
			c-0.8-0.3-1.7-0.5-2.6-0.5c-0.9,0-1.8,0.1-2.5,0.5c-0.8,0.3-1.5,0.7-2.1,1.3c-0.6,0.6-1.1,1.3-1.4,2.1c-0.4,0.8-0.5,1.7-0.5,2.8v1
			c0,1,0.2,2,0.5,2.8c0.3,0.8,0.8,1.5,1.4,2.1c0.6,0.6,1.3,1,2.1,1.3S939.4,144.7,940.3,144.7z"/>
		<path class="st0" d="M959.3,125.2h7v-5.1c0-1.4,0.5-2.6,1.5-3.6c1-1,2.2-1.5,3.6-1.5h10.1v6H974c-0.9,0-1.3,0.5-1.3,1.5v2.7h9.8v6
			h-9.8V150h-6.3v-18.8h-7V125.2z"/>
		<path class="st0" d="M990.6,144h8.4v-12.8h-7.8v-6h14.1V144h7.2v6h-21.9V144z M1006.8,117.8c0,0.7-0.1,1.3-0.4,1.9
			c-0.2,0.6-0.6,1.1-1,1.5c-0.4,0.4-0.9,0.8-1.5,1s-1.2,0.4-1.8,0.4c-0.7,0-1.3-0.1-1.9-0.4c-0.6-0.2-1.1-0.6-1.5-1
			c-0.4-0.4-0.8-0.9-1-1.5c-0.2-0.6-0.4-1.2-0.4-1.9c0-0.7,0.1-1.3,0.4-1.9c0.2-0.6,0.6-1.1,1-1.5c0.4-0.4,0.9-0.8,1.5-1
			c0.6-0.2,1.2-0.4,1.9-0.4c0.6,0,1.2,0.1,1.8,0.4s1.1,0.6,1.5,1c0.4,0.4,0.8,0.9,1,1.5C1006.7,116.6,1006.8,117.2,1006.8,117.8z"/>
		<path class="st0" d="M1044.9,140.9c-0.6,2.9-1.9,5.3-4,7.1c-2.1,1.8-4.9,2.7-8.5,2.7c-1.8,0-3.5-0.3-5.1-0.9
			c-1.6-0.6-3-1.4-4.1-2.5c-1.2-1.1-2.1-2.4-2.8-3.9c-0.7-1.6-1-3.4-1-5.4v-0.6c0-2,0.3-3.8,1-5.4c0.7-1.6,1.6-3,2.8-4.1
			c1.2-1.1,2.6-2,4.2-2.6c1.6-0.6,3.3-0.9,5.1-0.9c3.5,0,6.3,0.9,8.4,2.7c2.1,1.8,3.5,4.2,4.1,7.1l-6.2,1.6
			c-0.2-1.5-0.8-2.7-1.9-3.8c-1.1-1.1-2.6-1.6-4.5-1.6c-0.9,0-1.8,0.2-2.5,0.5c-0.8,0.3-1.5,0.8-2.1,1.4c-0.6,0.6-1.1,1.4-1.4,2.2
			c-0.3,0.9-0.5,1.9-0.5,3v0.3c0,1.1,0.2,2.1,0.5,2.9c0.4,0.9,0.8,1.6,1.4,2.1c0.6,0.6,1.3,1,2.1,1.3c0.8,0.3,1.7,0.4,2.5,0.4
			c1.9,0,3.4-0.5,4.4-1.5c1-1,1.7-2.3,2-3.9L1044.9,140.9z"/>
		<path class="st0" d="M1051.8,144h8.4v-12.8h-7.8v-6h14.1V144h7.2v6h-21.9V144z M1068,117.8c0,0.7-0.1,1.3-0.4,1.9
			c-0.2,0.6-0.6,1.1-1,1.5c-0.4,0.4-0.9,0.8-1.5,1c-0.6,0.2-1.2,0.4-1.8,0.4c-0.7,0-1.3-0.1-1.8-0.4c-0.6-0.2-1.1-0.6-1.5-1
			c-0.4-0.4-0.8-0.9-1-1.5c-0.2-0.6-0.4-1.2-0.4-1.9c0-0.7,0.1-1.3,0.4-1.9c0.2-0.6,0.6-1.1,1-1.5c0.4-0.4,0.9-0.8,1.5-1
			c0.6-0.2,1.2-0.4,1.8-0.4c0.6,0,1.2,0.1,1.8,0.4c0.6,0.2,1.1,0.6,1.5,1c0.4,0.4,0.8,0.9,1,1.5C1067.9,116.6,1068,117.2,1068,117.8
			z"/>
		<path class="st0" d="M1088.2,150h-6.3v-24.8h6.3v3.7h0.9c0.6-1.4,1.5-2.5,2.8-3.2c1.3-0.8,2.8-1.1,4.4-1.1c1.2,0,2.3,0.2,3.4,0.6
			c1.1,0.4,2,1,2.8,1.8c0.8,0.8,1.4,1.8,1.9,3c0.5,1.2,0.7,2.7,0.7,4.4V150h-6.3v-14.1c0-1.8-0.4-3.2-1.3-4.2
			c-0.8-1-2.1-1.5-3.7-1.5c-1.9,0-3.3,0.6-4.2,1.9c-0.9,1.2-1.4,2.9-1.4,5V150z"/>
		<path class="st0" d="M1128.5,146.4c-0.7,1.6-1.6,2.7-2.8,3.3s-2.6,1-4.2,1c-1.5,0-2.9-0.3-4.2-0.9c-1.3-0.6-2.5-1.4-3.5-2.5
			s-1.8-2.4-2.4-4c-0.6-1.6-0.9-3.4-0.9-5.4v-0.8c0-2,0.3-3.7,0.9-5.3c0.6-1.6,1.3-2.9,2.3-4c1-1.1,2.1-1.9,3.4-2.5
			c1.3-0.6,2.7-0.9,4.1-0.9c1.8,0,3.2,0.3,4.3,0.9s1.9,1.5,2.6,2.8h0.9v-3h6.3v17.3c0,1,0.5,1.5,1.3,1.5h1v6h-4.3
			c-1.1,0-2.1-0.3-2.8-1c-0.7-0.7-1.1-1.5-1.1-2.6H1128.5z M1123,144.7c1.8,0,3.3-0.6,4.4-1.8c1.1-1.2,1.7-2.9,1.7-5v-0.6
			c0-2.1-0.5-3.8-1.7-5c-1.1-1.2-2.6-1.8-4.4-1.8c-1.8,0-3.3,0.6-4.4,1.8s-1.7,2.9-1.7,5v0.6c0,2.1,0.6,3.8,1.7,5
			C1119.6,144.1,1121.1,144.7,1123,144.7z"/>
	</g>
	<g>
		<path class="st0" d="M927.4,1178.6c0-4.5,1.1-8,3.4-10.5c2.3-2.5,5.4-3.8,9.5-3.8s7.2,1.2,9.5,3.8s3.4,6,3.4,10.5v7.8
			c0,4.7-1.1,8.2-3.4,10.7c-2.3,2.4-5.4,3.7-9.5,3.7s-7.2-1.2-9.5-3.7c-2.3-2.4-3.4-6-3.4-10.7V1178.6z M940.3,1194.7
			c1.2,0,2.2-0.2,3-0.6c0.8-0.4,1.5-0.9,2-1.6s0.8-1.5,1-2.5s0.3-2,0.3-3.2v-8.6c0-1.1-0.1-2.1-0.3-3.1c-0.2-1-0.6-1.8-1.1-2.5
			s-1.1-1.3-1.9-1.7c-0.8-0.4-1.8-0.6-2.9-0.6c-1.1,0-2.1,0.2-2.9,0.6c-0.8,0.4-1.4,1-1.9,1.7s-0.9,1.5-1.1,2.5
			c-0.2,1-0.3,2-0.3,3.1v8.6c0,1.2,0.1,2.2,0.3,3.2s0.5,1.8,1,2.5s1.2,1.2,2,1.6C938.1,1194.5,939.1,1194.7,940.3,1194.7z
			 M936.1,1182.5c0-1.1,0.4-2.1,1.2-3c0.8-0.8,1.8-1.2,3-1.2c1.1,0,2.1,0.4,3,1.2c0.8,0.8,1.2,1.8,1.2,3c0,1.1-0.4,2.1-1.2,3
			c-0.8,0.8-1.8,1.2-3,1.2c-1.1,0-2.1-0.4-3-1.2S936.1,1183.6,936.1,1182.5z"/>
		<path class="st0" d="M958.6,1165h24.6v10.3l-12.7,18.5c-0.7,1-1.2,1.9-1.6,2.6c-0.4,0.7-0.6,1.5-0.6,2.4v1.2h-7.1v-1.5
			c0-0.7,0-1.3,0.2-1.8c0.1-0.5,0.3-1.1,0.5-1.6c0.2-0.5,0.5-1.1,0.9-1.7c0.4-0.6,0.8-1.3,1.3-2.1l13.1-19.1v-0.9h-18.6V1165z"/>
		<path class="st0" d="M993.7,1183.4h15.6v5.7h-15.6V1183.4z"/>
		<path class="st0" d="M1019.2,1178.6c0-4.5,1.1-8,3.4-10.5c2.3-2.5,5.4-3.8,9.5-3.8s7.2,1.2,9.5,3.8s3.4,6,3.4,10.5v7.8
			c0,4.7-1.1,8.2-3.4,10.7c-2.3,2.4-5.4,3.7-9.5,3.7s-7.2-1.2-9.5-3.7c-2.3-2.4-3.4-6-3.4-10.7V1178.6z M1032.1,1194.7
			c1.2,0,2.2-0.2,3-0.6c0.8-0.4,1.5-0.9,2-1.6s0.8-1.5,1-2.5s0.3-2,0.3-3.2v-8.6c0-1.1-0.1-2.1-0.3-3.1c-0.2-1-0.6-1.8-1.1-2.5
			s-1.1-1.3-1.9-1.7c-0.8-0.4-1.8-0.6-2.9-0.6c-1.1,0-2.1,0.2-2.9,0.6c-0.8,0.4-1.4,1-1.9,1.7s-0.9,1.5-1.1,2.5
			c-0.2,1-0.3,2-0.3,3.1v8.6c0,1.2,0.1,2.2,0.3,3.2s0.5,1.8,1,2.5s1.2,1.2,2,1.6C1029.9,1194.5,1030.9,1194.7,1032.1,1194.7z
			 M1027.9,1182.5c0-1.1,0.4-2.1,1.2-3c0.8-0.8,1.8-1.2,3-1.2c1.1,0,2.1,0.4,3,1.2c0.8,0.8,1.2,1.8,1.2,3c0,1.1-0.4,2.1-1.2,3
			c-0.8,0.8-1.8,1.2-3,1.2c-1.1,0-2.1-0.4-3-1.2S1027.9,1183.6,1027.9,1182.5z"/>
		<path class="st0" d="M1057.4,1190.1c0,1.2,0.4,2.2,1.3,3c0.8,0.8,2.2,1.3,4,1.3c1.8,0,3.2-0.5,4.3-1.6c1-1.1,1.6-2.4,1.6-4.1v-4.5
			h-0.9c-0.5,1.2-1.2,2.1-2.3,2.8c-1.1,0.7-2.6,1.1-4.5,1.1c-1.5,0-2.9-0.3-4.2-0.8c-1.3-0.5-2.4-1.3-3.4-2.3s-1.7-2.2-2.2-3.6
			c-0.5-1.4-0.8-3-0.8-4.6v-0.6c0-1.7,0.3-3.2,0.9-4.7c0.6-1.5,1.4-2.7,2.5-3.8c1.1-1,2.4-1.9,4-2.5c1.5-0.6,3.3-0.9,5.2-0.9
			c1.7,0,3.4,0.3,4.9,0.8c1.5,0.6,2.8,1.4,3.9,2.4c1.1,1,2,2.2,2.6,3.7c0.6,1.4,1,3,1,4.7v12.8c0,1.9-0.3,3.6-1,5.1
			s-1.5,2.8-2.6,3.8s-2.4,1.8-3.9,2.4c-1.5,0.5-3.1,0.8-4.8,0.8c-1.7,0-3.3-0.2-4.8-0.7c-1.5-0.5-2.7-1.2-3.8-2.1s-1.9-2-2.5-3.3
			c-0.6-1.3-0.9-2.8-0.9-4.5H1057.4z M1062.7,1170.6c-1.7,0-3.1,0.5-4.2,1.5c-1.1,1-1.7,2.4-1.7,4.1c0,1.7,0.5,3.1,1.7,4.1
			c1.1,1,2.5,1.5,4.2,1.5c1.7,0,3.1-0.5,4.2-1.5c1.1-1,1.7-2.4,1.7-4.1c0-1.7-0.5-3.1-1.7-4.1
			C1065.8,1171.1,1064.4,1170.6,1062.7,1170.6z"/>
	</g>
	<g>
		<path class="st0" d="M1196.4,1193.7v-25.4h-0.9l-3.3,12h-6.3v-0.6l4.2-14.7h12.9v28.7h8.7v6.3h-25.2v-6.3H1196.4z"/>
		<path class="st0" d="M1223.9,1190.1c0,1.2,0.4,2.2,1.3,3c0.8,0.8,2.2,1.3,4,1.3s3.2-0.5,4.3-1.6c1-1.1,1.6-2.4,1.6-4.1v-4.5h-0.9
			c-0.5,1.2-1.2,2.1-2.3,2.8c-1.1,0.7-2.6,1.1-4.6,1.1c-1.5,0-2.9-0.3-4.2-0.8c-1.3-0.5-2.4-1.3-3.3-2.3s-1.7-2.2-2.2-3.6
			c-0.5-1.4-0.8-3-0.8-4.6v-0.6c0-1.7,0.3-3.2,0.9-4.7c0.6-1.5,1.4-2.7,2.5-3.8s2.4-1.9,4-2.5c1.5-0.6,3.3-0.9,5.2-0.9
			c1.7,0,3.4,0.3,4.9,0.8c1.5,0.6,2.8,1.4,3.9,2.4c1.1,1,2,2.2,2.6,3.7c0.6,1.4,1,3,1,4.7v12.8c0,1.9-0.3,3.6-1,5.1
			c-0.6,1.5-1.5,2.8-2.6,3.8c-1.1,1-2.4,1.8-3.9,2.4c-1.5,0.5-3.1,0.8-4.8,0.8c-1.7,0-3.3-0.2-4.8-0.7c-1.5-0.5-2.7-1.2-3.8-2.1
			c-1.1-0.9-1.9-2-2.5-3.3c-0.6-1.3-0.9-2.8-0.9-4.5H1223.9z M1229.1,1170.6c-1.7,0-3.1,0.5-4.2,1.5c-1.1,1-1.6,2.4-1.6,4.1
			c0,1.7,0.5,3.1,1.6,4.1c1.1,1,2.5,1.5,4.2,1.5s3.1-0.5,4.2-1.5c1.1-1,1.6-2.4,1.6-4.1c0-1.7-0.5-3.1-1.6-4.1
			C1232.2,1171.1,1230.8,1170.6,1229.1,1170.6z"/>
		<path class="st0" d="M1254.7,1200h-6.3v-35h6.3v14.2h0.9c0.6-1.5,1.6-2.7,2.8-3.5c1.2-0.8,2.8-1.2,4.5-1.2c1.2,0,2.4,0.2,3.4,0.6
			c1,0.4,1.9,1,2.7,1.8c0.8,0.8,1.4,1.8,1.8,3.1c0.4,1.2,0.7,2.7,0.7,4.4v15.6h-6.3v-14.1c0-1.8-0.4-3.2-1.3-4.2
			c-0.9-1-2.1-1.5-3.7-1.5c-1.9,0-3.3,0.6-4.2,1.9s-1.4,2.9-1.4,5V1200z"/>
	</g>
	<g>
		<path class="st0" d="M927.4,1278.6c0-4.5,1.1-8,3.4-10.5c2.3-2.5,5.4-3.8,9.5-3.8s7.2,1.2,9.5,3.8s3.4,6,3.4,10.5v7.8
			c0,4.7-1.1,8.2-3.4,10.7c-2.3,2.4-5.4,3.7-9.5,3.7s-7.2-1.2-9.5-3.7c-2.3-2.4-3.4-6-3.4-10.7V1278.6z M940.3,1294.7
			c1.2,0,2.2-0.2,3-0.6c0.8-0.4,1.5-0.9,2-1.6s0.8-1.5,1-2.5s0.3-2,0.3-3.2v-8.6c0-1.1-0.1-2.1-0.3-3.1c-0.2-1-0.6-1.8-1.1-2.5
			s-1.1-1.3-1.9-1.7c-0.8-0.4-1.8-0.6-2.9-0.6c-1.1,0-2.1,0.2-2.9,0.6c-0.8,0.4-1.4,1-1.9,1.7s-0.9,1.5-1.1,2.5
			c-0.2,1-0.3,2-0.3,3.1v8.6c0,1.2,0.1,2.2,0.3,3.2s0.5,1.8,1,2.5s1.2,1.2,2,1.6C938.1,1294.5,939.1,1294.7,940.3,1294.7z
			 M936.1,1282.5c0-1.1,0.4-2.1,1.2-3c0.8-0.8,1.8-1.2,3-1.2c1.1,0,2.1,0.4,3,1.2c0.8,0.8,1.2,1.8,1.2,3c0,1.1-0.4,2.1-1.2,3
			c-0.8,0.8-1.8,1.2-3,1.2c-1.1,0-2.1-0.4-3-1.2S936.1,1283.6,936.1,1282.5z"/>
		<path class="st0" d="M965.6,1290.1c0,1.2,0.4,2.2,1.3,3c0.8,0.8,2.2,1.3,4,1.3c1.8,0,3.2-0.5,4.3-1.6c1-1.1,1.6-2.4,1.6-4.1v-4.5
			h-0.9c-0.5,1.2-1.2,2.1-2.3,2.8c-1.1,0.7-2.6,1.1-4.5,1.1c-1.5,0-2.9-0.3-4.2-0.8c-1.3-0.5-2.4-1.3-3.4-2.3s-1.7-2.2-2.2-3.6
			c-0.5-1.4-0.8-3-0.8-4.6v-0.6c0-1.7,0.3-3.2,0.9-4.7c0.6-1.5,1.4-2.7,2.5-3.8c1.1-1,2.4-1.9,4-2.5c1.5-0.6,3.3-0.9,5.2-0.9
			c1.7,0,3.4,0.3,4.9,0.8c1.5,0.6,2.8,1.4,3.9,2.4c1.1,1,2,2.2,2.6,3.7c0.6,1.4,1,3,1,4.7v12.8c0,1.9-0.3,3.6-1,5.1
			s-1.5,2.8-2.6,3.8s-2.4,1.8-3.9,2.4c-1.5,0.5-3.1,0.8-4.8,0.8c-1.7,0-3.3-0.2-4.8-0.7c-1.5-0.5-2.7-1.2-3.8-2.1s-1.9-2-2.5-3.3
			c-0.6-1.3-0.9-2.8-0.9-4.5H965.6z M970.9,1270.6c-1.7,0-3.1,0.5-4.2,1.5c-1.1,1-1.7,2.4-1.7,4.1c0,1.7,0.5,3.1,1.7,4.1
			c1.1,1,2.5,1.5,4.2,1.5c1.7,0,3.1-0.5,4.2-1.5c1.1-1,1.7-2.4,1.7-4.1c0-1.7-0.5-3.1-1.7-4.1C974,1271.1,972.6,1270.6,970.9,1270.6
			z"/>
		<path class="st0" d="M993.7,1283.4h15.6v5.7h-15.6V1283.4z"/>
		<path class="st0" d="M1019.2,1278.6c0-4.5,1.1-8,3.4-10.5c2.3-2.5,5.4-3.8,9.5-3.8s7.2,1.2,9.5,3.8s3.4,6,3.4,10.5v7.8
			c0,4.7-1.1,8.2-3.4,10.7c-2.3,2.4-5.4,3.7-9.5,3.7s-7.2-1.2-9.5-3.7c-2.3-2.4-3.4-6-3.4-10.7V1278.6z M1032.1,1294.7
			c1.2,0,2.2-0.2,3-0.6c0.8-0.4,1.5-0.9,2-1.6s0.8-1.5,1-2.5s0.3-2,0.3-3.2v-8.6c0-1.1-0.1-2.1-0.3-3.1c-0.2-1-0.6-1.8-1.1-2.5
			s-1.1-1.3-1.9-1.7c-0.8-0.4-1.8-0.6-2.9-0.6c-1.1,0-2.1,0.2-2.9,0.6c-0.8,0.4-1.4,1-1.9,1.7s-0.9,1.5-1.1,2.5
			c-0.2,1-0.3,2-0.3,3.1v8.6c0,1.2,0.1,2.2,0.3,3.2s0.5,1.8,1,2.5s1.2,1.2,2,1.6C1029.9,1294.5,1030.9,1294.7,1032.1,1294.7z
			 M1027.9,1282.5c0-1.1,0.4-2.1,1.2-3c0.8-0.8,1.8-1.2,3-1.2c1.1,0,2.1,0.4,3,1.2c0.8,0.8,1.2,1.8,1.2,3c0,1.1-0.4,2.1-1.2,3
			c-0.8,0.8-1.8,1.2-3,1.2c-1.1,0-2.1-0.4-3-1.2S1027.9,1283.6,1027.9,1282.5z"/>
		<path class="st0" d="M1057.4,1290.1c0,1.2,0.4,2.2,1.3,3c0.8,0.8,2.2,1.3,4,1.3c1.8,0,3.2-0.5,4.3-1.6c1-1.1,1.6-2.4,1.6-4.1v-4.5
			h-0.9c-0.5,1.2-1.2,2.1-2.3,2.8c-1.1,0.7-2.6,1.1-4.5,1.1c-1.5,0-2.9-0.3-4.2-0.8c-1.3-0.5-2.4-1.3-3.4-2.3s-1.7-2.2-2.2-3.6
			c-0.5-1.4-0.8-3-0.8-4.6v-0.6c0-1.7,0.3-3.2,0.9-4.7c0.6-1.5,1.4-2.7,2.5-3.8c1.1-1,2.4-1.9,4-2.5c1.5-0.6,3.3-0.9,5.2-0.9
			c1.7,0,3.4,0.3,4.9,0.8c1.5,0.6,2.8,1.4,3.9,2.4c1.1,1,2,2.2,2.6,3.7c0.6,1.4,1,3,1,4.7v12.8c0,1.9-0.3,3.6-1,5.1
			s-1.5,2.8-2.6,3.8s-2.4,1.8-3.9,2.4c-1.5,0.5-3.1,0.8-4.8,0.8c-1.7,0-3.3-0.2-4.8-0.7c-1.5-0.5-2.7-1.2-3.8-2.1s-1.9-2-2.5-3.3
			c-0.6-1.3-0.9-2.8-0.9-4.5H1057.4z M1062.7,1270.6c-1.7,0-3.1,0.5-4.2,1.5c-1.1,1-1.7,2.4-1.7,4.1c0,1.7,0.5,3.1,1.7,4.1
			c1.1,1,2.5,1.5,4.2,1.5c1.7,0,3.1-0.5,4.2-1.5c1.1-1,1.7-2.4,1.7-4.1c0-1.7-0.5-3.1-1.7-4.1
			C1065.8,1271.1,1064.4,1270.6,1062.7,1270.6z"/>
	</g>
	<g>
		<path class="st0" d="M938.2,1393.7v-25.4h-0.9l-3.3,12h-6.3v-0.6l4.2-14.7h12.9v28.7h8.7v6.3h-25.2v-6.3H938.2z"/>
		<path class="st0" d="M968.8,1393.7v-25.4h-0.9l-3.3,12h-6.3v-0.6l4.2-14.7h12.9v28.7h8.7v6.3h-25.2v-6.3H968.8z"/>
		<path class="st0" d="M993.7,1383.4h15.6v5.7h-15.6V1383.4z"/>
		<path class="st0" d="M1019.2,1378.6c0-4.5,1.1-8,3.4-10.5c2.3-2.5,5.4-3.8,9.5-3.8s7.2,1.2,9.5,3.8s3.4,6,3.4,10.5v7.8
			c0,4.7-1.1,8.2-3.4,10.7c-2.3,2.4-5.4,3.7-9.5,3.7s-7.2-1.2-9.5-3.7c-2.3-2.4-3.4-6-3.4-10.7V1378.6z M1032.1,1394.7
			c1.2,0,2.2-0.2,3-0.6c0.8-0.4,1.5-0.9,2-1.6s0.8-1.5,1-2.5s0.3-2,0.3-3.2v-8.6c0-1.1-0.1-2.1-0.3-3.1c-0.2-1-0.6-1.8-1.1-2.5
			s-1.1-1.3-1.9-1.7c-0.8-0.4-1.8-0.6-2.9-0.6c-1.1,0-2.1,0.2-2.9,0.6c-0.8,0.4-1.4,1-1.9,1.7s-0.9,1.5-1.1,2.5
			c-0.2,1-0.3,2-0.3,3.1v8.6c0,1.2,0.1,2.2,0.3,3.2s0.5,1.8,1,2.5s1.2,1.2,2,1.6C1029.9,1394.5,1030.9,1394.7,1032.1,1394.7z
			 M1027.9,1382.5c0-1.1,0.4-2.1,1.2-3c0.8-0.8,1.8-1.2,3-1.2c1.1,0,2.1,0.4,3,1.2c0.8,0.8,1.2,1.8,1.2,3c0,1.1-0.4,2.1-1.2,3
			c-0.8,0.8-1.8,1.2-3,1.2c-1.1,0-2.1-0.4-3-1.2S1027.9,1383.6,1027.9,1382.5z"/>
		<path class="st0" d="M1057.4,1390.1c0,1.2,0.4,2.2,1.3,3c0.8,0.8,2.2,1.3,4,1.3c1.8,0,3.2-0.5,4.3-1.6c1-1.1,1.6-2.4,1.6-4.1v-4.5
			h-0.9c-0.5,1.2-1.2,2.1-2.3,2.8c-1.1,0.7-2.6,1.1-4.5,1.1c-1.5,0-2.9-0.3-4.2-0.8c-1.3-0.5-2.4-1.3-3.4-2.3s-1.7-2.2-2.2-3.6
			c-0.5-1.4-0.8-3-0.8-4.6v-0.6c0-1.7,0.3-3.2,0.9-4.7c0.6-1.5,1.4-2.7,2.5-3.8c1.1-1,2.4-1.9,4-2.5c1.5-0.6,3.3-0.9,5.2-0.9
			c1.7,0,3.4,0.3,4.9,0.8c1.5,0.6,2.8,1.4,3.9,2.4c1.1,1,2,2.2,2.6,3.7c0.6,1.4,1,3,1,4.7v12.8c0,1.9-0.3,3.6-1,5.1
			s-1.5,2.8-2.6,3.8s-2.4,1.8-3.9,2.4c-1.5,0.5-3.1,0.8-4.8,0.8c-1.7,0-3.3-0.2-4.8-0.7c-1.5-0.5-2.7-1.2-3.8-2.1s-1.9-2-2.5-3.3
			c-0.6-1.3-0.9-2.8-0.9-4.5H1057.4z M1062.7,1370.6c-1.7,0-3.1,0.5-4.2,1.5c-1.1,1-1.7,2.4-1.7,4.1c0,1.7,0.5,3.1,1.7,4.1
			c1.1,1,2.5,1.5,4.2,1.5c1.7,0,3.1-0.5,4.2-1.5c1.1-1,1.7-2.4,1.7-4.1c0-1.7-0.5-3.1-1.7-4.1
			C1065.8,1371.1,1064.4,1370.6,1062.7,1370.6z"/>
	</g>
	<g>
		<path class="st0" d="M938.2,1493.7v-25.4h-0.9l-3.3,12h-6.3v-0.6l4.2-14.7h12.9v28.7h8.7v6.3h-25.2v-6.3H938.2z"/>
		<path class="st0" d="M970.9,1500.7c-2,0-3.7-0.2-5.3-0.7c-1.6-0.5-2.9-1.2-4-2c-1.1-0.9-2-1.9-2.5-3.1c-0.6-1.2-0.9-2.5-0.9-4
			v-0.3c0-1.2,0.2-2.3,0.5-3.2c0.3-0.9,0.8-1.7,1.4-2.4c0.6-0.7,1.2-1.2,2-1.7c0.7-0.4,1.5-0.8,2.3-1v-0.9c-0.7-0.3-1.4-0.6-2-1
			c-0.7-0.4-1.2-1-1.7-1.6c-0.5-0.6-0.9-1.3-1.2-2.2c-0.3-0.9-0.4-1.8-0.4-2.9v-0.3c0-1.4,0.3-2.7,1-3.8c0.7-1.1,1.5-2.1,2.7-2.9
			c1.1-0.8,2.4-1.4,3.8-1.8c1.4-0.4,2.9-0.6,4.4-0.6s3,0.2,4.4,0.6c1.4,0.4,2.7,1,3.8,1.8c1.1,0.8,2,1.7,2.7,2.9
			c0.7,1.1,1,2.4,1,3.8v0.3c0,1.1-0.1,2-0.4,2.9c-0.3,0.8-0.7,1.6-1.2,2.2c-0.5,0.6-1,1.1-1.7,1.6c-0.6,0.4-1.3,0.8-2,1v0.9
			c0.8,0.2,1.6,0.6,2.3,1c0.7,0.4,1.4,1,2,1.7s1,1.5,1.4,2.4c0.3,0.9,0.5,2,0.5,3.2v0.3c0,1.5-0.3,2.8-0.9,4
			c-0.6,1.2-1.5,2.2-2.5,3.1c-1.1,0.9-2.4,1.5-4,2C974.6,1500.5,972.8,1500.7,970.9,1500.7z M970.9,1494.4c2,0,3.5-0.4,4.6-1.3
			c1.1-0.9,1.6-2,1.6-3.4s-0.5-2.5-1.6-3.4c-1.1-0.9-2.6-1.3-4.6-1.3s-3.5,0.4-4.5,1.3c-1.1,0.9-1.6,2-1.6,3.4s0.5,2.5,1.6,3.4
			C967.4,1494,968.9,1494.4,970.9,1494.4z M970.9,1470.6c-1.5,0-2.8,0.4-3.8,1.2s-1.5,1.7-1.5,2.9c0,1.2,0.5,2.1,1.5,2.9
			c1,0.8,2.2,1.2,3.8,1.2s2.8-0.4,3.8-1.2c1-0.8,1.5-1.7,1.5-2.9c0-1.2-0.5-2.1-1.5-2.9S972.4,1470.6,970.9,1470.6z"/>
		<path class="st0" d="M993.7,1483.4h15.6v5.7h-15.6V1483.4z"/>
		<path class="st0" d="M1019.2,1478.6c0-4.5,1.1-8,3.4-10.5c2.3-2.5,5.4-3.8,9.5-3.8s7.2,1.2,9.5,3.8s3.4,6,3.4,10.5v7.8
			c0,4.7-1.1,8.2-3.4,10.7c-2.3,2.4-5.4,3.7-9.5,3.7s-7.2-1.2-9.5-3.7c-2.3-2.4-3.4-6-3.4-10.7V1478.6z M1032.1,1494.7
			c1.2,0,2.2-0.2,3-0.6c0.8-0.4,1.5-0.9,2-1.6s0.8-1.5,1-2.5s0.3-2,0.3-3.2v-8.6c0-1.1-0.1-2.1-0.3-3.1c-0.2-1-0.6-1.8-1.1-2.5
			s-1.1-1.3-1.9-1.7c-0.8-0.4-1.8-0.6-2.9-0.6c-1.1,0-2.1,0.2-2.9,0.6c-0.8,0.4-1.4,1-1.9,1.7s-0.9,1.5-1.1,2.5
			c-0.2,1-0.3,2-0.3,3.1v8.6c0,1.2,0.1,2.2,0.3,3.2s0.5,1.8,1,2.5s1.2,1.2,2,1.6C1029.9,1494.5,1030.9,1494.7,1032.1,1494.7z
			 M1027.9,1482.5c0-1.1,0.4-2.1,1.2-3c0.8-0.8,1.8-1.2,3-1.2c1.1,0,2.1,0.4,3,1.2c0.8,0.8,1.2,1.8,1.2,3c0,1.1-0.4,2.1-1.2,3
			c-0.8,0.8-1.8,1.2-3,1.2c-1.1,0-2.1-0.4-3-1.2S1027.9,1483.6,1027.9,1482.5z"/>
		<path class="st0" d="M1057.4,1490.1c0,1.2,0.4,2.2,1.3,3c0.8,0.8,2.2,1.3,4,1.3c1.8,0,3.2-0.5,4.3-1.6c1-1.1,1.6-2.4,1.6-4.1v-4.5
			h-0.9c-0.5,1.2-1.2,2.1-2.3,2.8c-1.1,0.7-2.6,1.1-4.5,1.1c-1.5,0-2.9-0.3-4.2-0.8c-1.3-0.5-2.4-1.3-3.4-2.3s-1.7-2.2-2.2-3.6
			c-0.5-1.4-0.8-3-0.8-4.6v-0.6c0-1.7,0.3-3.2,0.9-4.7c0.6-1.5,1.4-2.7,2.5-3.8c1.1-1,2.4-1.9,4-2.5c1.5-0.6,3.3-0.9,5.2-0.9
			c1.7,0,3.4,0.3,4.9,0.8c1.5,0.6,2.8,1.4,3.9,2.4c1.1,1,2,2.2,2.6,3.7c0.6,1.4,1,3,1,4.7v12.8c0,1.9-0.3,3.6-1,5.1
			s-1.5,2.8-2.6,3.8s-2.4,1.8-3.9,2.4c-1.5,0.5-3.1,0.8-4.8,0.8c-1.7,0-3.3-0.2-4.8-0.7c-1.5-0.5-2.7-1.2-3.8-2.1s-1.9-2-2.5-3.3
			c-0.6-1.3-0.9-2.8-0.9-4.5H1057.4z M1062.7,1470.6c-1.7,0-3.1,0.5-4.2,1.5c-1.1,1-1.7,2.4-1.7,4.1c0,1.7,0.5,3.1,1.7,4.1
			c1.1,1,2.5,1.5,4.2,1.5c1.7,0,3.1-0.5,4.2-1.5c1.1-1,1.7-2.4,1.7-4.1c0-1.7-0.5-3.1-1.7-4.1
			C1065.8,1471.1,1064.4,1470.6,1062.7,1470.6z"/>
	</g>
	<g>
		<path class="st0" d="M208,1187.9c0,2.1-0.4,3.9-1.1,5.5c-0.7,1.6-1.6,2.9-2.9,4c-1.2,1.1-2.6,1.9-4.1,2.5
			c-1.5,0.6-3.2,0.8-4.9,0.8c-1.7,0-3.3-0.3-4.9-0.8c-1.5-0.6-2.9-1.4-4.1-2.5c-1.2-1.1-2.1-2.4-2.8-4c-0.7-1.6-1.1-3.4-1.1-5.5
			v-0.6c0-2,0.4-3.8,1.1-5.4c0.7-1.6,1.6-2.9,2.8-4c1.2-1.1,2.6-1.9,4.1-2.5c1.6-0.6,3.2-0.9,4.9-0.9c1.7,0,3.3,0.3,4.9,0.9
			c1.6,0.6,2.9,1.4,4.1,2.5c1.2,1.1,2.2,2.4,2.9,4c0.7,1.6,1.1,3.4,1.1,5.4V1187.9z M195.1,1194.7c0.9,0,1.8-0.2,2.6-0.5
			c0.8-0.3,1.5-0.7,2.1-1.3c0.6-0.6,1.1-1.3,1.4-2.1c0.4-0.8,0.5-1.7,0.5-2.8v-1c0-1-0.2-2-0.5-2.8c-0.4-0.8-0.8-1.5-1.4-2.1
			c-0.6-0.6-1.3-1-2.1-1.3c-0.8-0.3-1.6-0.5-2.6-0.5c-0.9,0-1.8,0.2-2.5,0.5s-1.5,0.7-2.1,1.3c-0.6,0.6-1.1,1.3-1.4,2.1
			c-0.4,0.8-0.5,1.7-0.5,2.8v1c0,1,0.2,2,0.5,2.8c0.4,0.8,0.8,1.5,1.4,2.1c0.6,0.6,1.3,1,2.1,1.3S194.2,1194.7,195.1,1194.7z"/>
		<path class="st0" d="M223.1,1200h-6.3v-24.8h6.3v3.7h0.9c0.6-1.4,1.5-2.5,2.8-3.2c1.3-0.8,2.8-1.2,4.4-1.2c1.2,0,2.3,0.2,3.4,0.6
			c1.1,0.4,2,1,2.8,1.8c0.8,0.8,1.4,1.8,1.9,3c0.4,1.2,0.7,2.7,0.7,4.4v15.7h-6.3v-14.1c0-1.8-0.4-3.2-1.3-4.2
			c-0.8-1-2.1-1.5-3.7-1.5c-1.9,0-3.3,0.6-4.2,1.9c-0.9,1.2-1.4,2.9-1.4,5V1200z"/>
		<path class="st0" d="M250.1,1165h6.6v28.7h15.9v6.3h-22.5V1165z"/>
		<path class="st0" d="M283.5,1194h8.4v-12.8h-7.8v-6h14.1v18.8h7.2v6h-21.9V1194z M299.7,1167.8c0,0.7-0.1,1.3-0.4,1.9
			s-0.6,1.1-1,1.5c-0.4,0.4-0.9,0.8-1.5,1c-0.6,0.2-1.2,0.4-1.8,0.4c-0.7,0-1.3-0.1-1.9-0.4c-0.6-0.2-1.1-0.6-1.5-1
			c-0.4-0.4-0.8-0.9-1-1.5s-0.4-1.2-0.4-1.9s0.1-1.3,0.4-1.9s0.6-1.1,1-1.5c0.4-0.4,0.9-0.8,1.5-1c0.6-0.2,1.2-0.4,1.9-0.4
			c0.6,0,1.2,0.1,1.8,0.4c0.6,0.2,1.1,0.6,1.5,1c0.4,0.4,0.8,0.9,1,1.5S299.7,1167.2,299.7,1167.8z"/>
		<path class="st0" d="M322.4,1200h-6.3v-24.8h6.3v3.7h0.9c0.6-1.4,1.5-2.5,2.8-3.2c1.3-0.8,2.8-1.2,4.4-1.2c1.2,0,2.3,0.2,3.4,0.6
			c1.1,0.4,2,1,2.8,1.8c0.8,0.8,1.4,1.8,1.9,3c0.4,1.2,0.7,2.7,0.7,4.4v15.7h-6.3v-14.1c0-1.8-0.4-3.2-1.3-4.2
			c-0.8-1-2.1-1.5-3.7-1.5c-1.9,0-3.3,0.6-4.2,1.9c-0.9,1.2-1.4,2.9-1.4,5V1200z"/>
		<path class="st0" d="M354.8,1189.6c0,0.7,0.2,1.4,0.5,2c0.3,0.6,0.8,1.2,1.3,1.6c0.6,0.5,1.2,0.8,1.9,1s1.5,0.4,2.3,0.4
			c1.6,0,2.8-0.3,3.6-0.8c0.8-0.5,1.4-1.2,1.8-2l5.4,3c-0.3,0.6-0.7,1.3-1.2,2c-0.5,0.7-1.2,1.3-2.1,1.9c-0.8,0.6-1.9,1-3.1,1.4
			c-1.2,0.4-2.6,0.5-4.3,0.5c-1.9,0-3.6-0.3-5.1-0.9c-1.5-0.6-2.9-1.5-4-2.6c-1.1-1.1-2-2.5-2.6-4.2c-0.6-1.6-0.9-3.5-0.9-5.5v-0.3
			c0-1.9,0.3-3.6,1-5.2c0.7-1.6,1.5-2.9,2.7-4c1.1-1.1,2.5-2,4-2.6c1.5-0.6,3.1-0.9,4.9-0.9c2.1,0,4,0.4,5.5,1.1
			c1.5,0.8,2.8,1.7,3.8,2.9c1,1.1,1.7,2.4,2.2,3.8c0.5,1.4,0.7,2.7,0.7,4v3.4H354.8z M360.7,1180.2c-1.6,0-2.9,0.4-3.9,1.2
			c-1,0.8-1.6,1.8-2,2.8h11.7c-0.2-1.2-0.8-2.1-1.9-2.9S362.3,1180.2,360.7,1180.2z"/>
	</g>
	<g>
		<rect x="175" y="1247.5" class="st0" width="200" height="5"/>
	</g>
</g>
</svg>
