<?xml version="1.0" encoding="utf-8"?>
<!-- Generator: Adobe Illustrator 24.0.0, SVG Export Plug-In . SVG Version: 6.00 Build 0)  -->
<svg version="1.1" xmlns="http://www.w3.org/2000/svg" xmlns:xlink="http://www.w3.org/1999/xlink" x="0px" y="0px"
	 viewBox="0 0 1450 1800" style="enable-background:new 0 0 1450 1800;" xml:space="preserve">
<style type="text/css">
	.st0{fill:#231F20;}
</style>
<g id="Grid">
	<g>
	</g>
</g>
<g id="Tipo_2">
	<g>
		<g>
			<path class="st0" d="M203.2,351H221c6.1,0,10.6,1.4,13.5,4.2c2.9,2.8,4.4,7.2,4.4,13.1v14.3c0,5.9-1.5,10.3-4.4,13.1
				c-2.9,2.8-7.4,4.2-13.5,4.2h-17.8v-8.9h4.6v-31.3h-4.6V351z M221,391.2c3.2,0,5.5-0.8,6.8-2.3c1.3-1.5,1.9-3.9,1.9-7.1v-13.4
				c0-2.8-0.6-4.9-1.9-6.4c-1.3-1.4-3.5-2.2-6.8-2.2h-3.9v31.4H221z"/>
			<path class="st0" d="M256.3,351h30.9v8.8h-21.7V371h20.9v8.8h-20.9v11.3h22.5v8.8h-31.8V351z"/>
			<path class="st0" d="M330.9,366c0-2-0.8-3.7-2.3-5.1c-1.5-1.4-3.7-2.2-6.4-2.2c-2.3,0-4.2,0.5-5.5,1.4c-1.4,1-2,2.3-2,3.9
				c0,0.8,0.2,1.6,0.5,2.3c0.3,0.7,0.9,1.3,1.7,1.8c0.8,0.5,1.9,1,3.2,1.4c1.3,0.4,3,0.8,5.1,1.2c5.1,0.9,9.1,2.5,11.8,4.7
				c2.7,2.2,4.1,5.4,4.1,9.7v0.8c0,2.3-0.4,4.4-1.2,6.2c-0.8,1.8-2,3.4-3.5,4.7c-1.5,1.3-3.4,2.3-5.6,3c-2.2,0.7-4.7,1-7.4,1
				c-3.2,0-6.1-0.5-8.5-1.4c-2.5-0.9-4.5-2.2-6.1-3.8c-1.6-1.6-2.9-3.5-3.7-5.7c-0.8-2.2-1.3-4.5-1.3-7.1V381h9.2v1.7
				c0,2.9,0.9,5.3,2.6,7c1.7,1.8,4.4,2.6,7.9,2.6c2.8,0,4.9-0.6,6.2-1.8c1.4-1.2,2-2.7,2-4.3c0-0.8-0.1-1.6-0.4-2.3
				c-0.3-0.7-0.8-1.4-1.5-2c-0.7-0.6-1.7-1.1-2.9-1.6c-1.2-0.5-2.8-0.9-4.6-1.2c-2.5-0.4-4.7-1-6.8-1.6c-2.1-0.7-3.8-1.6-5.4-2.7
				c-1.5-1.1-2.7-2.5-3.5-4.2c-0.8-1.7-1.3-3.7-1.3-6.2V364c0-2,0.4-3.9,1.2-5.6c0.8-1.7,2-3.2,3.4-4.4c1.5-1.3,3.2-2.2,5.3-2.9
				c2.1-0.7,4.4-1,7-1c2.9,0,5.5,0.4,7.7,1.2c2.2,0.8,4.1,1.9,5.6,3.3c1.5,1.4,2.7,3,3.4,4.8c0.8,1.8,1.2,3.7,1.2,5.7v2.5h-9.2V366z
				"/>
			<path class="st0" d="M357.4,351h30.9v8.8h-21.7V371h20.9v8.8h-20.9v11.3h22.5v8.8h-31.8V351z"/>
			<path class="st0" d="M430.2,395.4h1.3V351h9.2v49h-18.1l-5.7-44.4h-1.3V400h-9.2v-49h18.1L430.2,395.4z"/>
			<path class="st0" d="M457,351h9.2v20H482v-20h9.2v49H482v-20.2h-15.8V400H457V351z"/>
			<path class="st0" d="M533,389.5h-16.7l-2.4,10.5h-9.7l11.7-49h17.4l11.7,49h-9.7L533,389.5z M518.3,380.7H531l-5.7-25.1H524
				L518.3,380.7z"/>
			<path class="st0" d="M581.8,395.4h1.3V351h9.2v49h-18.1l-5.7-44.4h-1.3V400H558v-49h18.1L581.8,395.4z"/>
			<path class="st0" d="M607.5,351h17.8c6.1,0,10.6,1.4,13.5,4.2c2.9,2.8,4.4,7.2,4.4,13.1v14.3c0,5.9-1.5,10.3-4.4,13.1
				c-2.9,2.8-7.4,4.2-13.5,4.2h-17.8v-8.9h4.6v-31.3h-4.6V351z M625.3,391.2c3.2,0,5.5-0.8,6.8-2.3c1.3-1.5,1.9-3.9,1.9-7.1v-13.4
				c0-2.8-0.6-4.9-1.9-6.4c-1.3-1.4-3.5-2.2-6.8-2.2h-3.9v31.4H625.3z"/>
			<path class="st0" d="M658.2,370c0-6.3,1.6-11.3,4.8-14.8c3.2-3.5,7.6-5.3,13.3-5.3s10.1,1.8,13.3,5.3c3.2,3.5,4.8,8.4,4.8,14.8
				V381c0,6.5-1.6,11.5-4.8,14.9c-3.2,3.4-7.6,5.1-13.3,5.1s-10.1-1.7-13.3-5.1c-3.2-3.4-4.8-8.4-4.8-14.9V370z M676.3,392.6
				c1.7,0,3.1-0.3,4.2-0.8c1.1-0.5,2-1.3,2.7-2.3c0.7-1,1.2-2.1,1.5-3.5c0.3-1.4,0.4-2.8,0.4-4.5v-12c0-1.5-0.2-3-0.5-4.3
				c-0.3-1.4-0.8-2.5-1.5-3.5c-0.7-1-1.6-1.8-2.7-2.3c-1.1-0.6-2.5-0.9-4.1-0.9s-2.9,0.3-4.1,0.9c-1.1,0.6-2,1.4-2.7,2.3
				c-0.7,1-1.2,2.1-1.5,3.5c-0.3,1.4-0.5,2.8-0.5,4.3v12c0,1.6,0.1,3.1,0.4,4.5c0.3,1.4,0.8,2.5,1.5,3.5c0.7,1,1.6,1.7,2.7,2.3
				C673.2,392.3,674.6,392.6,676.3,392.6z"/>
		</g>
	</g>
	<g>
		<g>
			<path class="st0" d="M821.6,392.6c1.8,0,3.2-0.3,4.4-0.8c1.1-0.5,2-1.3,2.7-2.2c0.6-0.9,1.1-2,1.3-3.1c0.2-1.2,0.3-2.4,0.3-3.7
				v-1.3h9.2v1.3c0,5.8-1.5,10.3-4.6,13.5c-3.1,3.1-7.5,4.7-13.3,4.7c-5.6,0-10-1.7-13.3-5.1c-3.3-3.4-4.9-8.4-4.9-14.9V370
				c0-3.1,0.4-5.9,1.3-8.4c0.8-2.5,2.1-4.6,3.6-6.3c1.6-1.7,3.5-3,5.7-3.9c2.2-0.9,4.8-1.4,7.6-1.4c2.9,0,5.5,0.4,7.7,1.3
				c2.2,0.8,4.1,2.1,5.6,3.6c1.5,1.6,2.7,3.5,3.4,5.7c0.8,2.2,1.2,4.8,1.2,7.6v1.3h-9.2v-1.3c0-1.2-0.1-2.3-0.4-3.5
				c-0.3-1.2-0.7-2.2-1.4-3.2c-0.7-0.9-1.5-1.7-2.7-2.3c-1.1-0.6-2.5-0.9-4.2-0.9c-1.5,0-2.9,0.3-4,0.9c-1.1,0.6-2.1,1.4-2.8,2.4
				c-0.7,1-1.3,2.2-1.6,3.5c-0.3,1.3-0.5,2.7-0.5,4.2v12.3c0,1.6,0.2,3,0.5,4.4s0.8,2.5,1.5,3.5c0.7,1,1.6,1.7,2.8,2.3
				C818.5,392.3,819.9,392.6,821.6,392.6z"/>
			<path class="st0" d="M853.9,370c0-6.3,1.6-11.3,4.8-14.8c3.2-3.5,7.6-5.3,13.3-5.3s10.1,1.8,13.3,5.3c3.2,3.5,4.8,8.4,4.8,14.8
				V381c0,6.5-1.6,11.5-4.8,14.9c-3.2,3.4-7.6,5.1-13.3,5.1s-10.1-1.7-13.3-5.1c-3.2-3.4-4.8-8.4-4.8-14.9V370z M872,392.6
				c1.7,0,3.1-0.3,4.2-0.8c1.1-0.5,2-1.3,2.7-2.3c0.7-1,1.2-2.1,1.5-3.5c0.3-1.4,0.4-2.8,0.4-4.5v-12c0-1.5-0.2-3-0.5-4.3
				c-0.3-1.4-0.8-2.5-1.5-3.5s-1.6-1.8-2.7-2.3c-1.1-0.6-2.5-0.9-4.1-0.9c-1.6,0-2.9,0.3-4.1,0.9c-1.1,0.6-2,1.4-2.7,2.3
				c-0.7,1-1.2,2.1-1.5,3.5c-0.3,1.4-0.5,2.8-0.5,4.3v12c0,1.6,0.1,3.1,0.4,4.5c0.3,1.4,0.8,2.5,1.5,3.5s1.6,1.7,2.7,2.3
				C868.9,392.3,870.3,392.6,872,392.6z"/>
			<path class="st0" d="M902.6,351h16.2l2.8,36.8v7.1h1.7v-7.1l2.8-36.8h16.2v49H934v-32.8l0.8-11.2h-1.7l-3.6,44h-13.9l-3.8-44
				h-1.7l0.8,11.2V400h-8.4V351z"/>
		</g>
	</g>
	<g>
		<g>
			<path class="st0" d="M221.6,692.6c1.8,0,3.2-0.3,4.4-0.8c1.1-0.5,2-1.3,2.7-2.2c0.6-0.9,1.1-2,1.3-3.1c0.2-1.2,0.4-2.4,0.4-3.7
				v-1.3h9.2v1.3c0,5.8-1.5,10.3-4.6,13.5c-3.1,3.1-7.5,4.7-13.3,4.7c-5.6,0-10-1.7-13.3-5.1c-3.3-3.4-4.9-8.4-4.9-14.9V670
				c0-3.1,0.4-5.9,1.3-8.4c0.8-2.5,2.1-4.6,3.6-6.3c1.6-1.7,3.5-3,5.7-3.9c2.2-0.9,4.8-1.4,7.6-1.4c2.9,0,5.5,0.4,7.7,1.3
				c2.2,0.8,4.1,2.1,5.6,3.6c1.5,1.6,2.7,3.5,3.4,5.7c0.8,2.2,1.2,4.8,1.2,7.6v1.3h-9.2v-1.3c0-1.2-0.1-2.3-0.4-3.5
				c-0.3-1.2-0.7-2.2-1.4-3.2c-0.7-0.9-1.5-1.7-2.7-2.3c-1.1-0.6-2.5-0.9-4.2-0.9c-1.5,0-2.9,0.3-4,0.9c-1.1,0.6-2.1,1.4-2.8,2.4
				c-0.7,1-1.3,2.2-1.6,3.5c-0.4,1.3-0.5,2.7-0.5,4.2v12.3c0,1.6,0.2,3,0.5,4.4c0.3,1.3,0.8,2.5,1.5,3.5c0.7,1,1.6,1.7,2.8,2.3
				C218.5,692.3,219.9,692.6,221.6,692.6z"/>
			<path class="st0" d="M253.9,670c0-6.3,1.6-11.3,4.8-14.8c3.2-3.5,7.6-5.3,13.3-5.3c5.6,0,10.1,1.8,13.3,5.3
				c3.2,3.5,4.8,8.4,4.8,14.8V681c0,6.5-1.6,11.5-4.8,14.9c-3.2,3.4-7.6,5.1-13.3,5.1c-5.6,0-10.1-1.7-13.3-5.1
				c-3.2-3.4-4.8-8.4-4.8-14.9V670z M272,692.6c1.7,0,3.1-0.3,4.2-0.8c1.1-0.5,2-1.3,2.7-2.3c0.7-1,1.2-2.1,1.5-3.5
				c0.3-1.4,0.4-2.8,0.4-4.5v-12c0-1.5-0.2-3-0.5-4.3c-0.3-1.4-0.8-2.5-1.5-3.5s-1.6-1.8-2.7-2.3c-1.1-0.6-2.5-0.9-4.1-0.9
				c-1.6,0-2.9,0.3-4.1,0.9c-1.1,0.6-2,1.4-2.7,2.3c-0.7,1-1.2,2.1-1.5,3.5c-0.3,1.4-0.5,2.8-0.5,4.3v12c0,1.6,0.1,3.1,0.4,4.5
				c0.3,1.4,0.8,2.5,1.5,3.5c0.7,1,1.6,1.7,2.7,2.3C268.9,692.3,270.3,692.6,272,692.6z"/>
			<path class="st0" d="M302.6,651h16.2l2.8,36.8v7.1h1.7v-7.1l2.8-36.8h16.2v49H334v-32.8l0.8-11.2h-1.7l-3.6,44h-13.9l-3.8-44
				h-1.7l0.8,11.2V700h-8.4V651z"/>
		</g>
	</g>
	<g>
		<g>
			<path class="st0" d="M821.6,542.6c1.8,0,3.2-0.3,4.4-0.8c1.1-0.5,2-1.3,2.7-2.2s1.1-2,1.3-3.1c0.2-1.2,0.4-2.4,0.4-3.7v-1.3h9.2
				v1.3c0,5.8-1.5,10.3-4.6,13.5s-7.5,4.7-13.3,4.7c-5.6,0-10-1.7-13.3-5.1c-3.3-3.4-4.9-8.4-4.9-14.9V520c0-3.1,0.4-5.9,1.3-8.4
				c0.8-2.5,2.1-4.6,3.6-6.3c1.6-1.7,3.5-3,5.7-3.9c2.2-0.9,4.8-1.4,7.6-1.4c2.9,0,5.5,0.4,7.7,1.3c2.2,0.8,4.1,2.1,5.6,3.6
				c1.5,1.6,2.7,3.5,3.4,5.7c0.8,2.2,1.2,4.8,1.2,7.6v1.3h-9.2v-1.3c0-1.2-0.1-2.3-0.4-3.5c-0.3-1.2-0.7-2.2-1.4-3.2
				c-0.7-0.9-1.5-1.7-2.7-2.3c-1.1-0.6-2.5-0.9-4.2-0.9c-1.5,0-2.9,0.3-4,0.9c-1.1,0.6-2.1,1.4-2.8,2.4c-0.7,1-1.3,2.2-1.6,3.5
				c-0.4,1.3-0.5,2.7-0.5,4.2v12.3c0,1.6,0.2,3,0.5,4.4c0.3,1.3,0.8,2.5,1.5,3.5s1.6,1.7,2.8,2.3
				C818.5,542.3,819.9,542.6,821.6,542.6z"/>
			<path class="st0" d="M853.9,520c0-6.3,1.6-11.3,4.8-14.8s7.6-5.3,13.3-5.3c5.6,0,10.1,1.8,13.3,5.3c3.2,3.5,4.8,8.4,4.8,14.8V531
				c0,6.5-1.6,11.5-4.8,14.9c-3.2,3.4-7.6,5.1-13.3,5.1c-5.6,0-10.1-1.7-13.3-5.1c-3.2-3.4-4.8-8.4-4.8-14.9V520z M872,542.6
				c1.7,0,3.1-0.3,4.2-0.8c1.1-0.5,2-1.3,2.7-2.3s1.2-2.1,1.5-3.5c0.3-1.4,0.4-2.8,0.4-4.5v-12c0-1.5-0.2-3-0.5-4.3
				c-0.3-1.4-0.8-2.5-1.5-3.5s-1.6-1.8-2.7-2.3c-1.1-0.6-2.5-0.9-4.1-0.9c-1.6,0-2.9,0.3-4.1,0.9c-1.1,0.6-2,1.4-2.7,2.3
				s-1.2,2.1-1.5,3.5c-0.3,1.4-0.5,2.8-0.5,4.3v12c0,1.6,0.1,3.1,0.4,4.5c0.3,1.4,0.8,2.5,1.5,3.5c0.7,1,1.6,1.7,2.7,2.3
				C868.9,542.3,870.3,542.6,872,542.6z M872,486.3h9.4l-5.9,9.5h-7.1L872,486.3z"/>
			<path class="st0" d="M904.3,501h17.8c6.1,0,10.6,1.4,13.5,4.2c2.9,2.8,4.4,7.2,4.4,13.1v14.3c0,5.9-1.5,10.3-4.4,13.1
				c-2.9,2.8-7.4,4.2-13.5,4.2h-17.8v-8.9h4.6v-31.3h-4.6V501z M922.1,541.2c3.2,0,5.5-0.8,6.8-2.3c1.3-1.5,1.9-3.9,1.9-7.1v-13.4
				c0-2.8-0.6-4.9-1.9-6.4c-1.3-1.4-3.5-2.2-6.8-2.2h-3.9v31.4H922.1z"/>
			<path class="st0" d="M956.7,501h32.8v8.8h-11.8v31.4h11.8v8.8h-32.8v-8.8h11.8v-31.4h-11.8V501z"/>
			<path class="st0" d="M1020.4,525.2h21V550h-8.4v-5.5h-1.3c-0.6,1.8-1.6,3.3-3.2,4.6c-1.6,1.2-4,1.9-7.1,1.9
				c-2.2,0-4.3-0.4-6.3-1.3c-2-0.8-3.7-2.1-5.1-3.7c-1.4-1.7-2.6-3.7-3.4-6.2c-0.8-2.4-1.3-5.3-1.3-8.6v-11.5c0-3.2,0.5-6,1.4-8.4
				c0.9-2.5,2.2-4.5,3.8-6.2c1.6-1.7,3.5-3,5.8-3.8c2.2-0.9,4.7-1.3,7.4-1.3c2.8,0,5.3,0.5,7.5,1.4c2.2,0.9,4.1,2.2,5.6,3.8
				c1.5,1.6,2.7,3.5,3.5,5.7c0.8,2.2,1.2,4.5,1.2,7v0.8h-9.2v-0.8c0-2.9-0.8-5.2-2.3-6.7c-1.5-1.5-3.7-2.3-6.4-2.3
				c-2.6,0-4.8,0.9-6.4,2.6c-1.7,1.8-2.5,4.7-2.5,9v10.4c0,7.6,3.1,11.3,9.2,11.3c2.8,0,4.8-0.7,6.3-2.2c1.4-1.5,2.1-3.4,2.1-5.9
				h-11.8V525.2z"/>
			<path class="st0" d="M1056.1,520c0-6.3,1.6-11.3,4.8-14.8c3.2-3.5,7.6-5.3,13.3-5.3s10.1,1.8,13.3,5.3c3.2,3.5,4.8,8.4,4.8,14.8
				V531c0,6.5-1.6,11.5-4.8,14.9c-3.2,3.4-7.6,5.1-13.3,5.1s-10.1-1.7-13.3-5.1c-3.2-3.4-4.8-8.4-4.8-14.9V520z M1074.1,542.6
				c1.7,0,3.1-0.3,4.2-0.8c1.1-0.5,2-1.3,2.7-2.3c0.7-1,1.2-2.1,1.5-3.5c0.3-1.4,0.4-2.8,0.4-4.5v-12c0-1.5-0.2-3-0.5-4.3
				c-0.3-1.4-0.8-2.5-1.5-3.5s-1.6-1.8-2.7-2.3c-1.1-0.6-2.5-0.9-4.1-0.9c-1.6,0-2.9,0.3-4.1,0.9c-1.1,0.6-2,1.4-2.7,2.3
				c-0.7,1-1.2,2.1-1.5,3.5c-0.3,1.4-0.5,2.8-0.5,4.3v12c0,1.6,0.1,3.1,0.4,4.5c0.3,1.4,0.8,2.5,1.5,3.5s1.6,1.7,2.7,2.3
				C1071,542.3,1072.4,542.6,1074.1,542.6z"/>
		</g>
	</g>
	<g>
		<g>
			<path class="st0" d="M218.2,825.2h21V850h-8.4v-5.5h-1.3c-0.6,1.8-1.6,3.3-3.2,4.6c-1.6,1.2-4,1.9-7.1,1.9
				c-2.2,0-4.3-0.4-6.3-1.3c-2-0.8-3.7-2.1-5.1-3.7c-1.4-1.7-2.6-3.7-3.4-6.2c-0.8-2.4-1.3-5.3-1.3-8.6v-11.5c0-3.2,0.5-6,1.4-8.4
				c0.9-2.5,2.2-4.5,3.8-6.2c1.6-1.7,3.5-3,5.8-3.8c2.2-0.9,4.7-1.3,7.4-1.3c2.8,0,5.3,0.5,7.5,1.4c2.2,0.9,4.1,2.2,5.6,3.8
				c1.5,1.6,2.7,3.5,3.5,5.7c0.8,2.2,1.2,4.5,1.2,7v0.8H230v-0.8c0-2.9-0.8-5.2-2.3-6.7c-1.5-1.5-3.7-2.3-6.4-2.3
				c-2.6,0-4.8,0.9-6.4,2.6c-1.7,1.8-2.5,4.7-2.5,9v10.4c0,7.6,3.1,11.3,9.2,11.3c2.8,0,4.8-0.7,6.3-2.2c1.4-1.5,2.1-3.4,2.1-5.9
				h-11.8V825.2z"/>
			<path class="st0" d="M289.6,801v32.1c0,5.6-1.5,10-4.4,13.2c-3,3.2-7.4,4.8-13.2,4.8c-5.8,0-10.2-1.6-13.2-4.8
				c-3-3.2-4.4-7.6-4.4-13.2V801h9.2v32.1c0,2.9,0.7,5.2,2,6.8c1.4,1.6,3.5,2.4,6.4,2.4c2.9,0,5-0.8,6.4-2.4c1.4-1.6,2-3.9,2-6.8
				V801H289.6z"/>
			<path class="st0" d="M306.1,801h32.8v8.8h-11.8v31.4h11.8v8.8h-32.8v-8.8h11.8v-31.4h-11.8V801z"/>
			<path class="st0" d="M357.4,801h9.2v40.2h22.3v8.8h-31.5V801z"/>
			<path class="st0" d="M406.4,801h9.2v20h15.8v-20h9.2v49h-9.2v-20.2h-15.8V850h-9.2V801z"/>
			<path class="st0" d="M458.4,801h30.9v8.8h-21.7V821h20.9v8.8h-20.9v11.3h22.5v8.8h-31.8V801z"/>
			<path class="st0" d="M541.2,850H532v-14.7c0-1.1-0.3-2-0.9-2.7c-0.6-0.7-1.6-1-2.9-1h-10.6V850h-9.2v-49h18.8
				c2.5,0,4.7,0.4,6.6,1c1.9,0.7,3.5,1.7,4.8,2.9c1.3,1.2,2.3,2.7,2.9,4.3c0.7,1.6,1,3.4,1,5.3v1.7c0,2-0.5,3.9-1.6,5.6
				c-1.1,1.8-2.7,3.1-5,4v1.3c1.6,0.2,2.9,0.8,3.9,1.9c1,1.1,1.4,2.4,1.4,4.1V850z M517.6,822.7h8.8c2.2,0,3.9-0.5,5.1-1.6
				c1.2-1,1.8-2.5,1.8-4.4v-0.8c0-1.6-0.6-3-1.8-4.2c-1.2-1.2-2.9-1.8-5.1-1.8h-8.8V822.7z"/>
			<path class="st0" d="M555.3,801h16.2l2.8,36.8v7.1h1.7v-7.1l2.8-36.8h16.2v49h-8.4v-32.8l0.8-11.2h-1.7l-3.6,44h-13.9l-3.8-44
				h-1.7l0.8,11.2V850h-8.4V801z"/>
			<path class="st0" d="M610.1,801H641v8.8h-21.7V821h20.9v8.8h-20.9v11.3h22.5v8.8h-31.8V801z"/>
		</g>
	</g>
	<g>
		<g>
			<path class="st0" d="M208.2,1270c0-6.3,1.6-11.3,4.8-14.8c3.2-3.5,7.6-5.3,13.3-5.3c5.6,0,10.1,1.8,13.3,5.3
				c3.2,3.5,4.8,8.4,4.8,14.8v10.9c0,6.5-1.6,11.5-4.8,14.9c-3.2,3.4-7.6,5.1-13.3,5.1c-5.6,0-10.1-1.7-13.3-5.1
				c-3.2-3.4-4.8-8.4-4.8-14.9V1270z M226.2,1292.6c1.7,0,3.1-0.3,4.2-0.8c1.1-0.5,2-1.3,2.7-2.3c0.7-1,1.2-2.1,1.5-3.5
				c0.3-1.4,0.4-2.8,0.4-4.5v-12c0-1.5-0.2-3-0.5-4.3c-0.3-1.4-0.8-2.5-1.5-3.5c-0.7-1-1.6-1.8-2.7-2.3c-1.1-0.6-2.5-0.9-4.1-0.9
				c-1.6,0-2.9,0.3-4.1,0.9c-1.1,0.6-2,1.4-2.7,2.3c-0.7,1-1.2,2.1-1.5,3.5c-0.3,1.4-0.5,2.8-0.5,4.3v12c0,1.6,0.1,3.1,0.4,4.5
				s0.8,2.5,1.5,3.5c0.7,1,1.6,1.7,2.7,2.3C223.2,1292.3,224.6,1292.6,226.2,1292.6z"/>
			<path class="st0" d="M283.4,1295.4h1.3V1251h9.2v49h-18.1l-5.7-44.4h-1.3v44.4h-9.2v-49h18.1L283.4,1295.4z"/>
			<path class="st0" d="M311.6,1251h9.2v40.2h22.3v8.8h-31.5V1251z"/>
			<path class="st0" d="M361.5,1251h32.8v8.8h-11.8v31.4h11.8v8.8h-32.8v-8.8h11.8v-31.4h-11.8V1251z"/>
			<path class="st0" d="M435.1,1295.4h1.3V1251h9.2v49h-18.1l-5.7-44.4h-1.3v44.4h-9.2v-49h18.1L435.1,1295.4z"/>
			<path class="st0" d="M463.3,1251h30.9v8.8h-21.7v11.2h20.9v8.8h-20.9v11.3H495v8.8h-31.8V1251z"/>
		</g>
	</g>
	<g>
		<g>
			<path class="st0" d="M802.4,128.6c0-4.5,1.1-8.1,3.4-10.6s5.4-3.8,9.5-3.8s7.2,1.3,9.5,3.8c2.3,2.5,3.4,6,3.4,10.6v7.8
				c0,4.7-1.1,8.2-3.4,10.6c-2.3,2.4-5.4,3.7-9.5,3.7s-7.2-1.2-9.5-3.7c-2.3-2.4-3.4-6-3.4-10.6V128.6z M815.3,144.7
				c1.2,0,2.2-0.2,3-0.6c0.8-0.4,1.5-0.9,2-1.6s0.9-1.5,1-2.5c0.2-1,0.3-2,0.3-3.2v-8.6c0-1.1-0.1-2.1-0.4-3.1
				c-0.2-1-0.6-1.8-1.1-2.5c-0.5-0.7-1.2-1.3-2-1.7c-0.8-0.4-1.8-0.6-2.9-0.6s-2.1,0.2-2.9,0.6c-0.8,0.4-1.5,1-2,1.7
				c-0.5,0.7-0.9,1.5-1.1,2.5c-0.2,1-0.4,2-0.4,3.1v8.6c0,1.2,0.1,2.2,0.3,3.2c0.2,1,0.6,1.8,1.1,2.5s1.1,1.2,1.9,1.6
				C813.1,144.5,814.1,144.7,815.3,144.7z"/>
			<path class="st0" d="M837.5,115h22.4v6.3h-15.8v8h15.5v6.3h-15.5V150h-6.6V115z"/>
			<path class="st0" d="M869.8,115h23.4v6.3h-8.4v22.4h8.4v6.3h-23.4v-6.3h8.4v-22.4h-8.4V115z"/>
			<path class="st0" d="M914.7,144.7c1.3,0,2.3-0.2,3.1-0.6c0.8-0.4,1.5-0.9,1.9-1.5c0.5-0.7,0.8-1.4,0.9-2.3
				c0.2-0.9,0.3-1.7,0.3-2.6v-0.9h6.6v0.9c0,4.2-1.1,7.4-3.3,9.6s-5.4,3.4-9.5,3.4c-4,0-7.2-1.2-9.5-3.7c-2.3-2.4-3.5-6-3.5-10.6
				v-7.8c0-2.2,0.3-4.2,0.9-6c0.6-1.8,1.5-3.3,2.6-4.5c1.1-1.2,2.5-2.2,4.1-2.8c1.6-0.6,3.4-1,5.4-1c2.1,0,3.9,0.3,5.5,0.9
				c1.6,0.6,2.9,1.5,4,2.6c1.1,1.1,1.9,2.5,2.5,4.1s0.8,3.4,0.8,5.4v0.9h-6.6v-0.9c0-0.8-0.1-1.7-0.3-2.5c-0.2-0.8-0.5-1.6-1-2.3
				c-0.5-0.7-1.1-1.2-1.9-1.6c-0.8-0.4-1.8-0.6-3-0.6c-1.1,0-2,0.2-2.9,0.6c-0.8,0.4-1.5,1-2,1.7c-0.5,0.7-0.9,1.5-1.2,2.5
				s-0.4,1.9-0.4,3v8.8c0,1.1,0.1,2.2,0.4,3.1c0.2,1,0.6,1.8,1.1,2.5s1.2,1.2,2,1.6C912.5,144.5,913.5,144.7,914.7,144.7z"/>
			<path class="st0" d="M936,115h23.4v6.3H951v22.4h8.4v6.3H936v-6.3h8.4v-22.4H936V115z"/>
			<path class="st0" d="M985.5,146.7h0.9V115h6.6v35h-12.9l-4.1-31.7h-0.9V150h-6.6v-35h12.9L985.5,146.7z"/>
			<path class="st0" d="M1019.8,142.5H1008l-1.7,7.5h-6.9l8.4-35h12.4l8.4,35h-6.9L1019.8,142.5z M1009.3,136.2h9l-4-17.9h-0.9
				L1009.3,136.2z"/>
		</g>
	</g>
	<g>
		<g>
			<path class="st0" d="M463,1682.3h15v17.7h-6v-3.9h-0.9c-0.4,1.3-1.2,2.4-2.3,3.3c-1.1,0.9-2.8,1.3-5.1,1.3
				c-1.6,0-3.1-0.3-4.5-0.9c-1.4-0.6-2.6-1.5-3.7-2.7c-1-1.2-1.8-2.6-2.4-4.4s-0.9-3.8-0.9-6.1v-8.2c0-2.3,0.3-4.3,1-6
				c0.7-1.8,1.6-3.2,2.7-4.4s2.5-2.1,4.1-2.7s3.4-0.9,5.3-0.9c2,0,3.8,0.3,5.4,1c1.6,0.6,2.9,1.5,4,2.7c1.1,1.1,1.9,2.5,2.5,4
				c0.6,1.5,0.9,3.2,0.9,5v0.6h-6.6v-0.6c0-2.1-0.5-3.7-1.6-4.8c-1.1-1.1-2.6-1.6-4.6-1.6c-1.9,0-3.4,0.6-4.6,1.9
				c-1.2,1.3-1.8,3.4-1.8,6.4v7.4c0,5.4,2.2,8.1,6.6,8.1c2,0,3.5-0.5,4.5-1.6c1-1,1.5-2.5,1.5-4.2H463V1682.3z"/>
			<path class="st0" d="M512.8,1700h-6.6v-10.5c0-0.8-0.2-1.5-0.6-2c-0.4-0.5-1.1-0.8-2.1-0.8h-7.6v13.2h-6.6v-35h13.4
				c1.8,0,3.4,0.3,4.8,0.8c1.4,0.5,2.5,1.2,3.4,2.1c0.9,0.9,1.6,1.9,2.1,3.1c0.5,1.2,0.7,2.4,0.7,3.8v1.2c0,1.4-0.4,2.8-1.1,4
				c-0.8,1.3-1.9,2.2-3.5,2.9v0.9c1.2,0.1,2.1,0.6,2.8,1.3c0.7,0.8,1,1.7,1,2.9V1700z M495.9,1680.5h6.3c1.6,0,2.8-0.4,3.7-1.1
				c0.8-0.8,1.3-1.8,1.3-3.2v-0.6c0-1.2-0.4-2.2-1.3-3c-0.8-0.8-2.1-1.3-3.7-1.3h-6.3V1680.5z"/>
			<path class="st0" d="M542.5,1692.5h-11.9l-1.7,7.5H522l8.4-35h12.4l8.4,35h-6.9L542.5,1692.5z M532,1686.2h9l-4-17.9h-0.9
				L532,1686.2z"/>
			<path class="st0" d="M561.2,1665h22.4v6.3h-15.8v8h15.5v6.3h-15.5v14.4h-6.6V1665z"/>
			<path class="st0" d="M613.7,1692.5h-11.9l-1.7,7.5h-6.9l8.4-35h12.4l8.3,35h-6.9L613.7,1692.5z M603.2,1686.2h9l-4-17.9h-0.9
				L603.2,1686.2z"/>
			<path class="st0" d="M630.7,1665h25.2v6.3h-9.3v28.7H640v-28.7h-9.3V1665z"/>
			<path class="st0" d="M666,1678.6c0-4.5,1.1-8.1,3.4-10.6s5.4-3.8,9.5-3.8s7.2,1.3,9.5,3.8c2.3,2.5,3.4,6,3.4,10.6v7.8
				c0,4.7-1.1,8.2-3.4,10.6c-2.3,2.4-5.4,3.7-9.5,3.7s-7.2-1.2-9.5-3.7c-2.3-2.4-3.4-6-3.4-10.6V1678.6z M678.9,1694.7
				c1.2,0,2.2-0.2,3-0.6c0.8-0.4,1.5-0.9,2-1.6s0.9-1.5,1-2.5c0.2-1,0.3-2,0.3-3.2v-8.6c0-1.1-0.1-2.1-0.4-3.1s-0.6-1.8-1.1-2.5
				c-0.5-0.7-1.2-1.3-2-1.7c-0.8-0.4-1.8-0.6-2.9-0.6s-2.1,0.2-2.9,0.6c-0.8,0.4-1.5,1-2,1.7c-0.5,0.7-0.9,1.5-1.1,2.5
				c-0.2,1-0.4,2-0.4,3.1v8.6c0,1.2,0.1,2.2,0.3,3.2c0.2,1,0.6,1.8,1.1,2.5s1.1,1.2,1.9,1.6C676.7,1694.5,677.7,1694.7,678.9,1694.7
				z"/>
			<path class="st0" d="M726.3,1700h-6.6v-10.5c0-0.8-0.2-1.5-0.6-2c-0.4-0.5-1.1-0.8-2.1-0.8h-7.6v13.2h-6.6v-35h13.4
				c1.8,0,3.4,0.3,4.8,0.8c1.4,0.5,2.5,1.2,3.4,2.1c0.9,0.9,1.6,1.9,2.1,3.1c0.5,1.2,0.7,2.4,0.7,3.8v1.2c0,1.4-0.4,2.8-1.2,4
				s-1.9,2.2-3.5,2.9v0.9c1.2,0.1,2.1,0.6,2.8,1.3c0.7,0.8,1,1.7,1,2.9V1700z M709.5,1680.5h6.3c1.6,0,2.8-0.4,3.7-1.1
				c0.8-0.8,1.3-1.8,1.3-3.2v-0.6c0-1.2-0.4-2.2-1.3-3c-0.8-0.8-2.1-1.3-3.7-1.3h-6.3V1680.5z"/>
			<path class="st0" d="M738.4,1665h23.4v6.3h-8.4v22.4h8.4v6.3h-23.4v-6.3h8.4v-22.4h-8.4V1665z"/>
			<path class="st0" d="M772.8,1678.6c0-4.5,1.1-8.1,3.4-10.6c2.3-2.5,5.4-3.8,9.5-3.8s7.2,1.3,9.5,3.8s3.4,6,3.4,10.6v7.8
				c0,4.7-1.1,8.2-3.4,10.6c-2.3,2.4-5.4,3.7-9.5,3.7s-7.2-1.2-9.5-3.7c-2.3-2.4-3.4-6-3.4-10.6V1678.6z M785.7,1694.7
				c1.2,0,2.2-0.2,3-0.6c0.8-0.4,1.5-0.9,2-1.6s0.8-1.5,1-2.5c0.2-1,0.3-2,0.3-3.2v-8.6c0-1.1-0.1-2.1-0.3-3.1
				c-0.2-1-0.6-1.8-1.1-2.5c-0.5-0.7-1.1-1.3-1.9-1.7c-0.8-0.4-1.8-0.6-2.9-0.6c-1.1,0-2.1,0.2-2.9,0.6c-0.8,0.4-1.4,1-1.9,1.7
				c-0.5,0.7-0.9,1.5-1.1,2.5s-0.3,2-0.3,3.1v8.6c0,1.2,0.1,2.2,0.3,3.2c0.2,1,0.5,1.8,1,2.5s1.2,1.2,2,1.6
				C783.5,1694.5,784.5,1694.7,785.7,1694.7z"/>
		</g>
	</g>
	<g>
		<g>
			<path class="st0" d="M233.8,1700h-11.5l-1.6-26.6v-4.8h-1.2v4.8l-1.6,26.6h-11.5l-1.2-35h6l0.8,26.6v4.5h1.2v-4.5l1.6-26.6h10.6
				l1.6,26.6v4.5h1.2v-4.5l0.8-26.6h6L233.8,1700z"/>
			<path class="st0" d="M269.4,1700h-11.5l-1.6-26.6v-4.8h-1.2v4.8l-1.6,26.6H242l-1.2-35h6l0.8,26.6v4.5h1.2v-4.5l1.6-26.6H261
				l1.6,26.6v4.5h1.2v-4.5l0.8-26.6h6L269.4,1700z"/>
			<path class="st0" d="M305,1700h-11.5l-1.6-26.6v-4.8h-1.2v4.8l-1.6,26.6h-11.5l-1.2-35h6l0.8,26.6v4.5h1.2v-4.5l1.6-26.6h10.6
				l1.6,26.6v4.5h1.2v-4.5l0.8-26.6h6L305,1700z"/>
			<path class="st0" d="M331.7,1696c0,0.7-0.1,1.3-0.4,1.9c-0.3,0.6-0.6,1.1-1,1.5c-0.4,0.4-0.9,0.8-1.5,1c-0.6,0.3-1.2,0.4-1.8,0.4
				c-0.7,0-1.3-0.1-1.8-0.4c-0.6-0.3-1.1-0.6-1.5-1c-0.4-0.4-0.8-0.9-1-1.5c-0.3-0.6-0.4-1.2-0.4-1.9c0-0.7,0.1-1.3,0.4-1.9
				c0.3-0.6,0.6-1.1,1-1.5c0.4-0.4,0.9-0.8,1.5-1c0.6-0.3,1.2-0.4,1.8-0.4c0.6,0,1.2,0.1,1.8,0.4c0.6,0.3,1.1,0.6,1.5,1
				c0.4,0.4,0.8,0.9,1,1.5C331.6,1694.7,331.7,1695.3,331.7,1696z"/>
		</g>
	</g>
	<g>
		<g>
			<path class="st0" d="M932.6,1696c0,0.7-0.1,1.3-0.4,1.9c-0.3,0.6-0.6,1.1-1,1.5c-0.4,0.4-0.9,0.8-1.5,1c-0.6,0.3-1.2,0.4-1.8,0.4
				c-0.7,0-1.3-0.1-1.8-0.4c-0.6-0.3-1.1-0.6-1.5-1c-0.4-0.4-0.8-0.9-1-1.5c-0.3-0.6-0.4-1.2-0.4-1.9c0-0.7,0.1-1.3,0.4-1.9
				c0.3-0.6,0.6-1.1,1-1.5c0.4-0.4,0.9-0.8,1.5-1c0.6-0.3,1.2-0.4,1.8-0.4c0.6,0,1.2,0.1,1.8,0.4c0.6,0.3,1.1,0.6,1.5,1
				c0.4,0.4,0.8,0.9,1,1.5C932.5,1694.7,932.6,1695.3,932.6,1696z"/>
			<path class="st0" d="M963.6,1694.7c1.3,0,2.3-0.2,3.1-0.6c0.8-0.4,1.5-0.9,1.9-1.5c0.5-0.7,0.8-1.4,0.9-2.3
				c0.2-0.8,0.3-1.7,0.3-2.6v-0.9h6.6v0.9c0,4.2-1.1,7.4-3.3,9.6s-5.4,3.4-9.5,3.4c-4,0-7.2-1.2-9.5-3.7c-2.3-2.4-3.5-6-3.5-10.6
				v-7.8c0-2.2,0.3-4.2,0.9-6c0.6-1.8,1.5-3.3,2.6-4.5c1.1-1.2,2.5-2.2,4.1-2.8c1.6-0.7,3.4-1,5.4-1c2.1,0,3.9,0.3,5.5,0.9
				c1.6,0.6,2.9,1.5,4,2.6c1.1,1.1,1.9,2.5,2.5,4.1c0.5,1.6,0.8,3.4,0.8,5.4v0.9h-6.6v-0.9c0-0.8-0.1-1.7-0.3-2.5
				c-0.2-0.8-0.5-1.6-1-2.3c-0.5-0.7-1.1-1.2-1.9-1.6c-0.8-0.4-1.8-0.6-3-0.6c-1.1,0-2,0.2-2.9,0.6c-0.8,0.4-1.5,1-2,1.7
				c-0.5,0.7-0.9,1.5-1.2,2.5s-0.4,1.9-0.4,3v8.8c0,1.1,0.1,2.2,0.4,3.1c0.2,1,0.6,1.8,1.1,2.5s1.2,1.2,2,1.6
				C961.4,1694.5,962.4,1694.7,963.6,1694.7z"/>
			<path class="st0" d="M986.2,1678.6c0-4.5,1.1-8.1,3.4-10.6s5.4-3.8,9.5-3.8s7.2,1.3,9.5,3.8c2.3,2.5,3.4,6,3.4,10.6v7.8
				c0,4.7-1.1,8.2-3.4,10.6c-2.3,2.4-5.4,3.7-9.5,3.7s-7.2-1.2-9.5-3.7c-2.3-2.4-3.4-6-3.4-10.6V1678.6z M999.1,1694.7
				c1.2,0,2.2-0.2,3-0.6c0.8-0.4,1.5-0.9,2-1.6s0.9-1.5,1-2.5c0.2-1,0.3-2,0.3-3.2v-8.6c0-1.1-0.1-2.1-0.4-3.1s-0.6-1.8-1.1-2.5
				c-0.5-0.7-1.2-1.3-2-1.7c-0.8-0.4-1.8-0.6-2.9-0.6s-2.1,0.2-2.9,0.6c-0.8,0.4-1.5,1-2,1.7c-0.5,0.7-0.9,1.5-1.1,2.5
				c-0.2,1-0.4,2-0.4,3.1v8.6c0,1.2,0.1,2.2,0.3,3.2c0.2,1,0.6,1.8,1.1,2.5s1.1,1.2,1.9,1.6C996.9,1694.5,997.9,1694.7,999.1,1694.7
				z"/>
			<path class="st0" d="M1020.5,1665h11.6l2,26.3v5.1h1.2v-5.1l2-26.3h11.6v35h-6v-23.4l0.6-8h-1.2l-2.6,31.4h-9.9l-2.7-31.4h-1.2
				l0.6,8v23.4h-6V1665z"/>
		</g>
	</g>
	<g>
		<g>
			<path class="st0" d="M810.9,858.3V846l29.4-19.9v-1.7l-29.4-19.9v-12.3h0.8l32.8,22.1v21.8l-32.8,22.1H810.9z M841.2,858.3V846
				l29.4-19.9v-1.7l-29.4-19.9v-12.3h0.8l32.8,22.1v21.8L842,858.3H841.2z"/>
		</g>
	</g>
	<g>
		<g>
			<path class="st0" d="M215,1418.4h65.2v10.1H215V1418.4z"/>
			<path class="st0" d="M316.1,1418.4h65.2v10.1h-65.2V1418.4z"/>
			<path class="st0" d="M417.2,1418.4h65.2v10.1h-65.2V1418.4z"/>
		</g>
	</g>
	<g>
		<g>
			<path class="st0" d="M242.8,165.7l3.6-17.1h-14.8l-3.6,17.1h-10.4l3.6-17.1h-14.4v-10.1h16.5l3.2-15.1h-14.4v-10.1h16.5l3.6-17.1
				h10.4l-3.6,17.1h14.8l3.6-17.1h10.4l-3.6,17.1h14.4v10.1h-16.5l-3.2,15.1h14.4v10.1h-16.5l-3.6,17.1H242.8z M251.8,123.4H237
				l-3.2,15.1h14.8L251.8,123.4z"/>
		</g>
	</g>
	<g>
		<g>
			<path class="st0" d="M956.1,801h9.5l9.6,44.4h1.3l9.6-44.4h9.5l-11.1,49h-17.4L956.1,801z"/>
			<path class="st0" d="M1010,801h32.8v8.8H1031v31.4h11.8v8.8H1010v-8.8h11.8v-31.4H1010V801z"/>
			<path class="st0" d="M1061.3,801h30.9v8.8h-21.7V821h20.9v8.8h-20.9v11.3h22.5v8.8h-31.8V801z"/>
			<path class="st0" d="M1111.1,801h32.8v8.8h-11.8v31.4h11.8v8.8h-32.8v-8.8h11.8v-31.4h-11.8V801z"/>
			<path class="st0" d="M1194.6,850h-9.2v-14.7c0-1.1-0.3-2-0.9-2.7c-0.6-0.7-1.6-1-2.9-1H1171V850h-9.2v-49h18.8
				c2.5,0,4.7,0.4,6.7,1c1.9,0.7,3.5,1.7,4.8,2.9c1.3,1.2,2.3,2.7,2.9,4.3c0.7,1.6,1,3.4,1,5.3v1.7c0,2-0.5,3.9-1.6,5.6
				c-1.1,1.8-2.7,3.1-5,4v1.3c1.6,0.2,2.9,0.8,3.9,1.9c1,1.1,1.4,2.4,1.4,4.1V850z M1171,822.7h8.8c2.2,0,3.9-0.5,5.1-1.6
				c1.2-1,1.8-2.5,1.8-4.4v-0.8c0-1.6-0.6-3-1.8-4.2c-1.2-1.2-2.9-1.8-5.1-1.8h-8.8V822.7z"/>
			<path class="st0" d="M1236.9,839.5h-16.7l-2.4,10.5h-9.7l11.7-49h17.4l11.7,49h-9.7L1236.9,839.5z M1222.2,830.7h12.7l-5.7-25.1
				h-1.3L1222.2,830.7z"/>
		</g>
	</g>
	<g>
		<g>
			<path class="st0" d="M811.9,1085v-10.4l8.7-2.4v-0.9h-17.4v-6.3H826v11l-9.3,2.7v0.9h1.2c1.2,0,2.5,0.2,3.7,0.6
				c1.2,0.4,2.3,1,3.2,1.8c0.9,0.8,1.7,1.8,2.2,3c0.6,1.2,0.8,2.6,0.8,4.2v0.6c0,1.6-0.3,3-0.8,4.3c-0.5,1.3-1.3,2.5-2.3,3.5
				c-1,1-2.3,1.8-3.8,2.3s-3.2,0.9-5.2,0.9c-2,0-3.8-0.3-5.3-1c-1.6-0.6-3-1.5-4.1-2.6c-1.1-1.1-2-2.4-2.6-3.8
				c-0.6-1.4-0.9-3-0.9-4.5v-2.1h6.6v1.8c0,1.6,0.5,3,1.5,4.1c1,1.2,2.6,1.8,4.7,1.8c1.8,0,3.1-0.4,4.1-1.3c1-0.9,1.4-2.1,1.4-3.5
				c0-1.6-0.5-2.7-1.5-3.4c-1-0.7-2.3-1.1-3.9-1.1H811.9z"/>
			<path class="st0" d="M846.3,1093.7v-25.4h-0.9l-3.3,12h-6.3v-0.6l4.2-14.7h12.9v28.7h8.7v6.3h-25.2v-6.3H846.3z"/>
			<path class="st0" d="M873.7,1083.4h15.6v5.7h-15.6V1083.4z"/>
			<path class="st0" d="M901.7,1078.6c0-4.5,1.1-8,3.4-10.5c2.3-2.5,5.4-3.8,9.5-3.8s7.2,1.3,9.5,3.8s3.4,6,3.4,10.5v7.8
				c0,4.7-1.1,8.2-3.4,10.7c-2.3,2.4-5.4,3.7-9.5,3.7s-7.2-1.2-9.5-3.7c-2.3-2.4-3.4-6-3.4-10.7V1078.6z M914.6,1094.7
				c1.2,0,2.2-0.2,3-0.6c0.8-0.4,1.5-0.9,2-1.6s0.8-1.5,1-2.5s0.3-2,0.3-3.2v-8.6c0-1.1-0.1-2.1-0.3-3.1c-0.2-1-0.6-1.8-1.1-2.5
				s-1.1-1.3-1.9-1.7c-0.8-0.4-1.8-0.6-2.9-0.6c-1.1,0-2.1,0.2-2.9,0.6c-0.8,0.4-1.4,1-1.9,1.7s-0.9,1.5-1.1,2.5
				c-0.2,1-0.3,2-0.3,3.1v8.6c0,1.2,0.1,2.2,0.3,3.2s0.5,1.8,1,2.5s1.2,1.2,2,1.6C912.4,1094.5,913.4,1094.7,914.6,1094.7z
				 M910.4,1082.5c0-1.1,0.4-2.1,1.3-3c0.8-0.8,1.8-1.3,3-1.3c1.1,0,2.1,0.4,3,1.3c0.8,0.8,1.3,1.8,1.3,3c0,1.1-0.4,2.1-1.3,3
				c-0.8,0.8-1.8,1.3-3,1.3c-1.1,0-2.1-0.4-3-1.3S910.4,1083.6,910.4,1082.5z"/>
			<path class="st0" d="M947.7,1100.7c-2,0-3.7-0.2-5.3-0.7c-1.6-0.5-2.9-1.2-4-2c-1.1-0.9-2-1.9-2.5-3.1c-0.6-1.2-0.9-2.5-0.9-4
				v-0.3c0-1.2,0.2-2.3,0.5-3.3c0.3-0.9,0.8-1.7,1.4-2.4c0.6-0.7,1.2-1.2,2-1.7c0.7-0.4,1.5-0.8,2.3-1v-0.9c-0.7-0.3-1.4-0.6-2-1
				c-0.7-0.4-1.2-1-1.7-1.6c-0.5-0.6-0.9-1.3-1.2-2.2c-0.3-0.9-0.4-1.8-0.4-2.9v-0.3c0-1.4,0.3-2.7,1-3.8c0.7-1.1,1.5-2.1,2.7-2.9
				c1.1-0.8,2.4-1.4,3.8-1.8c1.4-0.4,2.9-0.6,4.4-0.6s3,0.2,4.4,0.6c1.4,0.4,2.7,1,3.8,1.8c1.1,0.8,2,1.7,2.7,2.9
				c0.7,1.1,1,2.4,1,3.8v0.3c0,1.1-0.1,2-0.4,2.9c-0.3,0.8-0.7,1.6-1.2,2.2c-0.5,0.6-1,1.1-1.7,1.6c-0.6,0.4-1.3,0.8-2,1v0.9
				c0.8,0.2,1.6,0.6,2.3,1c0.7,0.4,1.4,1,2,1.7s1,1.5,1.4,2.4c0.3,0.9,0.5,2,0.5,3.3v0.3c0,1.5-0.3,2.8-0.9,4
				c-0.6,1.2-1.5,2.2-2.5,3.1c-1.1,0.9-2.4,1.5-4,2C951.4,1100.5,949.6,1100.7,947.7,1100.7z M947.7,1094.4c2,0,3.5-0.4,4.6-1.3
				c1.1-0.9,1.6-2,1.6-3.4s-0.5-2.5-1.6-3.4c-1.1-0.9-2.6-1.3-4.6-1.3s-3.5,0.4-4.5,1.3c-1.1,0.9-1.6,2-1.6,3.4s0.5,2.5,1.6,3.4
				C944.2,1094,945.7,1094.4,947.7,1094.4z M947.7,1070.6c-1.5,0-2.8,0.4-3.8,1.2s-1.5,1.7-1.5,2.9c0,1.2,0.5,2.1,1.5,2.9
				c1,0.8,2.3,1.2,3.8,1.2s2.8-0.4,3.8-1.2c1-0.8,1.5-1.7,1.5-2.9c0-1.2-0.5-2.1-1.5-2.9S949.2,1070.6,947.7,1070.6z"/>
		</g>
	</g>
	<g>
		<g>
			<path class="st0" d="M802.4,1178.6c0-4.5,1.1-8,3.4-10.5c2.3-2.5,5.4-3.8,9.5-3.8s7.2,1.3,9.5,3.8s3.4,6,3.4,10.5v7.8
				c0,4.7-1.1,8.2-3.4,10.7c-2.3,2.4-5.4,3.7-9.5,3.7s-7.2-1.2-9.5-3.7c-2.3-2.4-3.4-6-3.4-10.7V1178.6z M815.3,1194.7
				c1.2,0,2.2-0.2,3-0.6c0.8-0.4,1.5-0.9,2-1.6s0.8-1.5,1-2.5s0.3-2,0.3-3.2v-8.6c0-1.1-0.1-2.1-0.3-3.1c-0.2-1-0.6-1.8-1.1-2.5
				s-1.1-1.3-1.9-1.7c-0.8-0.4-1.8-0.6-2.9-0.6c-1.1,0-2.1,0.2-2.9,0.6c-0.8,0.4-1.4,1-1.9,1.7s-0.9,1.5-1.1,2.5
				c-0.2,1-0.3,2-0.3,3.1v8.6c0,1.2,0.1,2.2,0.3,3.2s0.5,1.8,1,2.5s1.2,1.2,2,1.6C813.1,1194.5,814.1,1194.7,815.3,1194.7z
				 M811.1,1182.5c0-1.1,0.4-2.1,1.3-3c0.8-0.8,1.8-1.3,3-1.3c1.1,0,2.1,0.4,3,1.3c0.8,0.8,1.3,1.8,1.3,3c0,1.1-0.4,2.1-1.3,3
				c-0.8,0.8-1.8,1.3-3,1.3c-1.1,0-2.1-0.4-3-1.3S811.1,1183.6,811.1,1182.5z"/>
			<path class="st0" d="M861,1193.7v6.3h-24.6v-6.9c0-1.8,0.3-3.4,0.8-4.7c0.5-1.3,1.3-2.4,2.3-3.3c1-0.9,2.2-1.6,3.7-2.2
				c1.4-0.6,3-1.1,4.8-1.5c1.3-0.3,2.4-0.6,3.3-1c0.8-0.4,1.5-0.8,2-1.3s0.8-1,1-1.6c0.2-0.6,0.3-1.2,0.3-2c0-1.4-0.5-2.6-1.5-3.5
				c-1-0.9-2.4-1.4-4.2-1.4c-1.9,0-3.4,0.6-4.5,1.7c-1.1,1.1-1.7,2.7-1.7,4.8v2.2h-6.6v-2.8c0-1.6,0.3-3.2,0.9-4.7
				c0.6-1.5,1.4-2.8,2.5-3.9c1.1-1.1,2.4-2,4-2.7c1.6-0.6,3.3-1,5.3-1c2.1,0,3.9,0.3,5.5,0.9c1.6,0.6,2.9,1.4,3.9,2.4
				s1.8,2.2,2.3,3.5c0.5,1.3,0.8,2.7,0.8,4.1v0.6c0,2.9-0.8,5.4-2.5,7.3c-1.6,1.9-4.3,3.3-8.1,4.2c-1.6,0.4-2.9,0.7-3.9,1.1
				c-1,0.4-1.8,0.8-2.4,1.3c-0.6,0.5-1,1-1.2,1.5s-0.3,1.2-0.3,1.9v0.6H861z"/>
			<path class="st0" d="M873.7,1183.4h15.6v5.7h-15.6V1183.4z"/>
			<path class="st0" d="M901.7,1178.6c0-4.5,1.1-8,3.4-10.5c2.3-2.5,5.4-3.8,9.5-3.8s7.2,1.3,9.5,3.8s3.4,6,3.4,10.5v7.8
				c0,4.7-1.1,8.2-3.4,10.7c-2.3,2.4-5.4,3.7-9.5,3.7s-7.2-1.2-9.5-3.7c-2.3-2.4-3.4-6-3.4-10.7V1178.6z M914.6,1194.7
				c1.2,0,2.2-0.2,3-0.6c0.8-0.4,1.5-0.9,2-1.6s0.8-1.5,1-2.5s0.3-2,0.3-3.2v-8.6c0-1.1-0.1-2.1-0.3-3.1c-0.2-1-0.6-1.8-1.1-2.5
				s-1.1-1.3-1.9-1.7c-0.8-0.4-1.8-0.6-2.9-0.6c-1.1,0-2.1,0.2-2.9,0.6c-0.8,0.4-1.4,1-1.9,1.7s-0.9,1.5-1.1,2.5
				c-0.2,1-0.3,2-0.3,3.1v8.6c0,1.2,0.1,2.2,0.3,3.2s0.5,1.8,1,2.5s1.2,1.2,2,1.6C912.4,1194.5,913.4,1194.7,914.6,1194.7z
				 M910.4,1182.5c0-1.1,0.4-2.1,1.3-3c0.8-0.8,1.8-1.3,3-1.3c1.1,0,2.1,0.4,3,1.3c0.8,0.8,1.3,1.8,1.3,3c0,1.1-0.4,2.1-1.3,3
				c-0.8,0.8-1.8,1.3-3,1.3c-1.1,0-2.1-0.4-3-1.3S910.4,1183.6,910.4,1182.5z"/>
			<path class="st0" d="M942.5,1190.1c0,1.2,0.4,2.2,1.3,3c0.8,0.8,2.2,1.3,4,1.3c1.8,0,3.2-0.5,4.3-1.6c1-1.1,1.6-2.4,1.6-4.1v-4.5
				h-0.9c-0.5,1.2-1.2,2.1-2.3,2.8c-1.1,0.7-2.6,1.1-4.5,1.1c-1.5,0-2.9-0.3-4.2-0.8c-1.3-0.5-2.4-1.3-3.4-2.3s-1.7-2.2-2.2-3.6
				c-0.5-1.4-0.8-3-0.8-4.6v-0.6c0-1.7,0.3-3.2,0.9-4.7c0.6-1.5,1.4-2.7,2.5-3.8c1.1-1,2.4-1.9,4-2.5c1.5-0.6,3.3-0.9,5.2-0.9
				c1.7,0,3.4,0.3,4.9,0.8c1.5,0.6,2.8,1.4,3.9,2.4c1.1,1,2,2.2,2.6,3.7c0.6,1.4,1,3,1,4.7v12.8c0,1.9-0.3,3.6-1,5.1
				s-1.5,2.8-2.6,3.8s-2.4,1.8-3.9,2.4c-1.5,0.5-3.1,0.8-4.8,0.8c-1.7,0-3.3-0.2-4.8-0.7c-1.5-0.5-2.7-1.2-3.8-2.1s-1.9-2-2.5-3.3
				c-0.6-1.3-0.9-2.8-0.9-4.5H942.5z M947.7,1170.6c-1.7,0-3.1,0.5-4.2,1.5c-1.1,1-1.7,2.4-1.7,4.1c0,1.7,0.5,3.1,1.7,4.1
				c1.1,1,2.5,1.5,4.2,1.5c1.7,0,3.1-0.5,4.2-1.5c1.1-1,1.7-2.4,1.7-4.1c0-1.7-0.5-3.1-1.7-4.1
				C950.8,1171.1,949.4,1170.6,947.7,1170.6z"/>
		</g>
	</g>
	<g>
		<g>
			<path class="st0" d="M802.4,1278.6c0-4.5,1.1-8,3.4-10.5c2.3-2.5,5.4-3.8,9.5-3.8s7.2,1.3,9.5,3.8s3.4,6,3.4,10.5v7.8
				c0,4.7-1.1,8.2-3.4,10.7c-2.3,2.4-5.4,3.7-9.5,3.7s-7.2-1.2-9.5-3.7c-2.3-2.4-3.4-6-3.4-10.7V1278.6z M815.3,1294.7
				c1.2,0,2.2-0.2,3-0.6c0.8-0.4,1.5-0.9,2-1.6s0.8-1.5,1-2.5s0.3-2,0.3-3.2v-8.6c0-1.1-0.1-2.1-0.3-3.1c-0.2-1-0.6-1.8-1.1-2.5
				s-1.1-1.3-1.9-1.7c-0.8-0.4-1.8-0.6-2.9-0.6c-1.1,0-2.1,0.2-2.9,0.6c-0.8,0.4-1.4,1-1.9,1.7s-0.9,1.5-1.1,2.5
				c-0.2,1-0.3,2-0.3,3.1v8.6c0,1.2,0.1,2.2,0.3,3.2s0.5,1.8,1,2.5s1.2,1.2,2,1.6C813.1,1294.5,814.1,1294.7,815.3,1294.7z
				 M811.1,1282.5c0-1.1,0.4-2.1,1.3-3c0.8-0.8,1.8-1.3,3-1.3c1.1,0,2.1,0.4,3,1.3c0.8,0.8,1.3,1.8,1.3,3c0,1.1-0.4,2.1-1.3,3
				c-0.8,0.8-1.8,1.3-3,1.3c-1.1,0-2.1-0.4-3-1.3S811.1,1283.6,811.1,1282.5z"/>
			<path class="st0" d="M844.7,1265h12.5v22.1h5.1v6.3h-5.1v6.6h-6.6v-6.6H835v-9.1L844.7,1265z M840.7,1286.2v0.9h9.9v-18.8h-0.9
				L840.7,1286.2z"/>
			<path class="st0" d="M873.7,1283.4h15.6v5.7h-15.6V1283.4z"/>
			<path class="st0" d="M901.7,1278.6c0-4.5,1.1-8,3.4-10.5c2.3-2.5,5.4-3.8,9.5-3.8s7.2,1.3,9.5,3.8s3.4,6,3.4,10.5v7.8
				c0,4.7-1.1,8.2-3.4,10.7c-2.3,2.4-5.4,3.7-9.5,3.7s-7.2-1.2-9.5-3.7c-2.3-2.4-3.4-6-3.4-10.7V1278.6z M914.6,1294.7
				c1.2,0,2.2-0.2,3-0.6c0.8-0.4,1.5-0.9,2-1.6s0.8-1.5,1-2.5s0.3-2,0.3-3.2v-8.6c0-1.1-0.1-2.1-0.3-3.1c-0.2-1-0.6-1.8-1.1-2.5
				s-1.1-1.3-1.9-1.7c-0.8-0.4-1.8-0.6-2.9-0.6c-1.1,0-2.1,0.2-2.9,0.6c-0.8,0.4-1.4,1-1.9,1.7s-0.9,1.5-1.1,2.5
				c-0.2,1-0.3,2-0.3,3.1v8.6c0,1.2,0.1,2.2,0.3,3.2s0.5,1.8,1,2.5s1.2,1.2,2,1.6C912.4,1294.5,913.4,1294.7,914.6,1294.7z
				 M910.4,1282.5c0-1.1,0.4-2.1,1.3-3c0.8-0.8,1.8-1.3,3-1.3c1.1,0,2.1,0.4,3,1.3c0.8,0.8,1.3,1.8,1.3,3c0,1.1-0.4,2.1-1.3,3
				c-0.8,0.8-1.8,1.3-3,1.3c-1.1,0-2.1-0.4-3-1.3S910.4,1283.6,910.4,1282.5z"/>
			<path class="st0" d="M942.5,1290.1c0,1.2,0.4,2.2,1.3,3c0.8,0.8,2.2,1.3,4,1.3c1.8,0,3.2-0.5,4.3-1.6c1-1.1,1.6-2.4,1.6-4.1v-4.5
				h-0.9c-0.5,1.2-1.2,2.1-2.3,2.8c-1.1,0.7-2.6,1.1-4.5,1.1c-1.5,0-2.9-0.3-4.2-0.8c-1.3-0.5-2.4-1.3-3.4-2.3s-1.7-2.2-2.2-3.6
				c-0.5-1.4-0.8-3-0.8-4.6v-0.6c0-1.7,0.3-3.2,0.9-4.7c0.6-1.5,1.4-2.7,2.5-3.8c1.1-1,2.4-1.9,4-2.5c1.5-0.6,3.3-0.9,5.2-0.9
				c1.7,0,3.4,0.3,4.9,0.8c1.5,0.6,2.8,1.4,3.9,2.4c1.1,1,2,2.2,2.6,3.7c0.6,1.4,1,3,1,4.7v12.8c0,1.9-0.3,3.6-1,5.1
				s-1.5,2.8-2.6,3.8s-2.4,1.8-3.9,2.4c-1.5,0.5-3.1,0.8-4.8,0.8c-1.7,0-3.3-0.2-4.8-0.7c-1.5-0.5-2.7-1.2-3.8-2.1s-1.9-2-2.5-3.3
				c-0.6-1.3-0.9-2.8-0.9-4.5H942.5z M947.7,1270.6c-1.7,0-3.1,0.5-4.2,1.5c-1.1,1-1.7,2.4-1.7,4.1c0,1.7,0.5,3.1,1.7,4.1
				c1.1,1,2.5,1.5,4.2,1.5c1.7,0,3.1-0.5,4.2-1.5c1.1-1,1.7-2.4,1.7-4.1c0-1.7-0.5-3.1-1.7-4.1
				C950.8,1271.1,949.4,1270.6,947.7,1270.6z"/>
		</g>
	</g>
	<g>
		<g>
			<path class="st0" d="M813.2,1393.7v-25.4h-0.9l-3.3,12h-6.3v-0.6l4.2-14.7h12.9v28.7h8.7v6.3h-25.2v-6.3H813.2z"/>
			<path class="st0" d="M846.3,1393.7v-25.4h-0.9l-3.3,12h-6.3v-0.6l4.2-14.7h12.9v28.7h8.7v6.3h-25.2v-6.3H846.3z"/>
			<path class="st0" d="M873.7,1383.4h15.6v5.7h-15.6V1383.4z"/>
			<path class="st0" d="M901.7,1378.6c0-4.5,1.1-8,3.4-10.5c2.3-2.5,5.4-3.8,9.5-3.8s7.2,1.3,9.5,3.8s3.4,6,3.4,10.5v7.8
				c0,4.7-1.1,8.2-3.4,10.7c-2.3,2.4-5.4,3.7-9.5,3.7s-7.2-1.2-9.5-3.7c-2.3-2.4-3.4-6-3.4-10.7V1378.6z M914.6,1394.7
				c1.2,0,2.2-0.2,3-0.6c0.8-0.4,1.5-0.9,2-1.6s0.8-1.5,1-2.5s0.3-2,0.3-3.2v-8.6c0-1.1-0.1-2.1-0.3-3.1c-0.2-1-0.6-1.8-1.1-2.5
				s-1.1-1.3-1.9-1.7c-0.8-0.4-1.8-0.6-2.9-0.6c-1.1,0-2.1,0.2-2.9,0.6c-0.8,0.4-1.4,1-1.9,1.7s-0.9,1.5-1.1,2.5
				c-0.2,1-0.3,2-0.3,3.1v8.6c0,1.2,0.1,2.2,0.3,3.2s0.5,1.8,1,2.5s1.2,1.2,2,1.6C912.4,1394.5,913.4,1394.7,914.6,1394.7z
				 M910.4,1382.5c0-1.1,0.4-2.1,1.3-3c0.8-0.8,1.8-1.3,3-1.3c1.1,0,2.1,0.4,3,1.3c0.8,0.8,1.3,1.8,1.3,3c0,1.1-0.4,2.1-1.3,3
				c-0.8,0.8-1.8,1.3-3,1.3c-1.1,0-2.1-0.4-3-1.3S910.4,1383.6,910.4,1382.5z"/>
			<path class="st0" d="M942.5,1390.1c0,1.2,0.4,2.2,1.3,3c0.8,0.8,2.2,1.3,4,1.3c1.8,0,3.2-0.5,4.3-1.6c1-1.1,1.6-2.4,1.6-4.1v-4.5
				h-0.9c-0.5,1.2-1.2,2.1-2.3,2.8c-1.1,0.7-2.6,1.1-4.5,1.1c-1.5,0-2.9-0.3-4.2-0.8c-1.3-0.5-2.4-1.3-3.4-2.3s-1.7-2.2-2.2-3.6
				c-0.5-1.4-0.8-3-0.8-4.6v-0.6c0-1.7,0.3-3.2,0.9-4.7c0.6-1.5,1.4-2.7,2.5-3.8c1.1-1,2.4-1.9,4-2.5c1.5-0.6,3.3-0.9,5.2-0.9
				c1.7,0,3.4,0.3,4.9,0.8c1.5,0.6,2.8,1.4,3.9,2.4c1.1,1,2,2.2,2.6,3.7c0.6,1.4,1,3,1,4.7v12.8c0,1.9-0.3,3.6-1,5.1
				s-1.5,2.8-2.6,3.8s-2.4,1.8-3.9,2.4c-1.5,0.5-3.1,0.8-4.8,0.8c-1.7,0-3.3-0.2-4.8-0.7c-1.5-0.5-2.7-1.2-3.8-2.1s-1.9-2-2.5-3.3
				c-0.6-1.3-0.9-2.8-0.9-4.5H942.5z M947.7,1370.6c-1.7,0-3.1,0.5-4.2,1.5c-1.1,1-1.7,2.4-1.7,4.1c0,1.7,0.5,3.1,1.7,4.1
				c1.1,1,2.5,1.5,4.2,1.5c1.7,0,3.1-0.5,4.2-1.5c1.1-1,1.7-2.4,1.7-4.1c0-1.7-0.5-3.1-1.7-4.1
				C950.8,1371.1,949.4,1370.6,947.7,1370.6z"/>
		</g>
	</g>
	<g>
		<g>
			<path class="st0" d="M1197.4,542.2c0-2.7,1-5,2.9-6.9c1.9-1.9,4.2-2.9,6.9-2.9c2.7,0,5,1,6.9,2.9c1.9,1.9,2.9,4.2,2.9,6.9v13.7
				c0,3.2-1,5.8-3,7.8c-2,2.1-4.6,3.1-7.8,3.1h-7.1v-7.6h6.6c2.5,0,3.8-1.4,3.8-4.2v-3.5c-0.7,0.3-1.5,0.4-2.4,0.4
				c-2.6,0-4.9-1-6.8-2.9C1198.3,547.2,1197.4,544.9,1197.4,542.2z"/>
		</g>
	</g>
	<g>
		<g>
			<path class="st0" d="M1177.9,115.9h58.5V126h-58.5V115.9z M1177.9,136h58.5v10.1h-58.5V136z"/>
		</g>
	</g>
	<g>
		<path class="st0" d="M474.8,1057.6c3.2,0.7,5.6,2,7.3,3.9c1.7,2,2.6,4.3,2.6,7v1h-8v-1c0-0.6-0.2-1.1-0.5-1.6
			c-0.3-0.5-0.8-1-1.5-1.4v6.3c7.2,1,10.8,4.4,10.8,10.3v0.4c0,3.1-0.9,5.7-2.8,7.6c-1.9,2-4.5,3.2-7.9,3.6v4.3h-6.7v-4.5
			c-1.9-0.3-3.5-0.9-4.9-1.6c-1.4-0.8-2.5-1.7-3.3-2.8c-0.9-1.1-1.5-2.3-1.9-3.6s-0.6-2.7-0.6-4.1v-1.4h8v1c0,1.1,0.2,2,0.6,2.8
			c0.4,0.8,1.1,1.4,2.2,1.9v-7.6c-3.2-0.6-5.8-1.6-7.6-3.1c-1.8-1.5-2.8-3.8-2.8-6.7v-0.4c0-1.6,0.3-3,0.8-4.2
			c0.6-1.2,1.3-2.2,2.2-3.1c0.9-0.9,2-1.6,3.3-2.1c1.3-0.5,2.6-0.9,4-1.1v-4.4h6.7V1057.6z M465.7,1067.8c0,0.7,0.1,1.2,0.4,1.6
			c0.3,0.4,0.9,0.9,2,1.2v-5.5c-0.8,0.3-1.4,0.7-1.8,1.2C465.9,1066.8,465.7,1067.3,465.7,1067.8z M477.6,1082.6
			c0-0.7-0.2-1.3-0.5-1.9c-0.3-0.6-1.1-1.1-2.3-1.4v6.6c1.1-0.3,1.8-0.8,2.2-1.4C477.4,1083.9,477.6,1083.3,477.6,1082.6z"/>
		<path class="st0" d="M539.5,1091.2v8.8h-34.4v-9.7c0-2.6,0.4-4.8,1.2-6.6c0.8-1.8,1.9-3.4,3.3-4.6c1.4-1.3,3.1-2.3,5.1-3.1
			c2-0.8,4.3-1.5,6.8-2.1c1.9-0.4,3.4-0.9,4.6-1.4c1.2-0.5,2.1-1.1,2.8-1.8c0.7-0.7,1.2-1.4,1.4-2.2c0.3-0.8,0.4-1.7,0.4-2.8
			c0-2-0.7-3.6-2.1-4.9c-1.4-1.3-3.4-2-5.9-2c-2.7,0-4.8,0.8-6.4,2.4c-1.6,1.6-2.4,3.8-2.4,6.7v3.1h-9.2v-3.9c0-2.3,0.4-4.5,1.2-6.5
			c0.8-2.1,2-3.9,3.5-5.5c1.5-1.6,3.4-2.8,5.6-3.7c2.2-0.9,4.7-1.4,7.4-1.4c2.9,0,5.5,0.4,7.7,1.3c2.2,0.9,4,2,5.5,3.4
			s2.6,3,3.3,4.9c0.7,1.8,1.1,3.7,1.1,5.7v0.8c0,4.1-1.2,7.5-3.5,10.2c-2.3,2.7-6.1,4.7-11.3,5.9c-2.2,0.5-4,1-5.4,1.6
			c-1.4,0.5-2.5,1.1-3.3,1.8c-0.8,0.7-1.3,1.4-1.6,2.1c-0.3,0.8-0.5,1.6-0.5,2.6v0.8H539.5z"/>
		<path class="st0" d="M555.7,1078.2V1051h32.8v8.8h-23.5v13.3h1.3c0.7-1.8,1.9-3.4,3.7-4.7c1.8-1.3,4.2-2,7.2-2
			c2.3,0,4.3,0.4,6.2,1.2c1.8,0.8,3.4,1.9,4.6,3.3c1.3,1.4,2.2,3.1,2.9,5s1,4.1,1,6.4v0.4c0,2.5-0.4,4.8-1.2,7s-2,4.1-3.6,5.8
			c-1.6,1.7-3.5,3-5.8,4c-2.3,1-4.9,1.5-7.9,1.5s-5.6-0.4-7.9-1.2c-2.3-0.8-4.2-2-5.8-3.4c-1.6-1.5-2.8-3.2-3.6-5.3
			c-0.8-2-1.2-4.2-1.2-6.6v-1.7h9.2v0.8c0,2.5,0.8,4.5,2.3,6.1c1.5,1.6,3.7,2.4,6.7,2.4c2.9,0,5.3-0.8,7-2.4
			c1.7-1.6,2.6-3.8,2.6-6.6c0-2.7-0.6-4.7-1.9-6c-1.3-1.3-2.9-2-5-2c-1.4,0-2.4,0.3-3.3,0.9c-0.8,0.6-1.4,1.3-1.6,2.1H555.7z"/>
		<path class="st0" d="M605,1070c0-6.3,1.6-11.3,4.8-14.8c3.2-3.5,7.6-5.3,13.3-5.3s10.1,1.8,13.3,5.3s4.8,8.4,4.8,14.8v10.9
			c0,6.5-1.6,11.5-4.8,14.9c-3.2,3.4-7.6,5.1-13.3,5.1s-10.1-1.7-13.3-5.1c-3.2-3.4-4.8-8.4-4.8-14.9V1070z M623,1092.6
			c1.7,0,3.1-0.3,4.2-0.8c1.1-0.5,2-1.3,2.7-2.3c0.7-1,1.2-2.1,1.5-3.5c0.3-1.4,0.4-2.8,0.4-4.5v-12c0-1.5-0.2-3-0.5-4.3
			c-0.3-1.4-0.8-2.5-1.5-3.5c-0.7-1-1.6-1.8-2.7-2.3c-1.1-0.6-2.5-0.9-4.1-0.9c-1.6,0-2.9,0.3-4.1,0.9c-1.1,0.6-2,1.4-2.7,2.3
			c-0.7,1-1.2,2.1-1.5,3.5c-0.3,1.4-0.5,2.8-0.5,4.3v12c0,1.6,0.1,3.1,0.4,4.5c0.3,1.4,0.8,2.5,1.5,3.5s1.6,1.7,2.7,2.3
			C620,1092.3,621.4,1092.6,623,1092.6z M617.2,1075.5c0-1.6,0.6-3,1.8-4.1c1.2-1.2,2.5-1.8,4.1-1.8c1.6,0,3,0.6,4.1,1.8
			c1.2,1.2,1.8,2.5,1.8,4.1c0,1.6-0.6,3-1.8,4.1c-1.2,1.2-2.5,1.8-4.1,1.8c-1.6,0-3-0.6-4.1-1.8
			C617.7,1078.5,617.2,1077.1,617.2,1075.5z"/>
	</g>
	<g>
		<g>
			<path class="st0" d="M1124.6,1091.2v-35.6h-1.3l-4.6,16.8h-8.8v-0.8l5.9-20.6h18.1v40.2h12.2v8.8h-35.3v-8.8H1124.6z"/>
			<path class="st0" d="M1170.7,1086.1c0,1.6,0.6,3,1.8,4.2c1.2,1.2,3,1.8,5.6,1.8s4.5-0.7,6-2.2c1.5-1.5,2.2-3.4,2.2-5.8v-6.3h-1.3
				c-0.7,1.6-1.7,3-3.2,4c-1.5,1-3.6,1.5-6.4,1.5c-2.1,0-4-0.4-5.8-1.2c-1.8-0.8-3.4-1.9-4.7-3.3c-1.3-1.4-2.4-3.1-3.1-5
				c-0.7-2-1.1-4.1-1.1-6.5v-0.8c0-2.3,0.4-4.5,1.3-6.5s2-3.8,3.5-5.3c1.5-1.5,3.4-2.6,5.5-3.5s4.6-1.3,7.2-1.3
				c2.4,0,4.7,0.4,6.8,1.2c2.1,0.8,4,1.9,5.5,3.3c1.5,1.4,2.8,3.1,3.6,5.1c0.9,2,1.3,4.2,1.3,6.5v17.8c0,2.7-0.4,5-1.3,7.1
				c-0.9,2.1-2.1,3.9-3.6,5.3c-1.5,1.4-3.3,2.6-5.4,3.3c-2.1,0.8-4.3,1.2-6.8,1.2c-2.4,0-4.6-0.3-6.7-1c-2.1-0.7-3.8-1.7-5.4-2.9
				c-1.5-1.3-2.7-2.8-3.6-4.7c-0.9-1.8-1.3-3.9-1.3-6.2H1170.7z M1178,1058.8c-2.4,0-4.3,0.7-5.9,2.1c-1.5,1.4-2.3,3.3-2.3,5.7
				c0,2.4,0.8,4.3,2.3,5.7c1.5,1.4,3.5,2.1,5.9,2.1s4.3-0.7,5.9-2.1c1.5-1.4,2.3-3.3,2.3-5.7c0-2.4-0.8-4.3-2.3-5.7
				C1182.4,1059.6,1180.4,1058.8,1178,1058.8z"/>
			<path class="st0" d="M1211.4,1051h9.2v20h15.8v-20h9.2v49h-9.2v-20.2h-15.8v20.2h-9.2V1051z"/>
		</g>
	</g>
</g>
</svg>
