<?xml version="1.0" encoding="utf-8"?>
<!-- Generator: Adobe Illustrator 24.0.3, SVG Export Plug-In . SVG Version: 6.00 Build 0)  -->
<svg version="1.1" id="Layer_1" xmlns="http://www.w3.org/2000/svg" xmlns:xlink="http://www.w3.org/1999/xlink" x="0px" y="0px"
	 viewBox="0 0 841.9 595.3" style="enable-background:new 0 0 841.9 595.3;" xml:space="preserve">
<style type="text/css">
	.st0{stroke:#000000;stroke-width:0.5;stroke-miterlimit:10;}
</style>
<g>
	<path class="st0" d="M367.3,337.4l9-4.4l-9-4.4v-0.7l10.8,4.6v1l-10.8,4.6V337.4z"/>
	<path class="st0" d="M391.2,333.1c0.9-0.9,1.6-1.6,2-2.1s0.7-1,0.9-1.4c0.2-0.4,0.2-0.9,0.2-1.5c0-0.9-0.3-1.5-0.9-2
		s-1.5-0.7-2.7-0.7c-0.6,0-1.2,0.1-1.8,0.3c-0.6,0.2-1,0.5-1.4,0.9s-0.6,1-0.6,1.7c0,0.5,0.1,1,0.3,1.5l-1.3-0.4
		c-0.2-0.6-0.3-1.1-0.3-1.6c0-0.8,0.2-1.6,0.7-2.2s1.1-1.1,1.8-1.4c0.8-0.3,1.6-0.5,2.5-0.5c1,0,1.9,0.2,2.7,0.5
		c0.8,0.3,1.3,0.8,1.8,1.4s0.6,1.4,0.6,2.3c0,0.8-0.2,1.5-0.5,2.1s-0.8,1.3-1.3,1.8c-0.5,0.6-1.2,1.2-2.1,1.9l-4,3.8h8.1v1.7h-10.2
		V338L391.2,333.1z"/>
	<path class="st0" d="M399.9,338.5c-1-0.6-1.7-1.5-2.2-2.7s-0.8-2.6-0.8-4.2s0.3-3,0.8-4.2s1.2-2.1,2.2-2.7s2.1-1,3.4-1
		s2.4,0.3,3.4,1c1,0.6,1.7,1.5,2.2,2.7s0.8,2.6,0.8,4.2s-0.3,3-0.8,4.2s-1.3,2.1-2.2,2.7c-1,0.6-2.1,1-3.4,1
		S400.9,339.2,399.9,338.5z M405.9,337c0.7-0.5,1.3-1.2,1.7-2.2s0.6-2,0.6-3.3s-0.2-2.4-0.6-3.3s-1-1.7-1.7-2.2s-1.6-0.8-2.6-0.8
		s-1.9,0.3-2.6,0.8s-1.3,1.2-1.7,2.2c-0.4,0.9-0.6,2-0.6,3.3s0.2,2.4,0.6,3.3s1,1.6,1.7,2.2c0.7,0.5,1.6,0.8,2.6,0.8
		S405.1,337.5,405.9,337z"/>
	<path class="st0" d="M416.1,333.1c0.9-0.9,1.6-1.6,2-2.1s0.7-1,0.9-1.4s0.2-0.9,0.2-1.5c0-0.9-0.3-1.5-0.9-2s-1.5-0.7-2.7-0.7
		c-0.6,0-1.2,0.1-1.8,0.3c-0.6,0.2-1,0.5-1.4,0.9s-0.6,1-0.6,1.7c0,0.5,0.1,1,0.3,1.5l-1.3-0.4c-0.2-0.6-0.3-1.1-0.3-1.6
		c0-0.8,0.2-1.6,0.7-2.2s1.1-1.1,1.8-1.4s1.6-0.5,2.5-0.5c1,0,1.9,0.2,2.7,0.5c0.8,0.3,1.3,0.8,1.8,1.4s0.6,1.4,0.6,2.3
		c0,0.8-0.2,1.5-0.5,2.1c-0.3,0.7-0.8,1.3-1.3,1.8s-1.2,1.2-2.1,1.9l-4,3.8h8.1v1.7h-10.2V338L416.1,333.1z"/>
	<path class="st0" d="M424.8,338.5c-1-0.6-1.7-1.5-2.2-2.7s-0.8-2.6-0.8-4.2s0.3-3,0.8-4.2s1.2-2.1,2.2-2.7s2.1-1,3.4-1
		s2.4,0.3,3.4,1c1,0.6,1.7,1.5,2.2,2.7s0.8,2.6,0.8,4.2s-0.3,3-0.8,4.2s-1.3,2.1-2.2,2.7c-1,0.6-2.1,1-3.4,1
		S425.8,339.2,424.8,338.5z M430.8,337c0.7-0.5,1.3-1.2,1.7-2.2s0.6-2,0.6-3.3s-0.2-2.4-0.6-3.3s-1-1.7-1.7-2.2s-1.6-0.8-2.6-0.8
		s-1.9,0.3-2.6,0.8s-1.3,1.2-1.7,2.2c-0.4,0.9-0.6,2-0.6,3.3s0.2,2.4,0.6,3.3s1,1.6,1.7,2.2c0.7,0.5,1.6,0.8,2.6,0.8
		C429.2,337.8,430,337.5,430.8,337z"/>
</g>
</svg>
