<?xml version="1.0" encoding="utf-8"?>
<!-- Generator: Adobe Illustrator 22.0.0, SVG Export Plug-In . SVG Version: 6.00 Build 0)  -->
<svg version="1.1" id="Layer_1" xmlns="http://www.w3.org/2000/svg" xmlns:xlink="http://www.w3.org/1999/xlink" x="0px" y="0px"
	 viewBox="0 0 841.9 595.3" style="enable-background:new 0 0 841.9 595.3;" xml:space="preserve">
<g>
	<path d="M334.9,404.6c-0.3,0.5-0.8,0.9-1.4,1.2c-0.6,0.3-1.3,0.4-2.1,0.4c-0.9,0-1.7-0.2-2.3-0.6c-0.7-0.4-1.2-1-1.6-1.8
		s-0.6-1.7-0.6-2.8c0-1.1,0.2-2.1,0.6-2.9c0.4-0.8,1-1.4,1.7-1.8c0.7-0.4,1.5-0.6,2.5-0.6c0.7,0,1.4,0.1,1.9,0.4
		c0.6,0.3,1,0.6,1.4,1.1c0.3,0.5,0.5,1,0.5,1.6c0,0.4-0.1,0.8-0.2,1.2l-0.9,0.1c0.1-0.2,0.1-0.5,0.1-0.8c0-0.4-0.1-0.8-0.4-1.1
		s-0.6-0.6-1-0.8s-0.9-0.3-1.5-0.3c-0.7,0-1.3,0.2-1.9,0.5c-0.5,0.3-1,0.8-1.2,1.4s-0.4,1.2-0.4,2c0,0.8,0.1,1.5,0.4,2.1
		s0.7,1,1.2,1.3c0.5,0.3,1.1,0.5,1.8,0.5c0.6,0,1.1-0.1,1.5-0.3c0.4-0.2,0.8-0.4,1.1-0.8s0.4-0.7,0.4-1.2l0.9,0.3
		C335.4,403.5,335.3,404.1,334.9,404.6z"/>
	<path d="M346.6,404.6v1.3c-0.1,0.1-0.3,0.1-0.5,0.2s-0.4,0.1-0.6,0.1c-0.3,0-0.6-0.1-0.7-0.2s-0.3-0.3-0.4-0.6s-0.1-0.7-0.1-1.2
		c0-0.5,0-1.1,0.1-1.8h-0.1c-0.3,1.2-0.9,2.2-1.7,2.9c-0.8,0.7-1.8,1-3,1c-0.6,0-1.1-0.1-1.6-0.3c-0.5-0.2-0.9-0.5-1.1-0.9
		s-0.4-0.9-0.4-1.5c0-1.1,0.6-1.9,1.8-2.4c1.2-0.5,2.9-0.7,5.1-0.7c0.3,0,0.6,0,0.8,0v-0.6c0-1.8-1-2.8-2.9-2.8
		c-0.5,0-1,0.1-1.4,0.2c-0.5,0.2-0.8,0.4-1.1,0.7s-0.4,0.7-0.4,1.2c0,0.2,0,0.5,0.1,0.8l-0.9-0.1c-0.2-0.4-0.2-0.8-0.2-1.2
		c0-0.6,0.2-1.1,0.5-1.6c0.3-0.5,0.8-0.8,1.4-1.1c0.6-0.3,1.3-0.4,2.1-0.4c1.3,0,2.3,0.3,3,1c0.7,0.7,1.1,1.7,1.1,3v4
		c0,0.4,0,0.7,0.1,0.9s0.2,0.3,0.4,0.3C346.2,404.7,346.4,404.6,346.6,404.6z M342.1,404.3c0.6-0.3,1.1-0.7,1.5-1.3s0.6-1.3,0.6-2.1
		v-0.1c-0.2,0-0.4,0-0.7,0c-1.9,0-3.4,0.2-4.3,0.6c-1,0.4-1.4,1-1.4,1.7c0,0.5,0.2,0.9,0.7,1.2c0.4,0.3,1,0.4,1.7,0.4
		C340.8,404.8,341.5,404.6,342.1,404.3z"/>
	<path d="M349.3,395.9l-0.3,3.7h0.1c0.3-1.3,0.7-2.3,1.4-2.9c0.7-0.7,1.5-1,2.4-1c1,0,1.7,0.3,2.2,1c0.5,0.7,0.7,1.7,0.7,2.9h0.1
		c0.2-1.3,0.7-2.3,1.4-3s1.5-1,2.4-1c1.1,0,2,0.4,2.4,1.2c0.5,0.8,0.7,1.9,0.7,3.3v5.8h-1.3v-5.6c0-0.8-0.1-1.4-0.3-1.9
		s-0.4-0.8-0.8-1c-0.3-0.2-0.8-0.3-1.3-0.3c-0.5,0-1,0.1-1.5,0.4c-0.5,0.3-0.9,0.7-1.2,1.3c-0.3,0.6-0.5,1.3-0.5,2.1v5h-1.3v-5.5
		c0-1.2-0.2-2-0.6-2.5s-0.9-0.8-1.7-0.8c-0.5,0-1,0.2-1.5,0.5c-0.5,0.3-0.9,0.8-1.2,1.4c-0.3,0.6-0.5,1.3-0.5,2.1v4.8h-1.3v-10
		H349.3z"/>
	<path d="M364.5,394.3c-0.2-0.2-0.3-0.4-0.3-0.8c0-0.3,0.1-0.6,0.3-0.7s0.5-0.3,0.8-0.3c0.4,0,0.6,0.1,0.8,0.3
		c0.2,0.2,0.3,0.4,0.3,0.7c0,0.3-0.1,0.6-0.3,0.8c-0.2,0.2-0.5,0.3-0.8,0.3C365,394.5,364.7,394.5,364.5,394.3z M365.4,395.9
		c0.2,0,0.4,0,0.7-0.1v10h-1.3v-10C364.9,395.9,365.1,395.9,365.4,395.9z"/>
	<path d="M368,405.8v-14.2h1.3v14.2H368z"/>
	<path d="M381,404.6v1.3c-0.1,0.1-0.3,0.1-0.5,0.2s-0.4,0.1-0.6,0.1c-0.3,0-0.6-0.1-0.7-0.2s-0.3-0.3-0.4-0.6s-0.1-0.7-0.1-1.2
		c0-0.5,0-1.1,0.1-1.8h-0.1c-0.3,1.2-0.9,2.2-1.7,2.9c-0.8,0.7-1.8,1-3,1c-0.6,0-1.1-0.1-1.6-0.3c-0.5-0.2-0.9-0.5-1.1-0.9
		s-0.4-0.9-0.4-1.5c0-1.1,0.6-1.9,1.8-2.4c1.2-0.5,2.9-0.7,5.1-0.7c0.3,0,0.6,0,0.8,0v-0.6c0-1.8-1-2.8-2.9-2.8
		c-0.5,0-1,0.1-1.4,0.2s-0.8,0.4-1.1,0.7s-0.4,0.7-0.4,1.2c0,0.2,0,0.5,0.1,0.8l-0.9-0.1c-0.2-0.4-0.2-0.8-0.2-1.2
		c0-0.6,0.2-1.1,0.5-1.6c0.3-0.5,0.8-0.8,1.4-1.1c0.6-0.3,1.3-0.4,2.1-0.4c1.3,0,2.3,0.3,3,1c0.7,0.7,1.1,1.7,1.1,3v4
		c0,0.4,0,0.7,0.1,0.9s0.2,0.3,0.4,0.3C380.6,404.7,380.8,404.6,381,404.6z M376.5,404.3c0.6-0.3,1.1-0.7,1.5-1.3
		c0.4-0.6,0.6-1.3,0.6-2.1v-0.1c-0.2,0-0.4,0-0.7,0c-1.9,0-3.4,0.2-4.3,0.6c-1,0.4-1.4,1-1.4,1.7c0,0.5,0.2,0.9,0.7,1.2
		s1,0.4,1.7,0.4C375.2,404.8,375.9,404.6,376.5,404.3z"/>
	<path d="M395.2,404.6c-0.3,0.5-0.8,0.9-1.4,1.2c-0.6,0.3-1.3,0.4-2.1,0.4c-0.9,0-1.7-0.2-2.3-0.6c-0.7-0.4-1.2-1-1.6-1.8
		s-0.6-1.7-0.6-2.8c0-1.1,0.2-2.1,0.6-2.9c0.4-0.8,1-1.4,1.7-1.8c0.7-0.4,1.5-0.6,2.5-0.6c0.7,0,1.4,0.1,1.9,0.4
		c0.6,0.3,1,0.6,1.4,1.1c0.3,0.5,0.5,1,0.5,1.6c0,0.4-0.1,0.8-0.2,1.2l-0.9,0.1c0.1-0.2,0.1-0.5,0.1-0.8c0-0.4-0.1-0.8-0.4-1.1
		s-0.6-0.6-1-0.8s-0.9-0.3-1.5-0.3c-0.7,0-1.3,0.2-1.9,0.5c-0.5,0.3-1,0.8-1.2,1.4s-0.4,1.2-0.4,2c0,0.8,0.1,1.5,0.4,2.1
		s0.7,1,1.2,1.3c0.5,0.3,1.1,0.5,1.8,0.5c0.6,0,1.1-0.1,1.5-0.3c0.4-0.2,0.8-0.4,1.1-0.8s0.4-0.7,0.4-1.2l0.9,0.3
		C395.7,403.5,395.5,404.1,395.2,404.6z"/>
	<path d="M406.9,404.6v1.3c-0.1,0.1-0.3,0.1-0.5,0.2s-0.4,0.1-0.6,0.1c-0.3,0-0.6-0.1-0.7-0.2s-0.3-0.3-0.4-0.6s-0.1-0.7-0.1-1.2
		c0-0.5,0-1.1,0.1-1.8h-0.1c-0.3,1.2-0.9,2.2-1.7,2.9c-0.8,0.7-1.8,1-3,1c-0.6,0-1.1-0.1-1.6-0.3c-0.5-0.2-0.9-0.5-1.1-0.9
		s-0.4-0.9-0.4-1.5c0-1.1,0.6-1.9,1.8-2.4c1.2-0.5,2.9-0.7,5.1-0.7c0.3,0,0.6,0,0.8,0v-0.6c0-1.8-1-2.8-2.9-2.8
		c-0.5,0-1,0.1-1.4,0.2c-0.5,0.2-0.8,0.4-1.1,0.7c-0.3,0.3-0.4,0.7-0.4,1.2c0,0.2,0,0.5,0.1,0.8l-0.9-0.1c-0.2-0.4-0.2-0.8-0.2-1.2
		c0-0.6,0.2-1.1,0.5-1.6c0.3-0.5,0.8-0.8,1.4-1.1c0.6-0.3,1.3-0.4,2.1-0.4c1.3,0,2.3,0.3,3,1c0.7,0.7,1.1,1.7,1.1,3v4
		c0,0.4,0,0.7,0.1,0.9s0.2,0.3,0.4,0.3C406.5,404.7,406.7,404.6,406.9,404.6z M402.4,404.3c0.6-0.3,1.1-0.7,1.5-1.3s0.6-1.3,0.6-2.1
		v-0.1c-0.2,0-0.4,0-0.7,0c-1.9,0-3.4,0.2-4.3,0.6c-1,0.4-1.4,1-1.4,1.7c0,0.5,0.2,0.9,0.7,1.2c0.4,0.3,1,0.4,1.7,0.4
		C401.1,404.8,401.8,404.6,402.4,404.3z"/>
	<path d="M415.1,403.3c0,0.6-0.1,1.1-0.4,1.5c-0.2,0.4-0.6,0.8-1,1c-0.5,0.2-1,0.4-1.6,0.4c-1.1,0-1.8-0.3-2.3-1
		c-0.5-0.6-0.7-1.6-0.7-2.8v-5.1h-1.9v-1.4h1c0.4,0,0.7-0.1,0.8-0.3s0.2-0.5,0.2-0.9v-2h1.1c0,1,0,1.6,0,2s-0.1,0.6-0.1,0.8
		s-0.2,0.3-0.4,0.3v0.1h3.9v1.4h-3.3v5c0,0.9,0.2,1.5,0.5,1.9c0.3,0.4,0.8,0.6,1.4,0.6c0.6,0,1.1-0.1,1.4-0.4s0.5-0.8,0.5-1.4
		c0-0.1,0-0.2,0-0.3l0.9,0C415.1,402.9,415.1,403,415.1,403.3z"/>
	<path d="M423.2,403.3c0,0.6-0.1,1.1-0.4,1.5c-0.2,0.4-0.6,0.8-1,1c-0.5,0.2-1,0.4-1.6,0.4c-1.1,0-1.8-0.3-2.3-1s-0.7-1.6-0.7-2.8
		v-5.1h-1.9v-1.4h1c0.4,0,0.7-0.1,0.8-0.3s0.2-0.5,0.2-0.9v-2h1.1c0,1,0,1.6,0,2s-0.1,0.6-0.1,0.8s-0.2,0.3-0.4,0.3v0.1h3.9v1.4
		h-3.3v5c0,0.9,0.2,1.5,0.5,1.9s0.8,0.6,1.4,0.6s1.1-0.1,1.4-0.4s0.5-0.8,0.5-1.4c0-0.1,0-0.2,0-0.3l0.9,0
		C423.2,402.9,423.2,403,423.2,403.3z"/>
	<path d="M426,405.5c-0.7-0.4-1.3-1.1-1.7-1.9s-0.6-1.7-0.6-2.8c0-1.1,0.2-2,0.6-2.8c0.4-0.8,1-1.4,1.7-1.8c0.7-0.4,1.6-0.6,2.6-0.6
		s1.9,0.2,2.6,0.6c0.7,0.4,1.3,1,1.7,1.8c0.4,0.8,0.6,1.7,0.6,2.8c0,1.1-0.2,2-0.6,2.8c-0.4,0.8-0.9,1.4-1.7,1.9
		c-0.7,0.4-1.6,0.7-2.6,0.7C427.6,406.2,426.7,405.9,426,405.5z M430.6,404.3c0.6-0.3,1-0.8,1.3-1.3c0.3-0.6,0.5-1.3,0.5-2.1
		c0-0.8-0.2-1.5-0.5-2.1c-0.3-0.6-0.7-1-1.3-1.3c-0.6-0.3-1.2-0.5-2-0.5c-0.8,0-1.4,0.2-2,0.5s-1,0.8-1.3,1.3s-0.5,1.3-0.5,2.1
		c0,0.8,0.2,1.5,0.5,2.1c0.3,0.6,0.7,1,1.3,1.3s1.2,0.5,2,0.5C429.4,404.7,430,404.6,430.6,404.3z"/>
</g>
</svg>
