<?xml version="1.0" encoding="utf-8"?>
<!-- Generator: Adobe Illustrator 24.0.3, SVG Export Plug-In . SVG Version: 6.00 Build 0)  -->
<svg version="1.1" id="Layer_1" xmlns="http://www.w3.org/2000/svg" xmlns:xlink="http://www.w3.org/1999/xlink" x="0px" y="0px"
	 viewBox="0 0 841.9 595.3" style="enable-background:new 0 0 841.9 595.3;" xml:space="preserve">
<style type="text/css">
	.st0{stroke:#000000;stroke-width:2;stroke-miterlimit:10;}
</style>
<g>
	<path class="st0" d="M121.9,75.8h-0.2c-0.7,3.2-2.1,5.7-4.1,7.3c-2,1.7-4.6,2.5-7.6,2.5c-2.7,0-5.1-0.6-7.1-1.9s-3.5-3.1-4.6-5.5
		s-1.6-5.2-1.6-8.4c0-3.3,0.5-6.2,1.6-8.6c1-2.4,2.6-4.2,4.5-5.4c2-1.2,4.3-1.8,7.1-1.8c3.3,0,6,1,8,3s3.3,4.7,4,8.2h0.2
		c0-0.8-0.1-1.9-0.2-3.1c0-0.2-0.1-0.8-0.1-1.8c-0.1-1-0.1-1.9-0.1-2.7V42.4h3.9v42.4h-4.3L121.9,75.8z M119.9,63.5
		c-1-1.7-2.3-3.1-3.9-3.9c-1.7-0.9-3.5-1.3-5.5-1.3c-2.1,0-3.9,0.4-5.5,1.3s-2.8,2.2-3.7,4c-0.9,1.7-1.3,3.8-1.3,6.2
		c0,2.4,0.4,4.4,1.3,6.2c0.9,1.7,2.1,3.1,3.7,4s3.5,1.4,5.6,1.4c2.3,0,4.2-0.5,5.8-1.4s2.8-2.2,3.7-4c0.8-1.7,1.3-3.8,1.3-6.2
		C121.4,67.3,120.9,65.2,119.9,63.5z"/>
	<path class="st0" d="M148.2,80.7c1.3-0.5,2.4-1.3,3.2-2.3s1.2-2.2,1.3-3.7l2.6,1c0,1.8-0.5,3.5-1.5,5s-2.3,2.7-4,3.6
		s-3.8,1.4-6.1,1.4c-3,0-5.5-0.7-7.6-2.1s-3.7-3.3-4.7-5.7c-1.1-2.4-1.6-5.2-1.6-8.3s0.6-5.9,1.8-8.2s2.8-4.2,4.9-5.5
		c2.1-1.3,4.6-1.9,7.4-1.9c2.3,0,4.4,0.4,6.2,1.3s3.3,2.2,4.4,3.8s1.6,3.6,1.6,5.7c0,1.6-0.3,3.2-0.8,4.9h-22.1
		c0.1,2.3,0.5,4.4,1.3,6.2s2,3.1,3.6,4.1s3.5,1.5,5.7,1.5C145.4,81.5,146.9,81.2,148.2,80.7z M136.3,60.7c-1.9,1.8-2.9,4.3-3.1,7.5
		h19c0.2-0.9,0.4-1.8,0.4-2.6c0-1.5-0.4-2.9-1.1-4c-0.7-1.1-1.8-2-3.1-2.6s-2.8-0.9-4.5-0.9C140.7,58,138.2,58.9,136.3,60.7z"/>
	<path class="st0" d="M164.2,68.4c-1.3-0.4-2.4-1.2-3.4-2.2s-1.5-2.4-1.5-4.1c0-1.6,0.4-3.1,1.2-4.3s2.1-2.2,3.7-2.8s3.6-1,6-1
		c2.1,0,4,0.3,5.7,1s3.1,1.6,4.2,2.9s1.6,2.9,1.6,4.7c0,1.1-0.2,2.2-0.6,3.3l-2.7,0.3c0.2-0.8,0.4-1.6,0.4-2.3
		c0-1.9-0.8-3.3-2.4-4.4s-3.6-1.5-6.1-1.5s-4.4,0.4-5.7,1.3c-1.3,0.8-2,2-2,3.4c0,1.1,0.3,2,1,2.7s1.5,1.2,2.4,1.6
		c1,0.4,2.3,0.8,4,1.2l1.6,0.4c2.6,0.6,4.7,1.2,6.3,1.8c1.6,0.7,2.8,1.5,3.7,2.5s1.3,2.2,1.3,3.7c0,1.8-0.5,3.4-1.4,4.7
		s-2.3,2.4-4.2,3.1c-1.8,0.7-4.1,1.1-6.7,1.1c-2.2,0-4.2-0.4-6-1.1s-3.3-1.7-4.4-3.1c-1.1-1.4-1.6-3-1.6-5c0-1.2,0.2-2.4,0.6-3.7
		l2.7-0.3c-0.3,1-0.4,1.8-0.4,2.6c0,2.1,0.9,3.8,2.6,4.8c1.7,1.1,3.9,1.6,6.5,1.6c1.7,0,3.2-0.2,4.6-0.7c1.3-0.4,2.4-1.1,3.1-1.9
		s1.1-1.8,1.1-2.8c0-1.4-0.7-2.6-2.1-3.4c-1.4-0.9-3.6-1.7-6.6-2.5l-1.8-0.4C167.1,69.3,165.5,68.8,164.2,68.4z"/>
	<path class="st0" d="M204,80.7c1.3-0.5,2.4-1.3,3.2-2.3s1.2-2.2,1.3-3.7l2.6,1c0,1.8-0.5,3.5-1.5,5s-2.3,2.7-4,3.6
		s-3.8,1.4-6.1,1.4c-3,0-5.5-0.7-7.6-2.1s-3.7-3.3-4.7-5.7c-1.1-2.4-1.6-5.2-1.6-8.3s0.6-5.9,1.8-8.2s2.8-4.2,4.9-5.5
		c2.1-1.3,4.6-1.9,7.4-1.9c2.3,0,4.4,0.4,6.2,1.3s3.3,2.2,4.4,3.8s1.6,3.6,1.6,5.7c0,1.6-0.3,3.2-0.8,4.9h-21.9
		c0.1,2.3,0.5,4.4,1.3,6.2s2,3.1,3.6,4.1s3.5,1.5,5.7,1.5C201.2,81.5,202.7,81.2,204,80.7z M192.1,60.7c-1.9,1.8-2.9,4.3-3.1,7.5h19
		c0.2-0.9,0.4-1.8,0.4-2.6c0-1.5-0.4-2.9-1.1-4c-0.7-1.1-1.8-2-3.1-2.6s-2.8-0.9-4.5-0.9C196.5,58,194,58.9,192.1,60.7z"/>
	<path class="st0" d="M239.1,68.6c0-3.5-0.6-6.1-1.9-7.7s-3.4-2.5-6.2-2.5c-2,0-3.8,0.5-5.5,1.6s-3,2.6-4,4.5
		c-1,1.9-1.5,4.1-1.5,6.5v13.8h-3.9V54.9h4.3l-1,11.6h0.2c0.5-2.5,1.3-4.7,2.4-6.6c1.1-1.9,2.6-3.3,4.4-4.3s3.8-1.5,6-1.5
		c3.8,0,6.5,1.2,8.1,3.6s2.4,5.8,2.4,10.2v17H239V68.6H239.1z"/>
	<path class="st0" d="M252.7,42.4v16c0,1.6,0,2.8-0.1,3.7s-0.2,1.9-0.4,2.9c0,0.2,0,0.4-0.1,0.6c0,0.2-0.1,0.5-0.1,0.7h0.2
		c0.5-2.3,1.3-4.5,2.4-6.3s2.6-3.4,4.3-4.5c1.7-1.1,3.7-1.6,5.8-1.6c2.8,0,5,0.6,6.6,1.8s2.7,2.8,3.3,4.9s0.9,4.6,0.9,7.5v16.6h-3.8
		V68.6c0-3.4-0.6-6-1.9-7.7s-3.4-2.5-6.2-2.5c-2,0-3.8,0.5-5.4,1.6s-3,2.5-4,4.4c-1,1.9-1.5,4-1.5,6.3v14.1h-3.9V42.4H252.7z"/>
	<path class="st0" d="M310.1,80.9v4c-0.4,0.2-0.8,0.4-1.4,0.5s-1.2,0.2-1.8,0.2c-0.9,0-1.6-0.2-2.2-0.6c-0.5-0.4-0.9-1-1.2-1.8
		c-0.2-0.9-0.4-2-0.4-3.5c0-1.3,0.1-3.2,0.3-5.5h-0.2c-0.9,3.7-2.6,6.6-5,8.5c-2.5,2-5.5,2.9-8.9,2.9c-1.7,0-3.3-0.3-4.7-0.9
		c-1.4-0.6-2.5-1.5-3.4-2.7s-1.3-2.7-1.3-4.5c0-3.4,1.7-5.8,5.2-7.2c3.5-1.5,8.6-2.2,15.4-2.2c1,0,1.8,0,2.3,0v-1.7
		c0-5.5-2.9-8.3-8.7-8.3c-1.5,0-2.9,0.2-4.3,0.7s-2.4,1.2-3.3,2.2c-0.8,1-1.2,2.2-1.2,3.5c0,0.7,0.1,1.5,0.4,2.3l-2.6-0.3
		c-0.5-1.2-0.7-2.4-0.7-3.5c0-1.7,0.5-3.3,1.5-4.7s2.4-2.5,4.2-3.3s3.9-1.2,6.2-1.2c3.9,0,6.9,1,9.1,3s3.3,5,3.3,9.1v11.8
		c0,1.2,0.1,2,0.3,2.5c0.2,0.5,0.6,0.8,1.2,0.8C309,81.2,309.6,81.1,310.1,80.9z M296.8,80.2c1.9-0.9,3.3-2.2,4.5-3.9
		s1.7-3.9,1.7-6.4v-0.3c-0.5,0-1.2,0-2.1,0c-5.7,0-10,0.6-12.9,1.7s-4.3,2.9-4.3,5.1c0,1.6,0.6,2.8,1.9,3.7c1.3,0.9,3,1.3,5.1,1.3
		C292.9,81.5,294.9,81.1,296.8,80.2z"/>
	<path class="st0" d="M337,68.6c0-3.5-0.6-6.1-1.9-7.7s-3.4-2.5-6.2-2.5c-2,0-3.8,0.5-5.5,1.6s-3,2.6-4,4.5c-1,1.9-1.5,4.1-1.5,6.5
		v13.8H314V54.9h4.3l-1,11.6h0.2c0.5-2.5,1.3-4.7,2.4-6.6s2.6-3.3,4.4-4.3s3.8-1.5,6-1.5c3.8,0,6.5,1.2,8.1,3.6s2.4,5.8,2.4,10.2v17
		h-3.9V68.6H337z"/>
	<path class="st0" d="M370.4,75.8h-0.2c-0.7,3.2-2.1,5.7-4.1,7.3c-2,1.7-4.6,2.5-7.6,2.5c-2.7,0-5.1-0.6-7.1-1.9s-3.5-3.1-4.6-5.5
		s-1.6-5.2-1.6-8.4c0-3.3,0.5-6.2,1.6-8.6c1-2.4,2.6-4.2,4.5-5.4c2-1.2,4.3-1.8,7.1-1.8c3.3,0,6,1,8,3s3.3,4.7,4,8.2h0.2
		c0-0.8-0.1-1.9-0.2-3.1c0-0.2-0.1-0.8-0.1-1.8c-0.1-1-0.1-1.9-0.1-2.7V42.4h3.9v42.4h-4.3L370.4,75.8z M368.4,63.5
		c-1-1.7-2.3-3.1-3.9-3.9c-1.7-0.9-3.5-1.3-5.5-1.3c-2.1,0-3.9,0.4-5.5,1.3s-2.8,2.2-3.7,4c-0.9,1.7-1.3,3.8-1.3,6.2
		c0,2.4,0.4,4.4,1.3,6.2c0.9,1.7,2.1,3.1,3.7,4s3.5,1.4,5.6,1.4c2.3,0,4.2-0.5,5.8-1.4c1.6-0.9,2.8-2.2,3.7-4
		c0.8-1.7,1.3-3.8,1.3-6.2C369.9,67.3,369.4,65.2,368.4,63.5z"/>
	<path class="st0" d="M384.9,83.7c-2.2-1.3-3.9-3.2-5-5.6s-1.7-5.2-1.7-8.3c0-3.2,0.6-6.1,1.7-8.4c1.2-2.4,2.8-4.2,5-5.5
		s4.8-1.9,7.8-1.9s5.6,0.6,7.8,1.9c2.2,1.3,3.8,3.1,5,5.5s1.7,5.2,1.7,8.4s-0.6,6-1.7,8.4s-2.8,4.2-5,5.5s-4.8,1.9-7.8,1.9
		C389.7,85.7,387.1,85,384.9,83.7z M398.6,79.9c1.7-0.9,3-2.3,3.9-4s1.4-3.8,1.4-6.2c0-2.4-0.5-4.4-1.4-6.1s-2.2-3.1-3.9-4
		s-3.6-1.4-5.8-1.4c-2.2,0-4.2,0.5-5.9,1.4s-3,2.3-3.9,4c-0.9,1.7-1.4,3.8-1.4,6.2c0,2.4,0.5,4.4,1.4,6.2c0.9,1.7,2.2,3.1,3.9,4
		s3.6,1.4,5.9,1.4C395,81.4,396.9,80.9,398.6,79.9z"/>
	<path class="st0" d="M120.7,153c-1,1.5-2.4,2.7-4.2,3.4s-3.9,1.2-6.2,1.2c-2.6,0-5-0.6-7-1.9s-3.6-3.1-4.8-5.5s-1.7-5.2-1.7-8.4
		c0-3.3,0.6-6.2,1.8-8.6c1.2-2.4,2.9-4.2,5.1-5.4c2.2-1.2,4.6-1.8,7.4-1.8c2.1,0,4.1,0.4,5.8,1.2s3.1,1.9,4.1,3.4
		c1,1.4,1.5,3,1.5,4.8c0,1.1-0.2,2.3-0.6,3.5l-2.8,0.2c0.3-0.7,0.4-1.5,0.4-2.3c0-1.3-0.4-2.4-1.1-3.4s-1.8-1.8-3-2.3
		s-2.7-0.8-4.4-0.8c-2.1,0-4,0.5-5.6,1.5s-2.9,2.4-3.7,4.2s-1.3,3.7-1.3,5.9c0,2.4,0.4,4.5,1.3,6.3s2.1,3.1,3.7,4s3.4,1.4,5.5,1.4
		c1.7,0,3.2-0.3,4.6-0.8c1.3-0.5,2.4-1.3,3.2-2.3c0.8-1,1.2-2.2,1.2-3.6l2.6,1C122.3,149.7,121.7,151.5,120.7,153z"/>
	<path class="st0" d="M132,155.7c-2.2-1.3-3.9-3.2-5-5.6c-1.1-2.4-1.7-5.2-1.7-8.3c0-3.2,0.6-6.1,1.7-8.4c1.2-2.4,2.8-4.2,5-5.5
		s4.8-1.9,7.8-1.9s5.6,0.6,7.8,1.9s3.8,3.1,5,5.5s1.7,5.2,1.7,8.4s-0.6,6-1.7,8.4c-1.2,2.4-2.8,4.2-5,5.5s-4.8,1.9-7.8,1.9
		C136.8,157.7,134.2,157,132,155.7z M145.7,151.9c1.7-0.9,3-2.3,3.9-4s1.4-3.8,1.4-6.2s-0.5-4.4-1.4-6.1s-2.2-3.1-3.9-4
		s-3.6-1.4-5.8-1.4s-4.2,0.5-5.9,1.4s-3,2.3-3.9,4s-1.4,3.8-1.4,6.2s0.5,4.4,1.4,6.2c0.9,1.7,2.2,3.1,3.9,4s3.6,1.4,5.9,1.4
		C142.1,153.4,144,152.9,145.7,151.9z"/>
	<path class="st0" d="M163,126.9l-0.9,10.9h0.2c0.8-3.9,2.2-6.8,4.2-8.8s4.4-3,7.2-3c2.9,0,5,1,6.4,3s2.2,5,2.2,8.8h0.2
		c0.7-4,2.1-7,4.1-8.9c2-2,4.4-2.9,7.2-2.9c3.4,0,5.9,1.2,7.3,3.5c1.4,2.3,2.1,5.7,2.1,10v17.3h-4v-16.7c0-2.4-0.3-4.3-0.8-5.7
		s-1.3-2.5-2.3-3.1s-2.3-0.9-3.8-0.9c-1.6,0-3.1,0.4-4.5,1.3s-2.6,2.2-3.5,3.9s-1.4,3.8-1.5,6.2v15h-3.9v-16.5
		c0-3.5-0.6-6.1-1.7-7.6c-1.1-1.5-2.8-2.3-5.1-2.3c-1.6,0-3.1,0.5-4.6,1.5s-2.7,2.4-3.6,4.2c-0.9,1.8-1.4,3.9-1.4,6.3v14.4h-3.9
		v-29.9L163,126.9L163,126.9z"/>
	<path class="st0" d="M247.5,153c-1,1.5-2.4,2.7-4.2,3.4s-3.9,1.2-6.2,1.2c-2.6,0-5-0.6-7-1.9s-3.6-3.1-4.8-5.5s-1.7-5.2-1.7-8.4
		c0-3.3,0.6-6.2,1.8-8.6s2.9-4.2,5.1-5.4c2.2-1.2,4.6-1.8,7.4-1.8c2.1,0,4.1,0.4,5.8,1.2s3.1,1.9,4.1,3.4c1,1.4,1.5,3,1.5,4.8
		c0,1.1-0.2,2.3-0.6,3.5l-2.8,0.2c0.3-0.7,0.4-1.5,0.4-2.3c0-1.3-0.4-2.4-1.1-3.4c-0.7-1-1.8-1.8-3-2.3s-2.7-0.8-4.4-0.8
		c-2.1,0-4,0.5-5.6,1.5s-2.9,2.4-3.7,4.2s-1.3,3.7-1.3,5.9c0,2.4,0.4,4.5,1.3,6.3s2.1,3.1,3.7,4s3.4,1.4,5.5,1.4
		c1.7,0,3.2-0.3,4.6-0.8c1.3-0.5,2.4-1.3,3.2-2.3s1.2-2.2,1.2-3.6l2.6,1C249,149.7,248.5,151.5,247.5,153z"/>
	<path class="st0" d="M258.7,155.7c-2.2-1.3-3.9-3.2-5-5.6s-1.7-5.2-1.7-8.3c0-3.2,0.6-6.1,1.7-8.4c1.2-2.4,2.8-4.2,5-5.5
		s4.8-1.9,7.8-1.9s5.6,0.6,7.8,1.9s3.8,3.1,5,5.5s1.7,5.2,1.7,8.4s-0.6,6-1.7,8.4c-1.2,2.4-2.8,4.2-5,5.5s-4.8,1.9-7.8,1.9
		C263.5,157.7,260.9,157,258.7,155.7z M272.4,151.9c1.7-0.9,3-2.3,3.9-4s1.4-3.8,1.4-6.2s-0.5-4.4-1.4-6.1s-2.2-3.1-3.9-4
		s-3.6-1.4-5.8-1.4c-2.2,0-4.2,0.5-5.9,1.4c-1.7,0.9-3,2.3-3.9,4s-1.4,3.8-1.4,6.2s0.5,4.4,1.4,6.2c0.9,1.7,2.2,3.1,3.9,4
		c1.7,0.9,3.6,1.4,5.9,1.4C268.8,153.4,270.8,152.9,272.4,151.9z M265.7,117.7c1.5-1.2,3.1-2.6,5.1-4l2.2,3.2l-10.7,5.6l-0.6-1
		C262.9,120.1,264.3,118.9,265.7,117.7z"/>
	<path class="st0" d="M309.1,147.8h-0.2c-0.7,3.2-2.1,5.7-4.1,7.3c-2,1.7-4.6,2.5-7.6,2.5c-2.7,0-5.1-0.6-7.1-1.9s-3.5-3.1-4.6-5.5
		s-1.6-5.2-1.6-8.4c0-3.3,0.5-6.2,1.6-8.6c1-2.4,2.6-4.2,4.5-5.4c2-1.2,4.3-1.8,7.1-1.8c3.3,0,6,1,8,3c2,2,3.3,4.7,4,8.2h0.2
		c0-0.8-0.1-1.9-0.2-3.1c0-0.2-0.1-0.8-0.1-1.8c-0.1-1-0.1-1.9-0.1-2.7v-15.2h3.9v42.4h-4.3L309.1,147.8z M307.2,135.5
		c-1-1.7-2.3-3.1-3.9-3.9c-1.7-0.9-3.5-1.3-5.5-1.3c-2.1,0-3.9,0.4-5.5,1.3s-2.8,2.2-3.7,4c-0.9,1.7-1.3,3.8-1.3,6.2
		s0.4,4.4,1.3,6.2c0.9,1.7,2.1,3.1,3.7,4s3.5,1.4,5.6,1.4c2.3,0,4.2-0.5,5.8-1.4c1.6-0.9,2.8-2.2,3.7-4c0.8-1.7,1.3-3.8,1.3-6.2
		C308.6,139.3,308.1,137.2,307.2,135.5z"/>
	<path class="st0" d="M318.1,122.1c-0.6-0.5-0.8-1.3-0.8-2.3s0.3-1.7,0.8-2.2c0.6-0.5,1.4-0.8,2.5-0.8s1.9,0.3,2.5,0.8
		s0.8,1.3,0.8,2.2c0,1-0.3,1.8-0.8,2.3c-0.6,0.5-1.4,0.8-2.5,0.8S318.7,122.7,318.1,122.1z M320.6,127c0.7,0,1.3-0.1,2-0.2v29.9h-4
		v-29.9C319.3,127,319.9,127,320.6,127z"/>
	<path class="st0" d="M346.6,151.8c3.3,0.5,5.7,1.3,6.9,2.3c1.3,1,1.9,2.5,1.9,4.3c0,1.9-0.6,3.5-1.9,5c-1.3,1.4-2.9,2.6-5.1,3.4
		c-2.1,0.8-4.4,1.2-7,1.2c-2.5,0-4.7-0.3-6.7-0.9s-3.5-1.5-4.6-2.7s-1.7-2.6-1.7-4.3c0-2,0.8-4.2,2.5-6.7h-3.5
		c-0.5-0.8-0.7-1.6-0.7-2.4c0-1,0.4-1.9,1.1-2.8s1.8-1.5,3.2-2.1s3-0.8,4.7-0.9c-2.2-0.7-4-1.8-5.3-3.4s-1.9-3.6-1.9-6
		c0-3.2,1.1-5.7,3.2-7.4s5.1-2.5,8.9-2.5c2.6,0,4.8,0.4,6.7,1.2c-0.5-1-0.7-2-0.7-2.9c0-1,0.2-1.8,0.6-2.6s0.9-1.4,1.7-1.9
		c0.7-0.5,1.6-0.7,2.5-0.7s1.8,0.2,2.8,0.6l-0.4,3.9c-0.6-0.3-1.2-0.4-1.8-0.4c-0.9,0-1.6,0.3-2.2,0.8s-0.9,1.2-0.9,2
		c0,0.9,0.1,1.6,0.4,2.3c1.2,0.8,2.1,1.9,2.7,3.2s0.9,2.8,0.9,4.5c0,2.2-0.5,4-1.6,5.6s-2.5,2.7-4.4,3.4s-4,1.1-6.3,1.1
		s-4.3,0.2-5.9,0.6s-2.9,0.9-3.7,1.6c-0.8,0.6-1.2,1.3-1.2,1.9c0,0.3,0.1,0.5,0.4,0.6s0.8,0.2,1.6,0.2
		C338.4,151,343.2,151.3,346.6,151.8z M346.4,162.8c1.6-0.5,2.9-1.2,3.8-2.1s1.4-1.9,1.4-3.1c0-1.3-0.6-2.3-1.8-2.9
		c-1.2-0.6-3.1-1.1-5.7-1.3s-6.4-0.4-11.5-0.4c-1.5,2.3-2.3,4.2-2.3,5.7c0,3.3,3.5,4.9,10.4,4.9
		C342.8,163.5,344.7,163.3,346.4,162.8z M333.1,139.8c0.7,1.1,1.6,2,2.9,2.6c1.3,0.7,2.9,1,4.8,1s3.5-0.3,4.9-1s2.4-1.5,3-2.6
		c0.7-1.1,1-2.3,1-3.5s-0.3-2.3-1-3.3s-1.7-1.8-3-2.4s-3-0.9-4.9-0.9c-2,0-3.6,0.3-4.9,0.9s-2.3,1.4-2.9,2.4s-1,2.1-1,3.3
		C332.1,137.6,332.4,138.8,333.1,139.8z"/>
	<path class="st0" d="M363.5,155.7c-2.2-1.3-3.9-3.2-5-5.6s-1.7-5.2-1.7-8.3c0-3.2,0.6-6.1,1.7-8.4c1.2-2.4,2.8-4.2,5-5.5
		s4.8-1.9,7.8-1.9s5.6,0.6,7.8,1.9c2.2,1.3,3.8,3.1,5,5.5s1.7,5.2,1.7,8.4s-0.6,6-1.7,8.4c-1.2,2.4-2.8,4.2-5,5.5s-4.8,1.9-7.8,1.9
		C368.3,157.7,365.7,157,363.5,155.7z M377.2,151.9c1.7-0.9,3-2.3,3.9-4s1.4-3.8,1.4-6.2s-0.5-4.4-1.4-6.1s-2.2-3.1-3.9-4
		s-3.6-1.4-5.8-1.4c-2.2,0-4.2,0.5-5.9,1.4c-1.7,0.9-3,2.3-3.9,4s-1.4,3.8-1.4,6.2s0.5,4.4,1.4,6.2c0.9,1.7,2.2,3.1,3.9,4
		c1.7,0.9,3.6,1.4,5.9,1.4C373.6,153.4,375.6,152.9,377.2,151.9z"/>
</g>
</svg>
