<?xml version="1.0" encoding="utf-8"?>
<!-- Generator: Adobe Illustrator 24.0.3, SVG Export Plug-In . SVG Version: 6.00 Build 0)  -->
<svg version="1.1" id="Layer_1" xmlns="http://www.w3.org/2000/svg" xmlns:xlink="http://www.w3.org/1999/xlink" x="0px" y="0px"
	 viewBox="0 0 841.9 595.3" style="enable-background:new 0 0 841.9 595.3;" xml:space="preserve">
<style type="text/css">
	.st0{stroke:#000000;stroke-width:0.5;stroke-miterlimit:10;}
</style>
<g>
	<path class="st0" d="M330.9,332.5c-0.5-0.2-1-0.5-1.4-0.9s-0.6-1-0.6-1.7s0.2-1.2,0.5-1.7s0.8-0.9,1.5-1.1s1.5-0.4,2.4-0.4
		c0.8,0,1.6,0.1,2.3,0.4s1.3,0.7,1.7,1.2s0.6,1.1,0.6,1.9c0,0.4-0.1,0.9-0.2,1.3l-1.1,0.1c0.1-0.3,0.1-0.6,0.1-0.9
		c0-0.8-0.3-1.3-0.9-1.7s-1.4-0.6-2.4-0.6s-1.8,0.2-2.3,0.5s-0.8,0.8-0.8,1.4c0,0.5,0.1,0.8,0.4,1.1s0.6,0.5,1,0.6s0.9,0.3,1.6,0.5
		l0.7,0.1c1,0.2,1.9,0.5,2.5,0.7s1.1,0.6,1.5,1s0.5,0.9,0.5,1.5c0,0.7-0.2,1.4-0.6,1.9s-0.9,0.9-1.7,1.2s-1.6,0.4-2.7,0.4
		c-0.9,0-1.7-0.1-2.4-0.4s-1.3-0.7-1.8-1.2s-0.7-1.2-0.7-2c0-0.5,0.1-1,0.3-1.5l1.1-0.1c-0.1,0.4-0.2,0.7-0.2,1c0,0.9,0.3,1.5,1,1.9
		s1.6,0.6,2.6,0.6c0.7,0,1.3-0.1,1.8-0.3s0.9-0.4,1.2-0.8s0.4-0.7,0.4-1.1c0-0.6-0.3-1-0.8-1.4s-1.4-0.7-2.6-1l-0.7-0.2
		C332,332.9,331.4,332.7,330.9,332.5z"/>
	<path class="st0" d="M346.8,337.4c0.5-0.2,0.9-0.5,1.3-0.9s0.5-0.9,0.5-1.5l1,0.4c0,0.7-0.2,1.4-0.6,2s-0.9,1.1-1.6,1.5
		s-1.5,0.5-2.4,0.5c-1.2,0-2.2-0.3-3.1-0.8s-1.5-1.3-1.9-2.3s-0.6-2.1-0.6-3.3s0.2-2.3,0.7-3.3s1.1-1.7,2-2.2s1.8-0.8,2.9-0.8
		c0.9,0,1.8,0.2,2.5,0.5s1.3,0.9,1.7,1.5s0.6,1.4,0.6,2.3c0,0.6-0.1,1.3-0.3,2h-8.8c0,0.9,0.2,1.8,0.5,2.5s0.8,1.2,1.4,1.6
		s1.4,0.6,2.3,0.6C345.7,337.7,346.3,337.6,346.8,337.4z M342,329.5c-0.7,0.7-1.2,1.7-1.2,3h7.6c0.1-0.4,0.1-0.7,0.1-1.1
		c0-0.6-0.1-1.1-0.4-1.6s-0.7-0.8-1.2-1.1s-1.1-0.4-1.8-0.4C343.8,328.4,342.8,328.7,342,329.5z"/>
	<path class="st0" d="M359.9,335.9c0,0.7-0.1,1.3-0.4,1.8s-0.7,0.9-1.2,1.2s-1.2,0.4-1.9,0.4c-1.3,0-2.2-0.4-2.8-1.2
		s-0.8-1.9-0.8-3.3v-6.2h-2.2v-1.7h1.1c0.5,0,0.8-0.1,1-0.4s0.3-0.6,0.3-1.1V323h1.4c0,1.2,0,2,0,2.4s-0.1,0.8-0.2,1
		s-0.2,0.3-0.5,0.4v0.1h4.7v1.7h-4v5.9c0,1.1,0.2,1.8,0.6,2.3s0.9,0.7,1.7,0.7s1.3-0.2,1.7-0.5s0.6-0.9,0.6-1.6c0-0.1,0-0.3,0-0.3
		h1.1C359.9,335.5,359.9,335.7,359.9,335.9z"/>
	<path class="st0" d="M367.3,337.4l9-4.4l-9-4.4v-0.7l10.8,4.6v1l-10.8,4.6V337.4z"/>
</g>
</svg>
