<?xml version="1.0" encoding="utf-8"?>
<!-- Generator: Adobe Illustrator 22.0.0, SVG Export Plug-In . SVG Version: 6.00 Build 0)  -->
<svg version="1.1" id="Layer_1" xmlns="http://www.w3.org/2000/svg" xmlns:xlink="http://www.w3.org/1999/xlink" x="0px" y="0px"
	 viewBox="0 0 841.9 595.3" style="enable-background:new 0 0 841.9 595.3;" xml:space="preserve">
<style type="text/css">
	.st0{stroke:#000000;stroke-width:0.5;stroke-miterlimit:10;}
</style>
<g>
	<path class="st0" d="M62.3,270c0,0.9-0.2,1.8-0.6,2.5c-0.4,0.7-0.9,1.3-1.7,1.7s-1.6,0.6-2.7,0.6c-1.8,0-3-0.5-3.8-1.6
		s-1.1-2.6-1.1-4.5v-8.4h-3v-2.3H51c0.6,0,1.1-0.2,1.3-0.5s0.4-0.8,0.4-1.5v-3.3h1.9c0,1.6,0,2.7,0,3.3c0,0.6-0.1,1-0.2,1.3
		c-0.1,0.3-0.3,0.5-0.6,0.6v0.2h6.4v2.3h-5.5v8.1c0,1.5,0.3,2.5,0.8,3.2s1.3,1,2.3,1c1,0,1.8-0.2,2.3-0.7c0.5-0.5,0.8-1.2,0.8-2.2
		c0-0.2,0-0.3,0-0.4l1.5,0C62.3,269.4,62.3,269.7,62.3,270z"/>
	<path class="st0" d="M66.2,266.8c0,1.9,0.4,3.3,1.2,4.2c0.8,0.9,2,1.4,3.5,1.4c1,0,2-0.3,2.9-0.8c0.9-0.5,1.6-1.3,2.1-2.3
		c0.5-1,0.8-2.2,0.8-3.6v-7.7h2.1v16.4h-2.4l0.6-6h-0.1c-0.9,4.3-3.2,6.5-6.7,6.5c-2.1,0-3.7-0.7-4.6-2c-1-1.3-1.4-3.2-1.4-5.6v-9.3
		h2.1V266.8z"/>
	<path class="st0" d="M82,257.9h2.4l-0.6,6.4H84c0.3-2.1,1-3.8,2-5s2.3-1.9,3.9-1.9c0.9,0,1.7,0.2,2.4,0.6c0.6,0.4,1.1,0.9,1.5,1.6
		c0.3,0.7,0.5,1.4,0.5,2.3c0,1.2-0.3,2.4-0.8,3.6H92c0.4-0.9,0.6-1.7,0.6-2.5c0-0.9-0.3-1.6-0.8-2.2c-0.5-0.5-1.3-0.8-2.3-0.8
		c-1.2,0-2.2,0.4-3,1.1c-0.8,0.7-1.4,1.6-1.7,2.7c-0.4,1.1-0.5,2.1-0.5,3.1v7.4H82V257.9z"/>
	<path class="st0" d="M98.5,257.9l-0.5,6h0.1c0.4-2.1,1.2-3.7,2.3-4.8c1.1-1.1,2.4-1.7,3.9-1.7c1.6,0,2.7,0.6,3.5,1.7
		c0.8,1.1,1.2,2.7,1.2,4.8h0.1c0.4-2.2,1.2-3.8,2.3-4.9c1.1-1.1,2.4-1.6,4-1.6c1.9,0,3.2,0.6,4,1.9c0.8,1.3,1.1,3.1,1.1,5.5v9.5
		h-2.1v-9.1c0-1.3-0.1-2.3-0.4-3.1s-0.7-1.3-1.3-1.7c-0.6-0.3-1.3-0.5-2.1-0.5c-0.9,0-1.7,0.2-2.5,0.7c-0.8,0.5-1.4,1.2-1.9,2.1
		s-0.8,2.1-0.8,3.4v8.2h-2.1v-9c0-1.9-0.3-3.3-0.9-4.2s-1.6-1.3-2.8-1.3c-0.9,0-1.7,0.3-2.5,0.8s-1.5,1.3-2,2.3
		c-0.5,1-0.8,2.2-0.8,3.4v7.9h-2.1v-16.4H98.5z"/>
	<path class="st0" d="M139.4,272.2v2.2c-0.2,0.1-0.5,0.2-0.8,0.3s-0.6,0.1-1,0.1c-0.5,0-0.9-0.1-1.2-0.3c-0.3-0.2-0.5-0.5-0.6-1
		s-0.2-1.1-0.2-1.9c0-0.7,0.1-1.7,0.2-3h-0.1c-0.5,2-1.4,3.6-2.8,4.7c-1.4,1.1-3,1.6-4.9,1.6c-0.9,0-1.8-0.2-2.6-0.5
		c-0.8-0.3-1.4-0.8-1.9-1.5c-0.5-0.7-0.7-1.5-0.7-2.5c0-1.8,1-3.2,2.9-4c1.9-0.8,4.7-1.2,8.4-1.2c0.6,0,1,0,1.3,0v-1
		c0-3-1.6-4.5-4.8-4.5c-0.8,0-1.6,0.1-2.3,0.4c-0.7,0.3-1.3,0.7-1.8,1.2s-0.7,1.2-0.7,1.9c0,0.4,0.1,0.8,0.2,1.2l-1.4-0.2
		c-0.3-0.7-0.4-1.3-0.4-1.9c0-1,0.3-1.8,0.8-2.6c0.6-0.8,1.3-1.4,2.3-1.8s2.1-0.6,3.4-0.6c2.1,0,3.8,0.6,5,1.7s1.8,2.8,1.8,5v6.5
		c0,0.6,0.1,1.1,0.2,1.4s0.3,0.4,0.6,0.4C138.8,272.4,139.1,272.3,139.4,272.2z M132.1,271.8c1-0.5,1.8-1.2,2.4-2.1
		c0.6-1,0.9-2.1,0.9-3.5V266c-0.3,0-0.6,0-1.1,0c-3.1,0-5.5,0.3-7.1,1c-1.6,0.6-2.4,1.6-2.4,2.8c0,0.9,0.4,1.5,1.1,2
		c0.7,0.5,1.6,0.7,2.8,0.7C130,272.5,131.1,272.3,132.1,271.8z"/>
	<path class="st0" d="M160.4,271.6c1.8,0.3,3.1,0.7,3.8,1.3s1,1.4,1,2.4c0,1-0.3,1.9-1,2.7c-0.7,0.8-1.6,1.4-2.8,1.8
		c-1.2,0.4-2.4,0.7-3.8,0.7c-1.4,0-2.6-0.2-3.6-0.5c-1.1-0.3-1.9-0.8-2.5-1.5c-0.6-0.6-0.9-1.4-0.9-2.3c0-1.1,0.5-2.3,1.4-3.6H150
		c-0.3-0.4-0.4-0.9-0.4-1.3c0-0.5,0.2-1,0.6-1.5c0.4-0.5,1-0.8,1.8-1.1c0.8-0.3,1.6-0.4,2.6-0.5c-1.2-0.4-2.2-1-2.9-1.9s-1-2-1-3.3
		c0-1.8,0.6-3.1,1.8-4.1c1.2-0.9,2.8-1.4,4.9-1.4c1.4,0,2.6,0.2,3.7,0.7c-0.3-0.6-0.4-1.1-0.4-1.6c0-0.5,0.1-1,0.3-1.4
		c0.2-0.4,0.5-0.8,0.9-1c0.4-0.3,0.9-0.4,1.4-0.4c0.5,0,1,0.1,1.5,0.3l-0.2,2.1c-0.3-0.1-0.6-0.2-1-0.2c-0.5,0-0.9,0.1-1.2,0.4
		c-0.3,0.3-0.5,0.7-0.5,1.1c0,0.5,0.1,0.9,0.2,1.3c0.6,0.5,1.1,1,1.5,1.7c0.3,0.7,0.5,1.5,0.5,2.4c0,1.2-0.3,2.2-0.9,3.1
		c-0.6,0.8-1.4,1.5-2.4,1.9c-1,0.4-2.2,0.6-3.5,0.6c-1.3,0-2.3,0.1-3.2,0.3c-0.9,0.2-1.6,0.5-2,0.9s-0.7,0.7-0.7,1.1
		c0,0.2,0.1,0.3,0.2,0.4c0.1,0.1,0.4,0.1,0.9,0.1C155.9,271.2,158.6,271.3,160.4,271.6z M160.3,277.6c0.9-0.3,1.6-0.6,2.1-1.1
		c0.5-0.5,0.8-1.1,0.8-1.7c0-0.7-0.3-1.2-1-1.6s-1.7-0.6-3.1-0.7c-1.4-0.1-3.5-0.2-6.3-0.2c-0.8,1.2-1.2,2.3-1.2,3.1
		c0,1.8,1.9,2.7,5.7,2.7C158.3,278,159.4,277.9,160.3,277.6z M153,265c0.4,0.6,0.9,1.1,1.6,1.4c0.7,0.4,1.6,0.5,2.6,0.5
		c1,0,1.9-0.2,2.7-0.5c0.7-0.4,1.3-0.8,1.7-1.4c0.4-0.6,0.6-1.2,0.6-1.9c0-0.6-0.2-1.2-0.5-1.8c-0.4-0.6-0.9-1-1.6-1.3
		c-0.7-0.3-1.6-0.5-2.7-0.5c-1.1,0-2,0.2-2.7,0.5c-0.7,0.3-1.3,0.8-1.6,1.3c-0.3,0.5-0.5,1.1-0.5,1.8
		C152.4,263.8,152.6,264.4,153,265z"/>
	<path class="st0" d="M167,257.9h2.4l-0.6,6.4h0.1c0.3-2.1,1-3.8,2-5s2.3-1.9,3.9-1.9c0.9,0,1.7,0.2,2.4,0.6
		c0.6,0.4,1.1,0.9,1.5,1.6c0.3,0.7,0.5,1.4,0.5,2.3c0,1.2-0.3,2.4-0.8,3.6h-1.4c0.4-0.9,0.6-1.7,0.6-2.5c0-0.9-0.3-1.6-0.8-2.2
		s-1.3-0.8-2.3-0.8c-1.2,0-2.2,0.4-3,1.1c-0.8,0.7-1.4,1.6-1.7,2.7c-0.4,1.1-0.5,2.1-0.5,3.1v7.4H167V257.9z"/>
	<path class="st0" d="M196.8,272.2v2.2c-0.2,0.1-0.5,0.2-0.8,0.3c-0.3,0.1-0.6,0.1-1,0.1c-0.5,0-0.9-0.1-1.2-0.3
		c-0.3-0.2-0.5-0.5-0.6-1c-0.1-0.5-0.2-1.1-0.2-1.9c0-0.7,0.1-1.7,0.2-3h-0.1c-0.5,2-1.4,3.6-2.8,4.7c-1.4,1.1-3,1.6-4.9,1.6
		c-0.9,0-1.8-0.2-2.6-0.5s-1.4-0.8-1.9-1.5c-0.5-0.7-0.7-1.5-0.7-2.5c0-1.8,1-3.2,2.9-4c1.9-0.8,4.7-1.2,8.4-1.2c0.6,0,1,0,1.3,0v-1
		c0-3-1.6-4.5-4.8-4.5c-0.8,0-1.6,0.1-2.3,0.4c-0.7,0.3-1.3,0.7-1.8,1.2s-0.7,1.2-0.7,1.9c0,0.4,0.1,0.8,0.2,1.2l-1.4-0.2
		c-0.3-0.7-0.4-1.3-0.4-1.9c0-1,0.3-1.8,0.8-2.6c0.6-0.8,1.3-1.4,2.3-1.8c1-0.4,2.1-0.6,3.4-0.6c2.1,0,3.8,0.6,5,1.7
		c1.2,1.1,1.8,2.8,1.8,5v6.5c0,0.6,0.1,1.1,0.2,1.4c0.1,0.3,0.3,0.4,0.6,0.4C196.2,272.4,196.5,272.3,196.8,272.2z M189.5,271.8
		c1-0.5,1.8-1.2,2.4-2.1c0.6-1,0.9-2.1,0.9-3.5V266c-0.3,0-0.6,0-1.1,0c-3.1,0-5.5,0.3-7.1,1c-1.6,0.6-2.4,1.6-2.4,2.8
		c0,0.9,0.4,1.5,1.1,2c0.7,0.5,1.6,0.7,2.8,0.7C187.3,272.5,188.5,272.3,189.5,271.8z"/>
	<path class="st0" d="M205.7,256.5c0.1-0.4,0.1-0.7,0.1-1c0-0.8-0.3-1.5-0.9-2s-1.4-0.7-2.4-0.7c-1.1,0-1.9,0.2-2.5,0.7
		c-0.6,0.4-0.9,1.1-0.9,1.9c0,1,0.4,1.9,1.3,2.6h6.1v2.3h-4.7v14.1h-2.2v-14.1h-2v-2.3h1.5c-0.5-0.4-0.8-0.8-1.1-1.3
		c-0.3-0.5-0.4-1.1-0.4-1.7c0-0.9,0.2-1.7,0.6-2.3s1-1.2,1.7-1.6c0.7-0.4,1.6-0.6,2.5-0.6c1,0,1.9,0.2,2.6,0.6
		c0.7,0.4,1.3,0.9,1.6,1.6c0.4,0.7,0.6,1.4,0.6,2.3c0,0.4-0.1,0.9-0.2,1.5L205.7,256.5z"/>
	<path class="st0" d="M224.7,272.2v2.2c-0.2,0.1-0.5,0.2-0.8,0.3c-0.3,0.1-0.6,0.1-1,0.1c-0.5,0-0.9-0.1-1.2-0.3
		c-0.3-0.2-0.5-0.5-0.6-1c-0.1-0.5-0.2-1.1-0.2-1.9c0-0.7,0.1-1.7,0.2-3h-0.1c-0.5,2-1.4,3.6-2.8,4.7c-1.4,1.1-3,1.6-4.9,1.6
		c-0.9,0-1.8-0.2-2.6-0.5s-1.4-0.8-1.9-1.5c-0.5-0.7-0.7-1.5-0.7-2.5c0-1.8,1-3.2,2.9-4c1.9-0.8,4.7-1.2,8.4-1.2c0.6,0,1,0,1.3,0v-1
		c0-3-1.6-4.5-4.8-4.5c-0.8,0-1.6,0.1-2.3,0.4c-0.7,0.3-1.3,0.7-1.8,1.2s-0.7,1.2-0.7,1.9c0,0.4,0.1,0.8,0.2,1.2l-1.4-0.2
		c-0.3-0.7-0.4-1.3-0.4-1.9c0-1,0.3-1.8,0.8-2.6c0.6-0.8,1.3-1.4,2.3-1.8c1-0.4,2.1-0.6,3.4-0.6c2.1,0,3.8,0.6,5,1.7
		c1.2,1.1,1.8,2.8,1.8,5v6.5c0,0.6,0.1,1.1,0.2,1.4s0.3,0.4,0.6,0.4C224,272.4,224.4,272.3,224.7,272.2z M217.3,271.8
		c1-0.5,1.8-1.2,2.4-2.1c0.6-1,0.9-2.1,0.9-3.5V266c-0.3,0-0.6,0-1.1,0c-3.1,0-5.5,0.3-7.1,1c-1.6,0.6-2.4,1.6-2.4,2.8
		c0,0.9,0.4,1.5,1.1,2c0.7,0.5,1.6,0.7,2.8,0.7C215.2,272.5,216.3,272.3,217.3,271.8z"/>
	<path class="st0" d="M238.2,270c0,0.9-0.2,1.8-0.6,2.5c-0.4,0.7-0.9,1.3-1.7,1.7c-0.7,0.4-1.6,0.6-2.7,0.6c-1.8,0-3-0.5-3.8-1.6
		s-1.1-2.6-1.1-4.5v-8.4h-3v-2.3h1.6c0.6,0,1.1-0.2,1.3-0.5c0.3-0.3,0.4-0.8,0.4-1.5v-3.3h1.9c0,1.6,0,2.7,0,3.3
		c0,0.6-0.1,1-0.2,1.3c-0.1,0.3-0.3,0.5-0.6,0.6v0.2h6.4v2.3h-5.5v8.1c0,1.5,0.3,2.5,0.8,3.2c0.5,0.6,1.3,1,2.3,1s1.8-0.2,2.3-0.7
		c0.5-0.5,0.8-1.2,0.8-2.2c0-0.2,0-0.3,0-0.4l1.5,0C238.2,269.4,238.2,269.7,238.2,270z"/>
	<path class="st0" d="M242.8,273.7c-1.2-0.7-2.1-1.7-2.7-3c-0.6-1.3-0.9-2.8-0.9-4.6c0-1.8,0.3-3.3,1-4.6c0.6-1.3,1.6-2.3,2.8-3
		c1.2-0.7,2.6-1.1,4.3-1.1c1.6,0,3.1,0.4,4.3,1.1c1.2,0.7,2.1,1.7,2.7,3c0.6,1.3,0.9,2.8,0.9,4.6s-0.3,3.3-1,4.6
		c-0.6,1.3-1.6,2.3-2.8,3c-1.2,0.7-2.6,1.1-4.3,1.1C245.4,274.8,244,274.4,242.8,273.7z M250.3,271.7c0.9-0.5,1.6-1.3,2.1-2.2
		c0.5-1,0.7-2.1,0.7-3.4c0-1.3-0.3-2.4-0.8-3.4c-0.5-0.9-1.2-1.7-2.1-2.2c-0.9-0.5-2-0.8-3.2-0.8c-1.2,0-2.3,0.3-3.2,0.8
		c-0.9,0.5-1.6,1.2-2.1,2.2s-0.7,2.1-0.7,3.4c0,1.3,0.3,2.4,0.8,3.4c0.5,1,1.2,1.7,2.1,2.2s2,0.8,3.2,0.8
		C248.3,272.4,249.4,272.2,250.3,271.7z M246.6,252.9c0.8-0.7,1.7-1.4,2.8-2.2l1.2,1.7l-5.9,3.1l-0.3-0.5
		C245.1,254.2,245.8,253.5,246.6,252.9z"/>
	<path class="st0" d="M257.4,257.9h2.4l-0.6,6.4h0.1c0.3-2.1,1-3.8,2-5c1-1.3,2.3-1.9,3.9-1.9c0.9,0,1.7,0.2,2.4,0.6
		c0.6,0.4,1.1,0.9,1.5,1.6c0.3,0.7,0.5,1.4,0.5,2.3c0,1.2-0.3,2.4-0.8,3.6h-1.4c0.4-0.9,0.6-1.7,0.6-2.5c0-0.9-0.3-1.6-0.8-2.2
		c-0.5-0.5-1.3-0.8-2.3-0.8c-1.2,0-2.2,0.4-3,1.1c-0.8,0.7-1.4,1.6-1.7,2.7c-0.4,1.1-0.5,2.1-0.5,3.1v7.4h-2.1V257.9z"/>
	<path class="st0" d="M271.3,255.3c-0.3-0.3-0.5-0.7-0.5-1.2c0-0.5,0.2-0.9,0.5-1.2c0.3-0.3,0.8-0.4,1.4-0.4c0.6,0,1,0.1,1.3,0.4
		c0.3,0.3,0.5,0.7,0.5,1.2c0,0.5-0.2,1-0.5,1.2c-0.3,0.3-0.8,0.4-1.3,0.4C272,255.7,271.6,255.6,271.3,255.3z M272.6,258
		c0.4,0,0.7,0,1.1-0.1v16.4h-2.2v-16.4C271.9,258,272.3,258,272.6,258z"/>
	<path class="st0" d="M279.8,273.7c-1.2-0.7-2.1-1.7-2.7-3s-0.9-2.8-0.9-4.6c0-1.8,0.3-3.3,1-4.6c0.6-1.3,1.6-2.3,2.8-3
		s2.6-1.1,4.3-1.1c1.6,0,3.1,0.4,4.3,1.1c1.2,0.7,2.1,1.7,2.7,3c0.6,1.3,0.9,2.8,0.9,4.6s-0.3,3.3-1,4.6c-0.6,1.3-1.6,2.3-2.8,3
		c-1.2,0.7-2.6,1.1-4.3,1.1C282.4,274.8,281,274.4,279.8,273.7z M287.3,271.7c0.9-0.5,1.6-1.3,2.1-2.2c0.5-1,0.7-2.1,0.7-3.4
		c0-1.3-0.3-2.4-0.8-3.4c-0.5-0.9-1.2-1.7-2.1-2.2c-0.9-0.5-2-0.8-3.2-0.8c-1.2,0-2.3,0.3-3.2,0.8c-0.9,0.5-1.6,1.2-2.1,2.2
		s-0.7,2.1-0.7,3.4c0,1.3,0.3,2.4,0.8,3.4s1.2,1.7,2.1,2.2s2,0.8,3.2,0.8C285.3,272.4,286.4,272.2,287.3,271.7z"/>
</g>
</svg>
