<?xml version="1.0" encoding="utf-8"?>
<!-- Generator: Adobe Illustrator 24.1.0, SVG Export Plug-In . SVG Version: 6.00 Build 0)  -->
<svg version="1.1" id="Layer_1" xmlns="http://www.w3.org/2000/svg" xmlns:xlink="http://www.w3.org/1999/xlink" x="0px" y="0px"
	 viewBox="0 0 1080 1350" style="enable-background:new 0 0 1080 1350;" xml:space="preserve">
<style type="text/css">
	.st0{fill:#FFFFFF;}
</style>
<g>
	<path class="st0" d="M82.7,125.9c0.2-1.8,0.6-3.4,1.2-4.7c1.6-3.2,4.3-4.7,8.3-4.7h6.3v-12.6h6.3V148h-4.7l-1.6-4.7
		c0,2.9-1.6,4.5-4.7,4.7h-1.6c-3.9,0-6.7-1.6-8.3-4.7c-0.6-1.3-1-2.9-1.2-4.7L82.7,125.9L82.7,125.9z M89.1,124.3v15.8
		c0,1.9,1.1,3,3.2,3.2h3.2c1.9,0,3-1.1,3.2-3.2v-18.9h-6.3C90.3,121.1,89.2,122.2,89.1,124.3z"/>
	<path class="st0" d="M136.4,133.8h-15.8v6.3c0,1.9,1.1,3,3.2,3.2h3.2c1.9,0,3-1.1,3.2-3.2v-1.6h6.3c0,3.9-1.6,6.7-4.7,8.3
		c-1.3,0.7-2.9,1.1-4.7,1.2h-3.2c-3.9,0-6.7-1.6-8.3-4.7c-0.6-1.3-1-2.9-1.2-4.7V126c0-3.9,1.6-6.7,4.7-8.3c1.3-0.6,2.9-1,4.7-1.2
		h3.2c3.9,0,6.7,1.6,8.3,4.7c0.6,1.3,1,2.9,1.2,4.7L136.4,133.8L136.4,133.8z M120.6,124.3v4.7h9.5v-4.7c-0.2-2.1-1.2-3.2-3.2-3.2
		h-3.2C121.8,121.1,120.8,122.2,120.6,124.3z"/>
	<path class="st0" d="M158.5,143.3c2.1-0.2,3.2-1.2,3.2-3.2v-1.6c-0.2-2.1-1.2-3.2-3.2-3.2h-3.2c-3.9,0-6.7-1.6-8.3-4.7
		c-0.6-1.3-1-2.9-1.2-4.7c0.1-1.8,0.5-3.4,1.2-4.7c1.6-3.2,4.3-4.7,8.3-4.7h11.1v4.7h-11.1c-2.1,0.2-3.2,1.2-3.2,3.2v1.6
		c0.2,2.1,1.2,3.2,3.2,3.2h3.2c3.9,0,6.7,1.6,8.3,4.7c0.6,1.3,1,2.9,1.2,4.7c-0.2,1.8-0.6,3.4-1.2,4.7c-1.6,3.2-4.3,4.7-8.3,4.7
		h-11.1v-4.7H158.5z"/>
	<path class="st0" d="M199.6,133.8h-15.8v6.3c0,1.9,1.1,3,3.2,3.2h3.2c1.9,0,3-1.1,3.2-3.2v-1.6h6.3c0,3.9-1.6,6.7-4.7,8.3
		c-1.3,0.7-2.9,1.1-4.7,1.2h-3.2c-3.9,0-6.7-1.6-8.3-4.7c-0.6-1.3-1-2.9-1.2-4.7V126c0-3.9,1.6-6.7,4.7-8.3c1.3-0.6,2.9-1,4.7-1.2
		h3.2c3.9,0,6.7,1.6,8.3,4.7c0.6,1.3,1,2.9,1.2,4.7L199.6,133.8L199.6,133.8z M183.8,124.3v4.7h9.5v-4.7c-0.2-2.1-1.2-3.2-3.2-3.2
		h-3.2C185,121.1,183.9,122.2,183.8,124.3z"/>
	<path class="st0" d="M221.7,116.4c3.9,0,6.7,1.6,8.3,4.7c0.6,1.3,1,2.9,1.2,4.7V148h-6.3v-23.7c0-1.9-1.1-3-3.2-3.2h-3.2
		c-1.9,0-3,1.1-3.2,3.2V148H209v-31.6h4.7l1.6,4.7c0-2.9,1.6-4.5,4.7-4.7H221.7z"/>
	<path class="st0" d="M253.3,116.4c3.9,0,6.7,1.6,8.3,4.7c0.6,1.3,1,2.9,1.2,4.7V148h-6.3v-23.7c0-1.9-1.1-3-3.2-3.2h-3.2
		c-1.9,0-3,1.1-3.2,3.2V148h-6.3v-44.2h6.3v17.4c0-2.9,1.6-4.5,4.7-4.7h1.7V116.4z"/>
	<path class="st0" d="M284.8,116.4c3.9,0,6.7,1.6,8.3,4.7c0.6,1.3,1,2.9,1.2,4.7V148h-4.7l-1.6-4.7c-0.2,3.2-1.8,4.7-4.7,4.7h-1.6
		c-3.9,0-6.7-1.6-8.3-4.7c-0.6-1.3-1-2.9-1.2-4.7c0.2-1.8,0.6-3.4,1.2-4.7c1.6-3.2,4.3-4.7,8.3-4.7h6.3v-4.7
		c-0.2-2.1-1.2-3.2-3.2-3.2h-11.1v-4.7h11.1V116.4z M278.5,140.1c0,1.9,1.1,3,3.2,3.2h3.2c1.9,0,3-1.1,3.2-3.2v-6.3h-6.3
		c-1.9,0-3,1.1-3.2,3.2v3.1H278.5z"/>
	<path class="st0" d="M316.4,116.4c3.9,0,6.7,1.6,8.3,4.7c0.6,1.3,1,2.9,1.2,4.7V148h-6.3v-23.7c0-1.9-1.1-3-3.2-3.2h-3.2
		c-1.9,0-3,1.1-3.2,3.2V148h-6.3v-31.6h4.7l1.6,4.7c0-2.9,1.6-4.5,4.7-4.7H316.4z"/>
	<path class="st0" d="M335.4,125.9c0.2-1.8,0.6-3.4,1.2-4.7c1.6-3.2,4.3-4.7,8.3-4.7h6.3v-12.6h6.3V148h-4.7l-1.6-4.7
		c0,2.9-1.6,4.5-4.7,4.7h-1.6c-3.9,0-6.7-1.6-8.3-4.7c-0.6-1.3-1-2.9-1.2-4.7L335.4,125.9L335.4,125.9z M341.7,124.3v15.8
		c0,1.9,1.1,3,3.2,3.2h3.2c1.9,0,3-1.1,3.2-3.2v-18.9H345C342.9,121.1,341.8,122.2,341.7,124.3z"/>
	<path class="st0" d="M379.6,116.4c3.9,0,6.7,1.6,8.3,4.7c0.6,1.3,1,2.9,1.2,4.7v12.6c0,3.9-1.6,6.7-4.7,8.3c-1.3,0.6-2.9,1-4.7,1.2
		h-3.2c-3.9,0-6.7-1.6-8.3-4.7c-0.6-1.3-1-2.9-1.2-4.7v-12.6c0-3.9,1.6-6.7,4.7-8.3c1.3-0.7,2.9-1.1,4.7-1.2H379.6z M382.7,140.1
		v-15.8c0-1.9-1.1-3-3.2-3.2h-3.2c-1.9,0-3,1.1-3.2,3.2v15.8c0,1.9,1.1,3,3.2,3.2h3.2C381.5,143.3,382.6,142.2,382.7,140.1z"/>
</g>
<g>
	<path class="st0" d="M672.9,144.3H690v3.3h-17.1V144.3z"/>
	<path class="st0" d="M707.1,128.9h-6.6V142c0.1,1.5,0.7,2.2,1.9,2.2h4.7v3.3h-4.7c-1.1-0.1-2.1-0.4-2.8-0.8c-1.9-1.1-2.8-3-2.8-5.7
		v-12H694v-3.3h2.8v-4.3h3.8v4.3h6.6v3.2H707.1z"/>
	<path class="st0" d="M718.4,147.5c-2.4,0-4-1.1-5-3.3c-0.4-0.9-0.6-2-0.7-3.3v-15.3h3.8V142c0,1.3,0.6,2.1,1.9,2.2h1.9
		c1.2,0,1.8-0.7,1.9-2.2v-16.4h3.8v21.9h-2.8l-0.9-3.3c0,2-0.9,3.1-2.8,3.3L718.4,147.5L718.4,147.5z"/>
	<path class="st0" d="M739.3,125.7c2.4,0,4,1.1,5,3.3c0.4,0.9,0.6,2,0.7,3.3v4.4h-3.8v-5.5c0-1.3-0.6-2.1-1.9-2.2h-1.9
		c-1.2,0-1.8,0.7-1.9,2.2v16.4h-3.8v-21.9h2.8l0.9,3.3c0-2,0.9-3.1,2.8-3.3L739.3,125.7L739.3,125.7z"/>
	<path class="st0" d="M761.3,125.7c2.4,0.2,3.6,1.5,3.6,3.8v18h-3v-17c0-1-0.5-1.6-1.5-1.6c-1,0.1-1.5,0.6-1.5,1.6v17h-3v-17
		c0-1-0.5-1.6-1.5-1.6c-1,0.1-1.5,0.6-1.5,1.6v17h-3v-21.9h2l1,2.7c0.1-1.8,1-2.7,2.5-2.7c1.6,0,2.7,0.7,3.2,2.1
		C759,126.4,759.9,125.7,761.3,125.7z"/>
	<path class="st0" d="M777.2,125.7c2.4,0,4,1.1,5,3.3c0.4,0.9,0.6,2,0.7,3.3v15.3H780l-0.9-3.3c-0.1,2.2-1.1,3.3-2.8,3.3h-0.9
		c-2.4,0-4-1.1-5-3.3c-0.4-0.9-0.6-2-0.7-3.3c0.1-1.3,0.3-2.4,0.7-3.3c0.9-2.2,2.6-3.3,5-3.3h3.8v-3.3c-0.1-1.5-0.7-2.2-1.9-2.2
		h-6.6v-3.3h6.5V125.7z M773.4,142.1c0,1.3,0.6,2.1,1.9,2.2h1.9c1.2,0,1.8-0.7,1.9-2.2v-4.4h-3.8c-1.2,0-1.8,0.7-1.9,2.2
		L773.4,142.1L773.4,142.1z"/>
	<path class="st0" d="M813.2,125.7h7.6v24.1c-0.1,1.3-0.3,2.4-0.7,3.3c-0.9,2.2-2.6,3.3-5,3.3h-6.6V153h6.6c1.3-0.1,1.9-0.8,1.9-2.2
		v-6.6c0,2-0.9,3.1-2.8,3.3h-0.9c-2.4,0-4-1.1-5-3.3c-0.4-0.9-0.6-2-0.7-3.3v-8.8c0.1-1.3,0.3-2.4,0.7-3.3
		C809.1,126.8,810.8,125.7,813.2,125.7z M816.9,142.1V129h-3.8c-1.2,0-1.8,0.7-1.9,2.2v10.9c0,1.3,0.6,2.1,1.9,2.2h1.9
		C816.2,144.3,816.8,143.5,816.9,142.1z"/>
	<path class="st0" d="M834,125.7c2.4,0,4,1.1,5,3.3c0.4,0.9,0.6,2,0.7,3.3v4.4h-3.8v-5.5c0-1.3-0.6-2.1-1.9-2.2h-1.9
		c-1.2,0-1.8,0.7-1.9,2.2v16.4h-3.8v-21.9h2.8l0.9,3.3c0-2,0.9-3.1,2.8-3.3L834,125.7L834,125.7z"/>
	<path class="st0" d="M852.9,125.7c2.4,0,4,1.1,5,3.3c0.4,0.9,0.6,2,0.7,3.3v15.3h-2.8l-0.9-3.3c-0.1,2.2-1.1,3.3-2.8,3.3H851
		c-2.4,0-4-1.1-5-3.3c-0.4-0.9-0.6-2-0.7-3.3c0.1-1.3,0.3-2.4,0.7-3.3c0.9-2.2,2.6-3.3,5-3.3h3.8v-3.3c-0.1-1.5-0.7-2.2-1.9-2.2
		h-6.6v-3.3h6.6V125.7z M849.2,142.1c0,1.3,0.6,2.1,1.9,2.2h1.9c1.2,0,1.8-0.7,1.9-2.2v-4.4H851c-1.2,0-1.8,0.7-1.9,2.2v2.2H849.2z"
		/>
	<path class="st0" d="M873.8,120.2c-1.2,0-1.8,0.7-1.9,2.2v4.4h4.7v3.3h-4.7v14.2h5.7v3.3h-13.3v-3.3h3.8V130h-2.8v-3.3h2.8v-3.3
		c0-2.7,0.9-4.6,2.8-5.7c0.8-0.5,1.7-0.7,2.8-0.8h3.8v3.3H873.8z"/>
	<path class="st0" d="M890.8,125.7c2.4,0,4,1.1,5,3.3c0.4,0.9,0.6,2,0.7,3.3v15.3h-2.8l-0.9-3.3c-0.1,2.2-1.1,3.3-2.8,3.3h-0.9
		c-2.4,0-4-1.1-5-3.3c-0.4-0.9-0.6-2-0.7-3.3c0.1-1.3,0.3-2.4,0.7-3.3c0.9-2.2,2.6-3.3,5-3.3h3.8v-3.3c-0.1-1.5-0.7-2.2-1.9-2.2
		h-6.6v-3.3h6.4V125.7z M887,142.1c0,1.3,0.6,2.1,1.9,2.2h1.9c1.2,0,1.8-0.7,1.9-2.2v-4.4h-3.8c-1.2,0-1.8,0.7-1.9,2.2L887,142.1
		L887,142.1z"/>
	<path class="st0" d="M915.5,128.9h-6.6V142c0.1,1.5,0.7,2.2,1.9,2.2h4.7v3.3h-4.7c-1.1-0.1-2.1-0.4-2.8-0.8c-1.9-1.1-2.8-3-2.8-5.7
		v-12h-2.8v-3.3h2.8v-4.3h3.8v4.3h6.6v3.2H915.5z"/>
	<path class="st0" d="M928.7,125.7c2.4,0,4,1.1,5,3.3c0.4,0.9,0.6,2,0.7,3.3v8.8c0,2.7-0.9,4.6-2.8,5.7c-0.8,0.4-1.7,0.7-2.8,0.8
		h-1.9c-2.4,0-4-1.1-5-3.3c-0.4-0.9-0.6-2-0.7-3.3v-8.8c0-2.7,0.9-4.6,2.8-5.7c0.8-0.5,1.7-0.7,2.8-0.8H928.7z M930.6,142.1v-10.9
		c0-1.3-0.6-2.1-1.9-2.2h-1.9c-1.2,0-1.8,0.7-1.9,2.2v10.9c0,1.3,0.6,2.1,1.9,2.2h1.9C929.9,144.3,930.5,143.5,930.6,142.1z
		 M931.1,116.9l-1.9,6.6h-2.8l1.9-6.6H931.1z"/>
	<path class="st0" d="M947.7,125.7c2.4,0,4,1.1,5,3.3c0.4,0.9,0.6,2,0.7,3.3v4.4h-3.8v-5.5c0-1.3-0.6-2.1-1.9-2.2h-1.9
		c-1.2,0-1.8,0.7-1.9,2.2v16.4h-3.8v-21.9h2.8l0.9,3.3c0-2,0.9-3.1,2.8-3.3L947.7,125.7L947.7,125.7z"/>
	<path class="st0" d="M967.6,144.3h4.7v3.3H959v-3.3h4.7V129H960v-3.3h7.6V144.3z M967.6,116.9v4.4h-3.8v-4.4H967.6z"/>
	<path class="st0" d="M985.6,125.7c2.4,0,4,1.1,5,3.3c0.4,0.9,0.6,2,0.7,3.3v8.8c0,2.7-0.9,4.6-2.8,5.7c-0.8,0.4-1.7,0.7-2.8,0.8
		h-1.9c-2.4,0-4-1.1-5-3.3c-0.4-0.9-0.6-2-0.7-3.3v-8.8c0-2.7,0.9-4.6,2.8-5.7c0.8-0.5,1.7-0.7,2.8-0.8H985.6z M987.5,142.1v-10.9
		c0-1.3-0.6-2.1-1.9-2.2h-1.9c-1.2,0-1.8,0.7-1.9,2.2v10.9c0,1.3,0.6,2.1,1.9,2.2h1.9C986.7,144.3,987.4,143.5,987.5,142.1z"/>
</g>
<g>
	<path class="st0" d="M750.3,1250c3.2,0.2,4.7,1.8,4.7,4.7v9.5c-0.2,3.2-1.8,4.7-4.7,4.7h-2.8l-0.9-1.9c-0.1,1.3-0.7,1.9-1.9,1.9
		c-2.9,0-4.5-1.6-4.7-4.7v-3.8c0.2-3.2,1.8-4.7,4.7-4.7h4.7v10.4h0.9c1.3-0.1,1.9-0.7,1.9-1.9v-9.5c-0.1-1.3-0.7-1.9-1.9-1.9h-10.4
		v-2.8L750.3,1250L750.3,1250z M746.5,1265.2v-6.6h-1.9c-1.2,0-1.8,0.6-1.9,1.9v3.8c0,1.2,0.6,1.8,1.9,1.9h0.9
		C746.1,1266.1,746.5,1265.8,746.5,1265.2z"/>
	<path class="st0" d="M773.1,1255.7v0.9h-3.8v-1.9c0-1.2-0.6-1.8-1.9-1.9h-1.9c-1.2,0-1.8,0.6-1.9,1.9v9.5c0,1.2,0.6,1.8,1.9,1.9
		h1.9c1.2,0,1.8-0.6,1.9-1.9v-1.9h3.8v0.9c0,2.4-0.9,4-2.8,5c-0.8,0.4-1.7,0.6-2.8,0.7h-1.9c-2.4,0-4-0.9-5-2.8
		c-0.4-0.8-0.6-1.7-0.7-2.8v-7.6c0-2.4,0.9-4,2.8-5c0.8-0.4,1.7-0.6,2.8-0.7h1.9c2.4,0,4,0.9,5,2.8
		C772.7,1253.7,773,1254.6,773.1,1255.7z"/>
	<path class="st0" d="M792,1260.5h-9.5v3.8c0,1.2,0.6,1.8,1.9,1.9h1.9c1.2,0,1.8-0.6,1.9-1.9v-0.9h3.8c0,2.4-0.9,4-2.8,5
		c-0.8,0.4-1.7,0.6-2.8,0.7h-1.9c-2.4,0-4-0.9-5-2.8c-0.4-0.8-0.6-1.7-0.7-2.8v-7.6c0-2.4,0.9-4,2.8-5c0.8-0.4,1.7-0.6,2.8-0.7h1.9
		c2.4,0,4,0.9,5,2.8c0.4,0.8,0.6,1.7,0.7,2.8L792,1260.5L792,1260.5z M782.5,1254.8v2.8h5.7v-2.8c-0.1-1.3-0.7-1.9-1.9-1.9h-1.9
		C783.3,1252.9,782.6,1253.5,782.5,1254.8z"/>
	<path class="st0" d="M805.3,1266.1c1.3-0.1,1.9-0.7,1.9-1.9v-0.9c-0.1-1.3-0.7-1.9-1.9-1.9h-1.9c-2.4,0-4-0.9-5-2.8
		c-0.4-0.8-0.6-1.7-0.7-2.8c0.1-1.1,0.3-2.1,0.7-2.8c0.9-1.9,2.6-2.8,5-2.8h6.6v2.8h-6.6c-1.3,0.1-1.9,0.7-1.9,1.9v0.9
		c0.1,1.3,0.7,1.9,1.9,1.9h1.9c2.4,0,4,0.9,5,2.8c0.4,0.8,0.6,1.7,0.7,2.8c-0.1,1.1-0.3,2.1-0.7,2.8c-0.9,1.9-2.6,2.8-5,2.8h-6.6
		v-2.8H805.3z"/>
	<path class="st0" d="M824.2,1250c2.4,0,4,0.9,5,2.8c0.4,0.8,0.6,1.7,0.7,2.8v13.3h-2.8l-0.9-2.8c-0.1,1.9-1.1,2.8-2.8,2.8h-0.9
		c-2.4,0-4-0.9-5-2.8c-0.4-0.8-0.6-1.7-0.7-2.8c0.1-1.1,0.3-2.1,0.7-2.8c0.9-1.9,2.6-2.8,5-2.8h3.8v-2.8c-0.1-1.3-0.7-1.9-1.9-1.9
		h-6.6v-2.8h6.4V1250z M820.4,1264.3c0,1.2,0.6,1.8,1.9,1.9h1.9c1.2,0,1.8-0.6,1.9-1.9v-3.8h-3.8c-1.2,0-1.8,0.6-1.9,1.9
		L820.4,1264.3L820.4,1264.3z"/>
	<path class="st0" d="M843.2,1250c2.4,0,4,0.9,5,2.8c0.4,0.8,0.6,1.7,0.7,2.8v3.8h-3.8v-4.7c0-1.2-0.6-1.8-1.9-1.9h-1.9
		c-1.2,0-1.8,0.6-1.9,1.9v14.2h-3.8V1250h2.8l0.9,2.8c0-1.8,0.9-2.7,2.8-2.8H843.2z"/>
	<path class="st0" d="M860.2,1250h7.6v20.8c-0.1,1.1-0.3,2.1-0.7,2.8c-0.9,1.9-2.6,2.8-5,2.8h-6.6v-2.8h6.6c1.3-0.1,1.9-0.7,1.9-1.9
		v-5.7c0,1.8-0.9,2.7-2.8,2.8h-0.9c-2.4,0-4-0.9-5-2.8c-0.4-0.8-0.6-1.7-0.7-2.8v-7.6c0.1-1.1,0.3-2.1,0.7-2.8
		C856.2,1251,857.8,1250,860.2,1250z M864,1264.3v-11.4h-3.8c-1.2,0-1.8,0.6-1.9,1.9v9.5c0,1.2,0.6,1.8,1.9,1.9h1.9
		C863.3,1266.1,863.9,1265.5,864,1264.3z"/>
	<path class="st0" d="M881,1250c2.4,0,4,0.9,5,2.8c0.4,0.8,0.6,1.7,0.7,2.8v13.3h-2.8l-0.9-2.8c-0.1,1.9-1.1,2.8-2.8,2.8h-0.9
		c-2.4,0-4-0.9-5-2.8c-0.4-0.8-0.6-1.7-0.7-2.8c0.1-1.1,0.3-2.1,0.7-2.8c0.9-1.9,2.6-2.8,5-2.8h3.8v-2.8c-0.1-1.3-0.7-1.9-1.9-1.9
		h-6.6v-2.8h6.4V1250z M877.3,1264.3c0,1.2,0.6,1.8,1.9,1.9h1.9c1.2,0,1.8-0.6,1.9-1.9v-3.8h-3.8c-1.2,0-1.8,0.6-1.9,1.9
		L877.3,1264.3L877.3,1264.3z"/>
	<path class="st0" d="M900,1250c2.4,0,4,0.9,5,2.8c0.4,0.8,0.6,1.7,0.7,2.8v13.3h-3.8v-14.2c0-1.2-0.6-1.8-1.9-1.9h-1.9
		c-1.2,0-1.8,0.6-1.9,1.9v14.2h-3.8V1250h2.8l0.9,2.8c0-1.8,0.9-2.7,2.8-2.8H900z"/>
	<path class="st0" d="M919.9,1266.1h4.7v2.8h-13.3v-2.8h4.7v-13.3h-3.8v-2.8h7.6L919.9,1266.1L919.9,1266.1z M919.9,1242.5v3.8h-3.8
		v-3.8H919.9z"/>
	<path class="st0" d="M941,1250c2.4,0.2,3.6,1.3,3.6,3.3v15.6h-3v-14.7c0-0.9-0.5-1.4-1.5-1.4c-1,0.1-1.5,0.5-1.5,1.4v14.7h-3v-14.7
		c0-0.9-0.5-1.4-1.5-1.4c-1,0.1-1.5,0.5-1.5,1.4v14.7h-3V1250h2l1,2.4c0.1-1.6,1-2.4,2.5-2.4c1.6,0,2.7,0.6,3.2,1.8
		C938.6,1250.7,939.6,1250,941,1250z"/>
	<path class="st0" d="M957.8,1266.1h4.7v2.8h-13.3v-2.8h4.7v-13.3h-3.8v-2.8h7.6L957.8,1266.1L957.8,1266.1z M957.8,1242.5v3.8H954
		v-3.8H957.8z"/>
</g>
<g>
	<path class="st0" d="M104.8,191.9v1.6h-6.3v-3.2c0-1.9-1.1-3-3.2-3.2h-3.2c-1.9,0-3,1.1-3.2,3.2v15.8c0,1.9,1.1,3,3.2,3.2h3.2
		c1.9,0,3-1.1,3.2-3.2v-3.2h6.3v1.6c0,3.9-1.6,6.7-4.7,8.3c-1.3,0.7-2.9,1.1-4.7,1.2h-3.2c-3.9,0-6.7-1.6-8.3-4.7
		c-0.6-1.3-1-2.9-1.2-4.7V192c0-3.9,1.6-6.7,4.7-8.3c1.3-0.6,2.9-1,4.7-1.2h3.2c3.9,0,6.7,1.6,8.3,4.7
		C104.3,188.5,104.7,190,104.8,191.9z"/>
	<path class="st0" d="M126.9,182.4c3.9,0,6.7,1.6,8.3,4.7c0.6,1.3,1,2.9,1.2,4.7v12.6c0,3.9-1.6,6.7-4.7,8.3c-1.3,0.6-2.9,1-4.7,1.2
		h-3.2c-3.9,0-6.7-1.6-8.3-4.7c-0.6-1.3-1-2.9-1.2-4.7v-12.6c0-3.9,1.6-6.7,4.7-8.3c1.3-0.7,2.9-1.1,4.7-1.2H126.9z M130.1,206.1
		v-15.8c0-1.9-1.1-3-3.2-3.2h-3.2c-1.9,0-3,1.1-3.2,3.2v15.8c0,1.9,1.1,3,3.2,3.2h3.2C128.9,209.3,129.9,208.2,130.1,206.1z"/>
	<path class="st0" d="M163.7,182.4c3.9,0.3,5.9,2.1,5.9,5.5V214h-5.1v-24.5c0-1.5-0.8-2.3-2.5-2.4c-1.7,0.1-2.5,0.9-2.5,2.4V214
		h-5.1v-24.5c0-1.5-0.8-2.3-2.5-2.4c-1.7,0.1-2.5,0.9-2.5,2.4V214h-5.1v-31.6h3.4l1.7,3.9c0.2-2.6,1.6-3.9,4.2-3.9
		c2.6,0,4.4,1,5.4,3.1C159.8,183.4,161.3,182.4,163.7,182.4z"/>
</g>
<g>
	<path class="st0" d="M104.8,257.9v1.6h-6.3v-3.2c0-1.9-1.1-3-3.2-3.2h-3.2c-1.9,0-3,1.1-3.2,3.2v15.8c0,1.9,1.1,3,3.2,3.2h3.2
		c1.9,0,3-1.1,3.2-3.2v-3.2h6.3v1.6c0,3.9-1.6,6.7-4.7,8.3c-1.3,0.7-2.9,1.1-4.7,1.2h-3.2c-3.9,0-6.7-1.6-8.3-4.7
		c-0.6-1.3-1-2.9-1.2-4.7V258c0-3.9,1.6-6.7,4.7-8.3c1.3-0.6,2.9-1,4.7-1.2h3.2c3.9,0,6.7,1.6,8.3,4.7
		C104.3,254.5,104.7,256,104.8,257.9z"/>
	<path class="st0" d="M126.9,248.4c3.9,0,6.7,1.6,8.3,4.7c0.6,1.3,1,2.9,1.2,4.7v12.6c0,3.9-1.6,6.7-4.7,8.3c-1.3,0.6-2.9,1-4.7,1.2
		h-3.2c-3.9,0-6.7-1.6-8.3-4.7c-0.7-1.3-1.1-2.9-1.2-4.7v-12.6c0-3.9,1.6-6.7,4.7-8.3c1.3-0.7,2.9-1.1,4.7-1.2L126.9,248.4
		L126.9,248.4z M130.1,272.1v-15.8c0-1.9-1.1-3-3.2-3.2h-3.2c-1.9,0-3,1.1-3.2,3.2v15.8c0,1.9,1.1,3,3.2,3.2h3.2
		C128.9,275.3,129.9,274.2,130.1,272.1z M130.9,235.8l-3.2,9.5H123l3.2-9.5H130.9z"/>
	<path class="st0" d="M145.9,257.9c0.2-1.8,0.6-3.4,1.2-4.7c1.6-3.2,4.3-4.7,8.3-4.7h6.3v-12.6h6.3V280h-4.7l-1.6-4.7
		c0,2.9-1.6,4.5-4.7,4.7h-1.6c-3.9,0-6.7-1.6-8.3-4.7c-0.6-1.3-1-2.9-1.2-4.7V257.9z M152.2,256.3v15.8c0,1.9,1.1,3,3.2,3.2h3.2
		c1.9,0,3-1.1,3.2-3.2v-18.9h-6.3C153.4,253.1,152.4,254.2,152.2,256.3z"/>
	<path class="st0" d="M191.7,275.3h7.9v4.7h-22.1v-4.7h7.9v-22.1h-6.3v-4.7h12.6L191.7,275.3L191.7,275.3z M191.7,235.8v6.3h-6.3
		v-6.3H191.7z"/>
	<path class="st0" d="M218.5,248.4h12.6v34.7c-0.2,1.8-0.6,3.4-1.2,4.7c-1.6,3.2-4.3,4.7-8.3,4.7h-11.1v-4.7h11.1
		c2.1-0.2,3.2-1.2,3.2-3.2v-9.5c0,2.9-1.6,4.5-4.7,4.7h-1.6c-3.9,0-6.7-1.6-8.3-4.7c-0.6-1.3-1-2.9-1.2-4.7v-12.6
		c0.2-1.8,0.6-3.4,1.2-4.7C211.8,250,214.6,248.4,218.5,248.4z M224.8,272.1v-18.9h-6.3c-1.9,0-3,1.1-3.2,3.2v15.8
		c0,1.9,1.1,3,3.2,3.2h3.2C223.6,275.3,224.7,274.2,224.8,272.1z"/>
	<path class="st0" d="M253.3,248.4c3.9,0,6.7,1.6,8.3,4.7c0.6,1.3,1,2.9,1.2,4.7v12.6c0,3.9-1.6,6.7-4.7,8.3c-1.3,0.6-2.9,1-4.7,1.2
		h-3.2c-3.9,0-6.7-1.6-8.3-4.7c-0.6-1.3-1-2.9-1.2-4.7v-12.6c0-3.9,1.6-6.7,4.7-8.3c1.3-0.7,2.9-1.1,4.7-1.2L253.3,248.4
		L253.3,248.4z M256.4,272.1v-15.8c0-1.9-1.1-3-3.2-3.2H250c-1.9,0-3,1.1-3.2,3.2v15.8c0,1.9,1.1,3,3.2,3.2h3.2
		C255.2,275.3,256.3,274.2,256.4,272.1z"/>
</g>
<g>
	<path class="st0" d="M88.4,1250c2.4,0,4,0.9,5,2.8c0.4,0.8,0.6,1.7,0.7,2.8v13.3h-3.8v-14.2c0-1.2-0.6-1.8-1.9-1.9h-1.9
		c-1.2,0-1.8,0.6-1.9,1.9v14.2h-3.8V1250h2.8l0.9,2.8c0-1.8,0.9-2.7,2.8-2.8H88.4z"/>
	<path class="st0" d="M107.4,1250c2.4,0,4,0.9,5,2.8c0.4,0.8,0.6,1.7,0.7,2.8v7.6c0,2.4-0.9,4-2.8,5c-0.8,0.4-1.7,0.6-2.8,0.7h-1.9
		c-2.4,0-4-0.9-5-2.8c-0.4-0.8-0.6-1.7-0.7-2.8v-7.6c0-2.4,0.9-4,2.8-5c0.8-0.4,1.7-0.6,2.8-0.7H107.4z M109.3,1264.3v-9.5
		c0-1.2-0.6-1.8-1.9-1.9h-1.9c-1.2,0-1.8,0.6-1.9,1.9v9.5c0,1.2,0.6,1.8,1.9,1.9h1.9C108.5,1266.1,109.2,1265.5,109.3,1264.3z"/>
	<path class="st0" d="M132,1252.9l-4.7,16.1h-3.8l-4.7-16.1v-2.8h3.8v2.8l2.8,13.3l2.8-13.3v-2.8h3.8V1252.9z"/>
	<path class="st0" d="M146.2,1265.2v3.8h-3.8v-3.8H146.2z"/>
	<path class="st0" d="M175.6,1269v-6.6c0.1-1.1,0.3-2.1,0.7-2.8c0.9-1.9,2.6-2.8,5-2.8h1.9c1.3-0.1,1.9-0.7,1.9-1.9v-3.8
		c-0.1-1.3-0.7-1.9-1.9-1.9h-1.9c-1.3,0.1-1.9,0.7-1.9,1.9v1.9h-3.8v-0.9c0.1-1.1,0.3-2.1,0.7-2.8c0.9-1.9,2.6-2.8,5-2.8h1.9
		c1.1,0.1,2.1,0.3,2.8,0.7c1.9,0.9,2.8,2.6,2.8,5v1.9c-0.1,1.1-0.3,2-0.7,2.8c-0.9,1.9-2.6,2.8-5,2.8h-1.9c-1.3,0.1-1.9,0.7-1.9,1.9
		v4.7h9.5v2.8H175.6z"/>
	<path class="st0" d="M201.2,1246.3c1.8,0,3.4,0.6,4.7,1.9c1.3,1.3,1.9,2.9,1.9,4.7v9.5c0,1.8-0.6,3.4-1.9,4.7
		c-1.3,1.3-2.9,1.9-4.7,1.9c-1.8,0-3.4-0.6-4.7-1.9c-1.3-1.3-1.9-2.9-1.9-4.7v-9.5c0-1.8,0.6-3.4,1.9-4.7
		C197.8,1246.9,199.3,1246.3,201.2,1246.3z M204,1263.3V1252c0-0.8-0.3-1.5-0.8-2c-0.6-0.6-1.2-0.8-2-0.8c-0.8,0-1.5,0.3-2,0.8
		c-0.6,0.6-0.8,1.2-0.8,2v11.3c0,0.8,0.3,1.5,0.8,2c0.6,0.6,1.2,0.8,2,0.8c0.8,0,1.5-0.3,2-0.8C203.7,1264.8,204,1264.1,204,1263.3z
		"/>
	<path class="st0" d="M213.5,1269v-6.6c0.1-1.1,0.3-2.1,0.7-2.8c0.9-1.9,2.6-2.8,5-2.8h1.9c1.3-0.1,1.9-0.7,1.9-1.9v-3.8
		c-0.1-1.3-0.7-1.9-1.9-1.9h-1.9c-1.3,0.1-1.9,0.7-1.9,1.9v1.9h-3.8v-0.9c0.1-1.1,0.3-2.1,0.7-2.8c0.9-1.9,2.6-2.8,5-2.8h1.9
		c1.1,0.1,2.1,0.3,2.8,0.7c1.9,0.9,2.8,2.6,2.8,5v1.9c-0.1,1.1-0.3,2-0.7,2.8c-0.9,1.9-2.6,2.8-5,2.8h-1.9c-1.3,0.1-1.9,0.7-1.9,1.9
		v4.7h9.5v2.8H213.5z"/>
	<path class="st0" d="M239,1246.3c1.8,0,3.4,0.6,4.7,1.9c1.3,1.3,1.9,2.9,1.9,4.7v9.5c0,1.8-0.6,3.4-1.9,4.7
		c-1.3,1.3-2.9,1.9-4.7,1.9c-1.8,0-3.4-0.6-4.7-1.9c-1.3-1.3-1.9-2.9-1.9-4.7v-9.5c0-1.8,0.6-3.4,1.9-4.7
		C235.7,1246.9,237.2,1246.3,239,1246.3z M241.9,1263.3V1252c0-0.8-0.3-1.5-0.8-2c-0.6-0.6-1.2-0.8-2-0.8c-0.8,0-1.5,0.3-2,0.8
		c-0.6,0.6-0.8,1.2-0.8,2v11.3c0,0.8,0.3,1.5,0.8,2c0.6,0.6,1.2,0.8,2,0.8c0.8,0,1.5-0.3,2-0.8
		C241.6,1264.8,241.9,1264.1,241.9,1263.3z"/>
</g>
</svg>
