<?xml version="1.0"?>
<svg xmlns="http://www.w3.org/2000/svg" width="4000" height="4000" viewBox="-2000 -2000 4000 4000">
    <path d="M-2000,-2000L2000,-2000L2000,2000L-2000,2000Z" fill="#4a2526"/>
    <g>
        <path d="M1600,-387.23L1200,-288.32L1268.13,-12.77L1600,-12.77L1600,-387.23Z" fill="#44b072"/>
        <path d="M303.58,400L0,545.16L121.85,800L247.11,800L400,726.89L400,601.64L303.58,400Z" fill="#ddc54d"/>
        <path d="M303.58,0L0,145.16L121.85,400L247.11,400L400,326.89L400,201.64L303.58,0Z" fill="#ddc8e1"/>
        <path d="M-1395.50,-666.24L-1466.24,-604.50L-1404.50,-533.76L-1333.76,-595.50L-1395.50,-666.24Z" fill="#44b072"/>
        <path d="M-147.69,1212.09L-387.91,1347.69L-252.31,1587.91L-12.09,1452.31L-147.69,1212.09Z" fill="#ddc54d"/>
        <path d="M1600,-1987.23L1200,-1888.32L1268.13,-1612.77L1600,-1612.77L1600,-1987.23Z" fill="#ddc8e1"/>
        <path d="M1600,-787.23L1200,-688.32L1268.13,-412.77L1600,-412.77L1600,-787.23Z" fill="#44b072"/>
        <path d="M-147.69,-787.91L-387.91,-652.31L-252.31,-412.09L-12.09,-547.69L-147.69,-787.91Z" fill="#ddc54d"/>
        <path d="M-147.69,1612.09L-387.91,1747.69L-252.31,1987.91L-12.09,1852.31L-147.69,1612.09Z" fill="#ddc8e1"/>
        <path d="M-569.23,50.98L-749.02,169.23L-630.77,349.02L-450.98,230.77L-569.23,50.98Z" fill="#44b072"/>
        <path d="M-1800,-1023.50L-1823.50,-1000L-1800,-976.50L-1776.50,-1000L-1800,-1023.50Z" fill="#ddc54d"/>
        <path d="M303.58,-2000L0,-1854.84L121.85,-1600L247.11,-1600L400,-1673.11L400,-1798.36L303.58,-2000Z" fill="#ddc8e1"/>
        <path d="M-1800,1376.50L-1823.50,1400L-1800,1423.50L-1776.50,1400L-1800,1376.50Z" fill="#44b072"/>
        <path d="M303.58,-1200L0,-1054.84L121.85,-800L247.11,-800L400,-873.11L400,-998.36L303.58,-1200Z" fill="#ddc54d"/>
        <path d="M-569.23,-749.02L-749.02,-630.77L-630.77,-450.98L-450.98,-569.23L-569.23,-749.02Z" fill="#ddc8e1"/>
        <path d="M769.10,800L400,946.63L500.66,1200L800,1200L800,877.78L769.10,800Z" fill="#44b072"/>
        <path d="M-985.21,891.73L-1108.27,985.21L-1014.79,1108.27L-891.73,1014.79L-985.21,891.73Z" fill="#ddc54d"/>
        <path d="M-147.69,12.09L-387.91,147.69L-252.31,387.91L-12.09,252.31L-147.69,12.09Z" fill="#ddc8e1"/>
        <path d="M-985.21,-1508.27L-1108.27,-1414.79L-1014.79,-1291.73L-891.73,-1385.21L-985.21,-1508.27Z" fill="#44b072"/>
        <path d="M303.58,-800L0,-654.84L121.85,-400L247.11,-400L400,-473.11L400,-598.36L303.58,-800Z" fill="#ddc54d"/>
        <path d="M1200,1205.76L800,1334.02L883.44,1594.24L1200,1594.24L1200,1205.76Z" fill="#ddc8e1"/>
        <path d="M1200,405.76L800,534.02L883.44,794.24L1200,794.24L1200,405.76Z" fill="#44b072"/>
        <path d="M2000,-1984.98L1600,-1914.45L1652.80,-1615.02L2000,-1615.02L2000,-1984.98Z" fill="#ddc54d"/>
        <path d="M303.58,1600L0,1745.16L121.85,2000L247.11,2000L400,1926.89L400,1801.64L303.58,1600Z" fill="#ddc8e1"/>
        <path d="M-1395.50,1733.76L-1466.24,1795.50L-1404.50,1866.24L-1333.76,1804.50L-1395.50,1733.76Z" fill="#44b072"/>
        <path d="M2000,815.02L1600,885.55L1652.80,1184.98L2000,1184.98L2000,815.02Z" fill="#ddc54d"/>
        <path d="M2000,415.02L1600,485.55L1652.80,784.98L2000,784.98L2000,415.02Z" fill="#ddc8e1"/>
        <path d="M-985.21,491.73L-1108.27,585.21L-1014.79,708.27L-891.73,614.79L-985.21,491.73Z" fill="#44b072"/>
        <path d="M-1800,-1823.50L-1823.50,-1800L-1800,-1776.50L-1776.50,-1800L-1800,-1823.50Z" fill="#ddc54d"/>
        <path d="M1200,805.76L800,934.02L883.44,1194.24L1200,1194.24L1200,805.76Z" fill="#ddc8e1"/>
        <path d="M-1395.50,933.76L-1466.24,995.50L-1404.50,1066.24L-1333.76,1004.50L-1395.50,933.76Z" fill="#44b072"/>
        <path d="M303.58,800L0,945.16L121.85,1200L247.11,1200L400,1126.89L400,1001.64L303.58,800Z" fill="#ddc54d"/>
        <path d="M1200,-1994.24L800,-1865.98L883.44,-1605.76L1200,-1605.76L1200,-1994.24Z" fill="#ddc8e1"/>
        <path d="M1600,812.77L1200,911.68L1268.13,1187.23L1600,1187.23L1600,812.77Z" fill="#44b072"/>
        <path d="M1600,1612.77L1200,1711.68L1268.13,1987.23L1600,1987.23L1600,1612.77Z" fill="#ddc54d"/>
        <path d="M2000,-784.98L1600,-714.45L1652.80,-415.02L2000,-415.02L2000,-784.98Z" fill="#ddc8e1"/>
        <path d="M1200,5.76L800,134.02L883.44,394.24L1200,394.24L1200,5.76Z" fill="#44b072"/>
        <path d="M1200,-1594.24L800,-1465.98L883.44,-1205.76L1200,-1205.76L1200,-1594.24Z" fill="#ddc54d"/>
        <path d="M1600,12.77L1200,111.68L1268.13,387.23L1600,387.23L1600,12.77Z" fill="#ddc8e1"/>
        <path d="M-147.69,-387.91L-387.91,-252.31L-252.31,-12.09L-12.09,-147.69L-147.69,-387.91Z" fill="#44b072"/>
        <path d="M-147.69,812.09L-387.91,947.69L-252.31,1187.91L-12.09,1052.31L-147.69,812.09Z" fill="#ddc54d"/>
        <path d="M-985.21,-708.27L-1108.27,-614.79L-1014.79,-491.73L-891.73,-585.21L-985.21,-708.27Z" fill="#ddc8e1"/>
        <path d="M769.10,400L400,546.63L500.66,800L800,800L800,477.78L769.10,400Z" fill="#44b072"/>
        <path d="M-1800,-623.50L-1823.50,-600L-1800,-576.50L-1776.50,-600L-1800,-623.50Z" fill="#ddc54d"/>
        <path d="M-985.21,1691.73L-1108.27,1785.21L-1014.79,1908.27L-891.73,1814.79L-985.21,1691.73Z" fill="#ddc8e1"/>
        <path d="M-569.23,1650.98L-749.02,1769.23L-630.77,1949.02L-450.98,1830.77L-569.23,1650.98Z" fill="#44b072"/>
        <path d="M-985.21,-1108.27L-1108.27,-1014.79L-1014.79,-891.73L-891.73,-985.21L-985.21,-1108.27Z" fill="#ddc54d"/>
        <path d="M-569.23,450.98L-749.02,569.23L-630.77,749.02L-450.98,630.77L-569.23,450.98Z" fill="#ddc8e1"/>
        <path d="M1600,-1187.23L1200,-1088.32L1268.13,-812.77L1600,-812.77L1600,-1187.23Z" fill="#44b072"/>
        <path d="M-1395.50,133.76L-1466.24,195.50L-1404.50,266.24L-1333.76,204.50L-1395.50,133.76Z" fill="#ddc54d"/>
        <path d="M303.58,-400L0,-254.84L121.85,0L247.11,0L400,-73.11L400,-198.36L303.58,-400Z" fill="#ddc8e1"/>
        <path d="M1600,412.77L1200,511.68L1268.13,787.23L1600,787.23L1600,412.77Z" fill="#44b072"/>
        <path d="M1600,1212.77L1200,1311.68L1268.13,1587.23L1600,1587.23L1600,1212.77Z" fill="#ddc54d"/>
        <path d="M-985.21,-308.27L-1108.27,-214.79L-1014.79,-91.73L-891.73,-185.21L-985.21,-308.27Z" fill="#ddc8e1"/>
        <path d="M769.10,-400L400,-253.37L500.66,0L800,0L800,-322.22L769.10,-400Z" fill="#44b072"/>
        <path d="M-147.69,412.09L-387.91,547.69L-252.31,787.91L-12.09,652.31L-147.69,412.09Z" fill="#ddc54d"/>
        <path d="M-985.21,1291.73L-1108.27,1385.21L-1014.79,1508.27L-891.73,1414.79L-985.21,1291.73Z" fill="#ddc8e1"/>
        <path d="M-1800,1776.50L-1823.50,1800L-1800,1823.50L-1776.50,1800L-1800,1776.50Z" fill="#44b072"/>
        <path d="M-569.23,850.98L-749.02,969.23L-630.77,1149.02L-450.98,1030.77L-569.23,850.98Z" fill="#ddc54d"/>
        <path d="M-569.23,-1549.02L-749.02,-1430.77L-630.77,-1250.98L-450.98,-1369.23L-569.23,-1549.02Z" fill="#ddc8e1"/>
        <path d="M2000,1215.02L1600,1285.55L1652.80,1584.98L2000,1584.98L2000,1215.02Z" fill="#44b072"/>
        <path d="M769.10,1600L400,1746.63L500.66,2000L800,2000L800,1677.78L769.10,1600Z" fill="#ddc54d"/>
        <path d="M769.10,0L400,146.63L500.66,400L800,400L800,77.78L769.10,0Z" fill="#ddc8e1"/>
        <path d="M-147.69,-1187.91L-387.91,-1052.31L-252.31,-812.09L-12.09,-947.69L-147.69,-1187.91Z" fill="#44b072"/>
        <path d="M-1800,576.50L-1823.50,600L-1800,623.50L-1776.50,600L-1800,576.50Z" fill="#ddc54d"/>
        <path d="M-569.23,-349.02L-749.02,-230.77L-630.77,-50.98L-450.98,-169.23L-569.23,-349.02Z" fill="#ddc8e1"/>
        <path d="M2000,15.02L1600,85.55L1652.80,384.98L2000,384.98L2000,15.02Z" fill="#44b072"/>
        <path d="M1200,1605.76L800,1734.02L883.44,1994.24L1200,1994.24L1200,1605.76Z" fill="#ddc54d"/>
        <path d="M-1395.50,-1866.24L-1466.24,-1804.50L-1404.50,-1733.76L-1333.76,-1795.50L-1395.50,-1866.24Z" fill="#ddc8e1"/>
        <path d="M-1800,976.50L-1823.50,1000L-1800,1023.50L-1776.50,1000L-1800,976.50Z" fill="#44b072"/>
        <path d="M769.10,-800L400,-653.37L500.66,-400L800,-400L800,-722.22L769.10,-800Z" fill="#ddc54d"/>
        <path d="M2000,1615.02L1600,1685.55L1652.80,1984.98L2000,1984.98L2000,1615.02Z" fill="#ddc8e1"/>
        <path d="M1600,-1587.23L1200,-1488.32L1268.13,-1212.77L1600,-1212.77L1600,-1587.23Z" fill="#44b072"/>
        <path d="M769.10,-2000L400,-1853.37L500.66,-1600L800,-1600L800,-1922.22L769.10,-2000Z" fill="#ddc54d"/>
        <path d="M-569.23,-1149.02L-749.02,-1030.77L-630.77,-850.98L-450.98,-969.23L-569.23,-1149.02Z" fill="#ddc8e1"/>
        <path d="M-985.21,91.73L-1108.27,185.21L-1014.79,308.27L-891.73,214.79L-985.21,91.73Z" fill="#44b072"/>
        <path d="M1200,-1194.24L800,-1065.98L883.44,-805.76L1200,-805.76L1200,-1194.24Z" fill="#ddc54d"/>
        <path d="M-1800,176.50L-1823.50,200L-1800,223.50L-1776.50,200L-1800,176.50Z" fill="#ddc8e1"/>
        <path d="M769.10,-1600L400,-1453.37L500.66,-1200L800,-1200L800,-1522.22L769.10,-1600Z" fill="#44b072"/>
        <path d="M2000,-1184.98L1600,-1114.45L1652.80,-815.02L2000,-815.02L2000,-1184.98Z" fill="#ddc54d"/>
        <path d="M-1800,-223.50L-1823.50,-200L-1800,-176.50L-1776.50,-200L-1800,-223.50Z" fill="#ddc8e1"/>
        <path d="M1200,-794.24L800,-665.98L883.44,-405.76L1200,-405.76L1200,-794.24Z" fill="#44b072"/>
        <path d="M303.58,1200L0,1345.16L121.85,1600L247.11,1600L400,1526.89L400,1401.64L303.58,1200Z" fill="#ddc54d"/>
        <path d="M-1395.50,-1466.24L-1466.24,-1404.50L-1404.50,-1333.76L-1333.76,-1395.50L-1395.50,-1466.24Z" fill="#ddc8e1"/>
        <path d="M2000,-384.98L1600,-314.45L1652.80,-15.02L2000,-15.02L2000,-384.98Z" fill="#44b072"/>
        <path d="M-1395.50,533.76L-1466.24,595.50L-1404.50,666.24L-1333.76,604.50L-1395.50,533.76Z" fill="#ddc54d"/>
        <path d="M-147.69,-1987.91L-387.91,-1852.31L-252.31,-1612.09L-12.09,-1747.69L-147.69,-1987.91Z" fill="#ddc8e1"/>
        <path d="M769.10,1200L400,1346.63L500.66,1600L800,1600L800,1277.78L769.10,1200Z" fill="#44b072"/>
        <path d="M-569.23,-1949.02L-749.02,-1830.77L-630.77,-1650.98L-450.98,-1769.23L-569.23,-1949.02Z" fill="#ddc54d"/>
        <path d="M-1395.50,-1066.24L-1466.24,-1004.50L-1404.50,-933.76L-1333.76,-995.50L-1395.50,-1066.24Z" fill="#ddc8e1"/>
        <path d="M769.10,-1200L400,-1053.37L500.66,-800L800,-800L800,-1122.22L769.10,-1200Z" fill="#44b072"/>
        <path d="M-1800,-1423.50L-1823.50,-1400L-1800,-1376.50L-1776.50,-1400L-1800,-1423.50Z" fill="#ddc54d"/>
        <path d="M-569.23,1250.98L-749.02,1369.23L-630.77,1549.02L-450.98,1430.77L-569.23,1250.98Z" fill="#ddc8e1"/>
        <path d="M-1395.50,1333.76L-1466.24,1395.50L-1404.50,1466.24L-1333.76,1404.50L-1395.50,1333.76Z" fill="#44b072"/>
        <path d="M303.58,-1600L0,-1454.84L121.85,-1200L247.11,-1200L400,-1273.11L400,-1398.36L303.58,-1600Z" fill="#ddc54d"/>
        <path d="M1200,-394.24L800,-265.98L883.44,-5.76L1200,-5.76L1200,-394.24Z" fill="#ddc8e1"/>
        <path d="M-1395.50,-266.24L-1466.24,-204.50L-1404.50,-133.76L-1333.76,-195.50L-1395.50,-266.24Z" fill="#44b072"/>
        <path d="M-147.69,-1587.91L-387.91,-1452.31L-252.31,-1212.09L-12.09,-1347.69L-147.69,-1587.91Z" fill="#ddc54d"/>
        <path d="M2000,-1584.98L1600,-1514.45L1652.80,-1215.02L2000,-1215.02L2000,-1584.98Z" fill="#ddc8e1"/>
        <path d="M-985.21,-1908.27L-1108.27,-1814.79L-1014.79,-1691.73L-891.73,-1785.21L-985.21,-1908.27Z" fill="#44b072"/>
    </g>
</svg>