<?xml version="1.0"?>
<svg xmlns="http://www.w3.org/2000/svg" width="4000" height="4000" viewBox="-2000 -2000 4000 4000">
    <path d="M-2000,-2000L2000,-2000L2000,2000L-2000,2000Z" fill="#27284f"/>
    <g>
        <path d="M1283.34,-400L1283.34,-400C1248.90,-379.87 1220.13,-351.10 1200.00,-316.66L1200.00,-316.66L1200.00,-83.34L1200.00,-83.34C1220.13,-48.90 1248.90,-20.13 1283.34,0L1516.66,0C1551.10,-20.13 1579.87,-48.90 1600.00,-83.34L1600.00,-83.34L1600.00,-316.66L1600.00,-316.66C1579.87,-351.10 1551.10,-379.87 1516.66,-400Z" fill="#d94d27"/>
        <path d="M200.00,446.50C115.22,446.50 46.50,515.22 46.50,600C46.50,684.78 115.22,753.50 200.00,753.50C284.78,753.50 353.50,684.78 353.50,600C353.50,515.22 284.78,446.50 200.00,446.50Z" fill="#5caaaa"/>
        <path d="M200.00,46.50C115.22,46.50 46.50,115.22 46.50,200C46.50,284.78 115.22,353.50 200.00,353.50C284.78,353.50 353.50,284.78 353.50,200C353.50,115.22 284.78,46.50 200.00,46.50Z" fill="#d2e1c8"/>
        <path d="M-1400,-649.50C-1427.34,-649.50 -1449.50,-627.34 -1449.50,-600C-1449.50,-572.66 -1427.34,-550.50 -1400,-550.50C-1372.66,-550.50 -1350.50,-572.66 -1350.50,-600C-1350.50,-627.34 -1372.66,-649.50 -1400,-649.50Z" fill="#d94d27"/>
        <path d="M-200.00,1272.50C-270.42,1272.50 -327.50,1329.58 -327.50,1400C-327.50,1470.42 -270.42,1527.50 -200.00,1527.50C-129.58,1527.50 -72.50,1470.42 -72.50,1400C-72.50,1329.58 -129.58,1272.50 -200.00,1272.50Z" fill="#5caaaa"/>
        <path d="M1283.34,-2000L1283.34,-2000C1248.90,-1979.87 1220.13,-1951.10 1200.00,-1916.66L1200.00,-1916.66L1200.00,-1683.34L1200.00,-1683.34C1220.13,-1648.90 1248.90,-1620.13 1283.34,-1600L1516.66,-1600C1551.10,-1620.13 1579.87,-1648.90 1600.00,-1683.34L1600.00,-1683.34L1600.00,-1916.66L1600.00,-1916.66C1579.87,-1951.10 1551.10,-1979.87 1516.66,-2000Z" fill="#d2e1c8"/>
        <path d="M1283.34,-800L1283.34,-800C1248.90,-779.87 1220.13,-751.10 1200.00,-716.66L1200.00,-716.66L1200.00,-483.34L1200.00,-483.34C1220.13,-448.90 1248.90,-420.13 1283.34,-400L1516.66,-400C1551.10,-420.13 1579.87,-448.90 1600.00,-483.34L1600.00,-483.34L1600.00,-716.66L1600.00,-716.66C1579.87,-751.10 1551.10,-779.87 1516.66,-800Z" fill="#d94d27"/>
        <path d="M-200.00,-727.50C-270.42,-727.50 -327.50,-670.42 -327.50,-600C-327.50,-529.58 -270.42,-472.50 -200.00,-472.50C-129.58,-472.50 -72.50,-529.58 -72.50,-600C-72.50,-670.42 -129.58,-727.50 -200.00,-727.50Z" fill="#5caaaa"/>
        <path d="M-200.00,1672.50C-270.42,1672.50 -327.50,1729.58 -327.50,1800C-327.50,1870.42 -270.42,1927.50 -200.00,1927.50C-129.58,1927.50 -72.50,1870.42 -72.50,1800C-72.50,1729.58 -129.58,1672.50 -200.00,1672.50Z" fill="#d2e1c8"/>
        <path d="M-600,98.50C-656.06,98.50 -701.50,143.94 -701.50,200C-701.50,256.06 -656.06,301.50 -600,301.50C-543.94,301.50 -498.50,256.06 -498.50,200C-498.50,143.94 -543.94,98.50 -600,98.50Z" fill="#d94d27"/>
        <path d="M-1800,-1023.50C-1812.98,-1023.50 -1823.50,-1012.98 -1823.50,-1000C-1823.50,-987.02 -1812.98,-976.50 -1800,-976.50C-1787.02,-976.50 -1776.50,-987.02 -1776.50,-1000C-1776.50,-1012.98 -1787.02,-1023.50 -1800,-1023.50Z" fill="#5caaaa"/>
        <path d="M200.00,-1953.50C115.22,-1953.50 46.50,-1884.78 46.50,-1800C46.50,-1715.22 115.22,-1646.50 200.00,-1646.50C284.78,-1646.50 353.50,-1715.22 353.50,-1800C353.50,-1884.78 284.78,-1953.50 200.00,-1953.50Z" fill="#d2e1c8"/>
        <path d="M-1800,1376.50C-1812.98,1376.50 -1823.50,1387.02 -1823.50,1400C-1823.50,1412.98 -1812.98,1423.50 -1800,1423.50C-1787.02,1423.50 -1776.50,1412.98 -1776.50,1400C-1776.50,1387.02 -1787.02,1376.50 -1800,1376.50Z" fill="#d94d27"/>
        <path d="M200.00,-1153.50C115.22,-1153.50 46.50,-1084.78 46.50,-1000C46.50,-915.22 115.22,-846.50 200.00,-846.50C284.78,-846.50 353.50,-915.22 353.50,-1000C353.50,-1084.78 284.78,-1153.50 200.00,-1153.50Z" fill="#5caaaa"/>
        <path d="M-600,-701.50C-656.06,-701.50 -701.50,-656.06 -701.50,-600C-701.50,-543.94 -656.06,-498.50 -600,-498.50C-543.94,-498.50 -498.50,-543.94 -498.50,-600C-498.50,-656.06 -543.94,-701.50 -600,-701.50Z" fill="#d2e1c8"/>
        <path d="M600,820.50C500.86,820.50 420.50,900.86 420.50,1000C420.50,1099.14 500.86,1179.50 600,1179.50C699.14,1179.50 779.50,1099.14 779.50,1000C779.50,900.86 699.14,820.50 600,820.50Z" fill="#d94d27"/>
        <path d="M-1000,924.50C-1041.70,924.50 -1075.50,958.30 -1075.50,1000C-1075.50,1041.70 -1041.70,1075.50 -1000,1075.50C-958.30,1075.50 -924.50,1041.70 -924.50,1000C-924.50,958.30 -958.30,924.50 -1000,924.50Z" fill="#5caaaa"/>
        <path d="M-200.00,72.50C-270.42,72.50 -327.50,129.58 -327.50,200C-327.50,270.42 -270.42,327.50 -200.00,327.50C-129.58,327.50 -72.50,270.42 -72.50,200C-72.50,129.58 -129.58,72.50 -200.00,72.50Z" fill="#d2e1c8"/>
        <path d="M-1000,-1475.50C-1041.70,-1475.50 -1075.50,-1441.70 -1075.50,-1400C-1075.50,-1358.30 -1041.70,-1324.50 -1000,-1324.50C-958.30,-1324.50 -924.50,-1358.30 -924.50,-1400C-924.50,-1441.70 -958.30,-1475.50 -1000,-1475.50Z" fill="#d94d27"/>
        <path d="M200.00,-753.50C115.22,-753.50 46.50,-684.78 46.50,-600C46.50,-515.22 115.22,-446.50 200.00,-446.50C284.78,-446.50 353.50,-515.22 353.50,-600C353.50,-684.78 284.78,-753.50 200.00,-753.50Z" fill="#5caaaa"/>
        <path d="M952.57,1200C877.17,1217.81 817.81,1277.17 800.00,1352.57L800.00,1352.57L800.00,1447.43L800.00,1447.43C817.81,1522.83 877.17,1582.19 952.57,1600L1047.43,1600C1122.83,1582.19 1182.19,1522.83 1200.00,1447.43L1200.00,1447.43L1200.00,1352.57L1200.00,1352.57C1182.19,1277.17 1122.83,1217.81 1047.43,1200Z" fill="#d2e1c8"/>
        <path d="M952.57,400C877.17,417.81 817.81,477.17 800.00,552.57L800.00,552.57L800.00,647.43L800.00,647.43C817.81,722.83 877.17,782.19 952.57,800L1047.43,800C1122.83,782.19 1182.19,722.83 1200.00,647.43L1200.00,647.43L1200.00,552.57L1200.00,552.57C1182.19,477.17 1122.83,417.81 1047.43,400Z" fill="#d94d27"/>
        <path d="M1637.79,-2000C1623.93,-1988.74 1611.26,-1976.07 1600.00,-1962.21L1600.00,-1962.21L1600.00,-1637.79L1600.00,-1637.79C1611.26,-1623.93 1623.93,-1611.26 1637.79,-1600L1962.21,-1600C1976.07,-1611.26 1988.74,-1623.93 2000.00,-1637.79L2000.00,-1637.79L2000.00,-1962.21L2000.00,-1962.21C1988.74,-1976.07 1976.07,-1988.74 1962.21,-2000Z" fill="#5caaaa"/>
        <path d="M200.00,1646.50C115.22,1646.50 46.50,1715.22 46.50,1800C46.50,1884.78 115.22,1953.50 200.00,1953.50C284.78,1953.50 353.50,1884.78 353.50,1800C353.50,1715.22 284.78,1646.50 200.00,1646.50Z" fill="#d2e1c8"/>
        <path d="M-1400,1750.50C-1427.34,1750.50 -1449.50,1772.66 -1449.50,1800C-1449.50,1827.34 -1427.34,1849.50 -1400,1849.50C-1372.66,1849.50 -1350.50,1827.34 -1350.50,1800C-1350.50,1772.66 -1372.66,1750.50 -1400,1750.50Z" fill="#d94d27"/>
        <path d="M1637.79,800C1623.93,811.26 1611.26,823.93 1600.00,837.79L1600.00,837.79L1600.00,1162.21L1600.00,1162.21C1611.26,1176.07 1623.93,1188.74 1637.79,1200L1962.21,1200C1976.07,1188.74 1988.74,1176.07 2000.00,1162.21L2000.00,1162.21L2000.00,837.79L2000.00,837.79C1988.74,823.93 1976.07,811.26 1962.21,800Z" fill="#5caaaa"/>
        <path d="M1637.79,400C1623.93,411.26 1611.26,423.93 1600.00,437.79L1600.00,437.79L1600.00,762.21L1600.00,762.21C1611.26,776.07 1623.93,788.74 1637.79,800L1962.21,800C1976.07,788.74 1988.74,776.07 2000.00,762.21L2000.00,762.21L2000.00,437.79L2000.00,437.79C1988.74,423.93 1976.07,411.26 1962.21,400Z" fill="#d2e1c8"/>
        <path d="M-1000,524.50C-1041.70,524.50 -1075.50,558.30 -1075.50,600C-1075.50,641.70 -1041.70,675.50 -1000,675.50C-958.30,675.50 -924.50,641.70 -924.50,600C-924.50,558.30 -958.30,524.50 -1000,524.50Z" fill="#d94d27"/>
        <path d="M-1800,-1823.50C-1812.98,-1823.50 -1823.50,-1812.98 -1823.50,-1800C-1823.50,-1787.02 -1812.98,-1776.50 -1800,-1776.50C-1787.02,-1776.50 -1776.50,-1787.02 -1776.50,-1800C-1776.50,-1812.98 -1787.02,-1823.50 -1800,-1823.50Z" fill="#5caaaa"/>
        <path d="M952.57,800C877.17,817.81 817.81,877.17 800.00,952.57L800.00,952.57L800.00,1047.43L800.00,1047.43C817.81,1122.83 877.17,1182.19 952.57,1200L1047.43,1200C1122.83,1182.19 1182.19,1122.83 1200.00,1047.43L1200.00,1047.43L1200.00,952.57L1200.00,952.57C1182.19,877.17 1122.83,817.81 1047.43,800Z" fill="#d2e1c8"/>
        <path d="M-1400,950.50C-1427.34,950.50 -1449.50,972.66 -1449.50,1000C-1449.50,1027.34 -1427.34,1049.50 -1400,1049.50C-1372.66,1049.50 -1350.50,1027.34 -1350.50,1000C-1350.50,972.66 -1372.66,950.50 -1400,950.50Z" fill="#d94d27"/>
        <path d="M200.00,846.50C115.22,846.50 46.50,915.22 46.50,1000C46.50,1084.78 115.22,1153.50 200.00,1153.50C284.78,1153.50 353.50,1084.78 353.50,1000C353.50,915.22 284.78,846.50 200.00,846.50Z" fill="#5caaaa"/>
        <path d="M952.57,-2000C877.17,-1982.19 817.81,-1922.83 800.00,-1847.43L800.00,-1847.43L800.00,-1752.57L800.00,-1752.57C817.81,-1677.17 877.17,-1617.81 952.57,-1600L1047.43,-1600C1122.83,-1617.81 1182.19,-1677.17 1200.00,-1752.57L1200.00,-1752.57L1200.00,-1847.43L1200.00,-1847.43C1182.19,-1922.83 1122.83,-1982.19 1047.43,-2000Z" fill="#d2e1c8"/>
        <path d="M1283.34,800L1283.34,800C1248.90,820.13 1220.13,848.90 1200.00,883.34L1200.00,883.34L1200.00,1116.66L1200.00,1116.66C1220.13,1151.10 1248.90,1179.87 1283.34,1200L1516.66,1200C1551.10,1179.87 1579.87,1151.10 1600.00,1116.66L1600.00,1116.66L1600.00,883.34L1600.00,883.34C1579.87,848.90 1551.10,820.13 1516.66,800Z" fill="#d94d27"/>
        <path d="M1283.34,1600L1283.34,1600C1248.90,1620.13 1220.13,1648.90 1200.00,1683.34L1200.00,1683.34L1200.00,1916.66L1200.00,1916.66C1220.13,1951.10 1248.90,1979.87 1283.34,2000L1516.66,2000C1551.10,1979.87 1579.87,1951.10 1600.00,1916.66L1600.00,1916.66L1600.00,1683.34L1600.00,1683.34C1579.87,1648.90 1551.10,1620.13 1516.66,1600Z" fill="#5caaaa"/>
        <path d="M1637.79,-800C1623.93,-788.74 1611.26,-776.07 1600.00,-762.21L1600.00,-762.21L1600.00,-437.79L1600.00,-437.79C1611.26,-423.93 1623.93,-411.26 1637.79,-400L1962.21,-400C1976.07,-411.26 1988.74,-423.93 2000.00,-437.79L2000.00,-437.79L2000.00,-762.21L2000.00,-762.21C1988.74,-776.07 1976.07,-788.74 1962.21,-800Z" fill="#d2e1c8"/>
        <path d="M952.57,0C877.17,17.81 817.81,77.17 800.00,152.57L800.00,152.57L800.00,247.43L800.00,247.43C817.81,322.83 877.17,382.19 952.57,400L1047.43,400C1122.83,382.19 1182.19,322.83 1200.00,247.43L1200.00,247.43L1200.00,152.57L1200.00,152.57C1182.19,77.17 1122.83,17.81 1047.43,0Z" fill="#d94d27"/>
        <path d="M952.57,-1600C877.17,-1582.19 817.81,-1522.83 800.00,-1447.43L800.00,-1447.43L800.00,-1352.57L800.00,-1352.57C817.81,-1277.17 877.17,-1217.81 952.57,-1200L1047.43,-1200C1122.83,-1217.81 1182.19,-1277.17 1200.00,-1352.57L1200.00,-1352.57L1200.00,-1447.43L1200.00,-1447.43C1182.19,-1522.83 1122.83,-1582.19 1047.43,-1600Z" fill="#5caaaa"/>
        <path d="M1283.34,0L1283.34,0C1248.90,20.13 1220.13,48.90 1200.00,83.34L1200.00,83.34L1200.00,316.66L1200.00,316.66C1220.13,351.10 1248.90,379.87 1283.34,400L1516.66,400C1551.10,379.87 1579.87,351.10 1600.00,316.66L1600.00,316.66L1600.00,83.34L1600.00,83.34C1579.87,48.90 1551.10,20.13 1516.66,0Z" fill="#d2e1c8"/>
        <path d="M-200.00,-327.50C-270.42,-327.50 -327.50,-270.42 -327.50,-200C-327.50,-129.58 -270.42,-72.50 -200.00,-72.50C-129.58,-72.50 -72.50,-129.58 -72.50,-200C-72.50,-270.42 -129.58,-327.50 -200.00,-327.50Z" fill="#d94d27"/>
        <path d="M-200.00,872.50C-270.42,872.50 -327.50,929.58 -327.50,1000C-327.50,1070.42 -270.42,1127.50 -200.00,1127.50C-129.58,1127.50 -72.50,1070.42 -72.50,1000C-72.50,929.58 -129.58,872.50 -200.00,872.50Z" fill="#5caaaa"/>
        <path d="M-1000,-675.50C-1041.70,-675.50 -1075.50,-641.70 -1075.50,-600C-1075.50,-558.30 -1041.70,-524.50 -1000,-524.50C-958.30,-524.50 -924.50,-558.30 -924.50,-600C-924.50,-641.70 -958.30,-675.50 -1000,-675.50Z" fill="#d2e1c8"/>
        <path d="M600,420.50C500.86,420.50 420.50,500.86 420.50,600C420.50,699.14 500.86,779.50 600,779.50C699.14,779.50 779.50,699.14 779.50,600C779.50,500.86 699.14,420.50 600,420.50Z" fill="#d94d27"/>
        <path d="M-1800,-623.50C-1812.98,-623.50 -1823.50,-612.98 -1823.50,-600C-1823.50,-587.02 -1812.98,-576.50 -1800,-576.50C-1787.02,-576.50 -1776.50,-587.02 -1776.50,-600C-1776.50,-612.98 -1787.02,-623.50 -1800,-623.50Z" fill="#5caaaa"/>
        <path d="M-1000,1724.50C-1041.70,1724.50 -1075.50,1758.30 -1075.50,1800C-1075.50,1841.70 -1041.70,1875.50 -1000,1875.50C-958.30,1875.50 -924.50,1841.70 -924.50,1800C-924.50,1758.30 -958.30,1724.50 -1000,1724.50Z" fill="#d2e1c8"/>
        <path d="M-600,1698.50C-656.06,1698.50 -701.50,1743.94 -701.50,1800C-701.50,1856.06 -656.06,1901.50 -600,1901.50C-543.94,1901.50 -498.50,1856.06 -498.50,1800C-498.50,1743.94 -543.94,1698.50 -600,1698.50Z" fill="#d94d27"/>
        <path d="M-1000,-1075.50C-1041.70,-1075.50 -1075.50,-1041.70 -1075.50,-1000C-1075.50,-958.30 -1041.70,-924.50 -1000,-924.50C-958.30,-924.50 -924.50,-958.30 -924.50,-1000C-924.50,-1041.70 -958.30,-1075.50 -1000,-1075.50Z" fill="#5caaaa"/>
        <path d="M-600,498.50C-656.06,498.50 -701.50,543.94 -701.50,600C-701.50,656.06 -656.06,701.50 -600,701.50C-543.94,701.50 -498.50,656.06 -498.50,600C-498.50,543.94 -543.94,498.50 -600,498.50Z" fill="#d2e1c8"/>
        <path d="M1283.34,-1200L1283.34,-1200C1248.90,-1179.87 1220.13,-1151.10 1200.00,-1116.66L1200.00,-1116.66L1200.00,-883.34L1200.00,-883.34C1220.13,-848.90 1248.90,-820.13 1283.34,-800L1516.66,-800C1551.10,-820.13 1579.87,-848.90 1600.00,-883.34L1600.00,-883.34L1600.00,-1116.66L1600.00,-1116.66C1579.87,-1151.10 1551.10,-1179.87 1516.66,-1200Z" fill="#d94d27"/>
        <path d="M-1400,150.50C-1427.34,150.50 -1449.50,172.66 -1449.50,200C-1449.50,227.34 -1427.34,249.50 -1400,249.50C-1372.66,249.50 -1350.50,227.34 -1350.50,200C-1350.50,172.66 -1372.66,150.50 -1400,150.50Z" fill="#5caaaa"/>
        <path d="M200.00,-353.50C115.22,-353.50 46.50,-284.78 46.50,-200C46.50,-115.22 115.22,-46.50 200.00,-46.50C284.78,-46.50 353.50,-115.22 353.50,-200C353.50,-284.78 284.78,-353.50 200.00,-353.50Z" fill="#d2e1c8"/>
        <path d="M1283.34,400L1283.34,400C1248.90,420.13 1220.13,448.90 1200.00,483.34L1200.00,483.34L1200.00,716.66L1200.00,716.66C1220.13,751.10 1248.90,779.87 1283.34,800L1516.66,800C1551.10,779.87 1579.87,751.10 1600.00,716.66L1600.00,716.66L1600.00,483.34L1600.00,483.34C1579.87,448.90 1551.10,420.13 1516.66,400Z" fill="#d94d27"/>
        <path d="M1283.34,1200L1283.34,1200C1248.90,1220.13 1220.13,1248.90 1200.00,1283.34L1200.00,1283.34L1200.00,1516.66L1200.00,1516.66C1220.13,1551.10 1248.90,1579.87 1283.34,1600L1516.66,1600C1551.10,1579.87 1579.87,1551.10 1600.00,1516.66L1600.00,1516.66L1600.00,1283.34L1600.00,1283.34C1579.87,1248.90 1551.10,1220.13 1516.66,1200Z" fill="#5caaaa"/>
        <path d="M-1000,-275.50C-1041.70,-275.50 -1075.50,-241.70 -1075.50,-200C-1075.50,-158.30 -1041.70,-124.50 -1000,-124.50C-958.30,-124.50 -924.50,-158.30 -924.50,-200C-924.50,-241.70 -958.30,-275.50 -1000,-275.50Z" fill="#d2e1c8"/>
        <path d="M600,-379.50C500.86,-379.50 420.50,-299.14 420.50,-200C420.50,-100.86 500.86,-20.50 600,-20.50C699.14,-20.50 779.50,-100.86 779.50,-200C779.50,-299.14 699.14,-379.50 600,-379.50Z" fill="#d94d27"/>
        <path d="M-200.00,472.50C-270.42,472.50 -327.50,529.58 -327.50,600C-327.50,670.42 -270.42,727.50 -200.00,727.50C-129.58,727.50 -72.50,670.42 -72.50,600C-72.50,529.58 -129.58,472.50 -200.00,472.50Z" fill="#5caaaa"/>
        <path d="M-1000,1324.50C-1041.70,1324.50 -1075.50,1358.30 -1075.50,1400C-1075.50,1441.70 -1041.70,1475.50 -1000,1475.50C-958.30,1475.50 -924.50,1441.70 -924.50,1400C-924.50,1358.30 -958.30,1324.50 -1000,1324.50Z" fill="#d2e1c8"/>
        <path d="M-1800,1776.50C-1812.98,1776.50 -1823.50,1787.02 -1823.50,1800C-1823.50,1812.98 -1812.98,1823.50 -1800,1823.50C-1787.02,1823.50 -1776.50,1812.98 -1776.50,1800C-1776.50,1787.02 -1787.02,1776.50 -1800,1776.50Z" fill="#d94d27"/>
        <path d="M-600,898.50C-656.06,898.50 -701.50,943.94 -701.50,1000C-701.50,1056.06 -656.06,1101.50 -600,1101.50C-543.94,1101.50 -498.50,1056.06 -498.50,1000C-498.50,943.94 -543.94,898.50 -600,898.50Z" fill="#5caaaa"/>
        <path d="M-600,-1501.50C-656.06,-1501.50 -701.50,-1456.06 -701.50,-1400C-701.50,-1343.94 -656.06,-1298.50 -600,-1298.50C-543.94,-1298.50 -498.50,-1343.94 -498.50,-1400C-498.50,-1456.06 -543.94,-1501.50 -600,-1501.50Z" fill="#d2e1c8"/>
        <path d="M1637.79,1200C1623.93,1211.26 1611.26,1223.93 1600.00,1237.79L1600.00,1237.79L1600.00,1562.21L1600.00,1562.21C1611.26,1576.07 1623.93,1588.74 1637.79,1600L1962.21,1600C1976.07,1588.74 1988.74,1576.07 2000.00,1562.21L2000.00,1562.21L2000.00,1237.79L2000.00,1237.79C1988.74,1223.93 1976.07,1211.26 1962.21,1200Z" fill="#d94d27"/>
        <path d="M600,1620.50C500.86,1620.50 420.50,1700.86 420.50,1800C420.50,1899.14 500.86,1979.50 600,1979.50C699.14,1979.50 779.50,1899.14 779.50,1800C779.50,1700.86 699.14,1620.50 600,1620.50Z" fill="#5caaaa"/>
        <path d="M600,20.50C500.86,20.50 420.50,100.86 420.50,200C420.50,299.14 500.86,379.50 600,379.50C699.14,379.50 779.50,299.14 779.50,200C779.50,100.86 699.14,20.50 600,20.50Z" fill="#d2e1c8"/>
        <path d="M-200.00,-1127.50C-270.42,-1127.50 -327.50,-1070.42 -327.50,-1000C-327.50,-929.58 -270.42,-872.50 -200.00,-872.50C-129.58,-872.50 -72.50,-929.58 -72.50,-1000C-72.50,-1070.42 -129.58,-1127.50 -200.00,-1127.50Z" fill="#d94d27"/>
        <path d="M-1800,576.50C-1812.98,576.50 -1823.50,587.02 -1823.50,600C-1823.50,612.98 -1812.98,623.50 -1800,623.50C-1787.02,623.50 -1776.50,612.98 -1776.50,600C-1776.50,587.02 -1787.02,576.50 -1800,576.50Z" fill="#5caaaa"/>
        <path d="M-600,-301.50C-656.06,-301.50 -701.50,-256.06 -701.50,-200C-701.50,-143.94 -656.06,-98.50 -600,-98.50C-543.94,-98.50 -498.50,-143.94 -498.50,-200C-498.50,-256.06 -543.94,-301.50 -600,-301.50Z" fill="#d2e1c8"/>
        <path d="M1637.79,0C1623.93,11.26 1611.26,23.93 1600.00,37.79L1600.00,37.79L1600.00,362.21L1600.00,362.21C1611.26,376.07 1623.93,388.74 1637.79,400L1962.21,400C1976.07,388.74 1988.74,376.07 2000.00,362.21L2000.00,362.21L2000.00,37.79L2000.00,37.79C1988.74,23.93 1976.07,11.26 1962.21,0Z" fill="#d94d27"/>
        <path d="M952.57,1600C877.17,1617.81 817.81,1677.17 800.00,1752.57L800.00,1752.57L800.00,1847.43L800.00,1847.43C817.81,1922.83 877.17,1982.19 952.57,2000L1047.43,2000C1122.83,1982.19 1182.19,1922.83 1200.00,1847.43L1200.00,1847.43L1200.00,1752.57L1200.00,1752.57C1182.19,1677.17 1122.83,1617.81 1047.43,1600Z" fill="#5caaaa"/>
        <path d="M-1400,-1849.50C-1427.34,-1849.50 -1449.50,-1827.34 -1449.50,-1800C-1449.50,-1772.66 -1427.34,-1750.50 -1400,-1750.50C-1372.66,-1750.50 -1350.50,-1772.66 -1350.50,-1800C-1350.50,-1827.34 -1372.66,-1849.50 -1400,-1849.50Z" fill="#d2e1c8"/>
        <path d="M-1800,976.50C-1812.98,976.50 -1823.50,987.02 -1823.50,1000C-1823.50,1012.98 -1812.98,1023.50 -1800,1023.50C-1787.02,1023.50 -1776.50,1012.98 -1776.50,1000C-1776.50,987.02 -1787.02,976.50 -1800,976.50Z" fill="#d94d27"/>
        <path d="M600,-779.50C500.86,-779.50 420.50,-699.14 420.50,-600C420.50,-500.86 500.86,-420.50 600,-420.50C699.14,-420.50 779.50,-500.86 779.50,-600C779.50,-699.14 699.14,-779.50 600,-779.50Z" fill="#5caaaa"/>
        <path d="M1637.79,1600C1623.93,1611.26 1611.26,1623.93 1600.00,1637.79L1600.00,1637.79L1600.00,1962.21L1600.00,1962.21C1611.26,1976.07 1623.93,1988.74 1637.79,2000L1962.21,2000C1976.07,1988.74 1988.74,1976.07 2000.00,1962.21L2000.00,1962.21L2000.00,1637.79L2000.00,1637.79C1988.74,1623.93 1976.07,1611.26 1962.21,1600Z" fill="#d2e1c8"/>
        <path d="M1283.34,-1600L1283.34,-1600C1248.90,-1579.87 1220.13,-1551.10 1200.00,-1516.66L1200.00,-1516.66L1200.00,-1283.34L1200.00,-1283.34C1220.13,-1248.90 1248.90,-1220.13 1283.34,-1200L1516.66,-1200C1551.10,-1220.13 1579.87,-1248.90 1600.00,-1283.34L1600.00,-1283.34L1600.00,-1516.66L1600.00,-1516.66C1579.87,-1551.10 1551.10,-1579.87 1516.66,-1600Z" fill="#d94d27"/>
        <path d="M600,-1979.50C500.86,-1979.50 420.50,-1899.14 420.50,-1800C420.50,-1700.86 500.86,-1620.50 600,-1620.50C699.14,-1620.50 779.50,-1700.86 779.50,-1800C779.50,-1899.14 699.14,-1979.50 600,-1979.50Z" fill="#5caaaa"/>
        <path d="M-600,-1101.50C-656.06,-1101.50 -701.50,-1056.06 -701.50,-1000C-701.50,-943.94 -656.06,-898.50 -600,-898.50C-543.94,-898.50 -498.50,-943.94 -498.50,-1000C-498.50,-1056.06 -543.94,-1101.50 -600,-1101.50Z" fill="#d2e1c8"/>
        <path d="M-1000,124.50C-1041.70,124.50 -1075.50,158.30 -1075.50,200C-1075.50,241.70 -1041.70,275.50 -1000,275.50C-958.30,275.50 -924.50,241.70 -924.50,200C-924.50,158.30 -958.30,124.50 -1000,124.50Z" fill="#d94d27"/>
        <path d="M952.57,-1200C877.17,-1182.19 817.81,-1122.83 800.00,-1047.43L800.00,-1047.43L800.00,-952.57L800.00,-952.57C817.81,-877.17 877.17,-817.81 952.57,-800L1047.43,-800C1122.83,-817.81 1182.19,-877.17 1200.00,-952.57L1200.00,-952.57L1200.00,-1047.43L1200.00,-1047.43C1182.19,-1122.83 1122.83,-1182.19 1047.43,-1200Z" fill="#5caaaa"/>
        <path d="M-1800,176.50C-1812.98,176.50 -1823.50,187.02 -1823.50,200C-1823.50,212.98 -1812.98,223.50 -1800,223.50C-1787.02,223.50 -1776.50,212.98 -1776.50,200C-1776.50,187.02 -1787.02,176.50 -1800,176.50Z" fill="#d2e1c8"/>
        <path d="M600,-1579.50C500.86,-1579.50 420.50,-1499.14 420.50,-1400C420.50,-1300.86 500.86,-1220.50 600,-1220.50C699.14,-1220.50 779.50,-1300.86 779.50,-1400C779.50,-1499.14 699.14,-1579.50 600,-1579.50Z" fill="#d94d27"/>
        <path d="M1637.79,-1200C1623.93,-1188.74 1611.26,-1176.07 1600.00,-1162.21L1600.00,-1162.21L1600.00,-837.79L1600.00,-837.79C1611.26,-823.93 1623.93,-811.26 1637.79,-800L1962.21,-800C1976.07,-811.26 1988.74,-823.93 2000.00,-837.79L2000.00,-837.79L2000.00,-1162.21L2000.00,-1162.21C1988.74,-1176.07 1976.07,-1188.74 1962.21,-1200Z" fill="#5caaaa"/>
        <path d="M-1800,-223.50C-1812.98,-223.50 -1823.50,-212.98 -1823.50,-200C-1823.50,-187.02 -1812.98,-176.50 -1800,-176.50C-1787.02,-176.50 -1776.50,-187.02 -1776.50,-200C-1776.50,-212.98 -1787.02,-223.50 -1800,-223.50Z" fill="#d2e1c8"/>
        <path d="M952.57,-800C877.17,-782.19 817.81,-722.83 800.00,-647.43L800.00,-647.43L800.00,-552.57L800.00,-552.57C817.81,-477.17 877.17,-417.81 952.57,-400L1047.43,-400C1122.83,-417.81 1182.19,-477.17 1200.00,-552.57L1200.00,-552.57L1200.00,-647.43L1200.00,-647.43C1182.19,-722.83 1122.83,-782.19 1047.43,-800Z" fill="#d94d27"/>
        <path d="M200.00,1246.50C115.22,1246.50 46.50,1315.22 46.50,1400C46.50,1484.78 115.22,1553.50 200.00,1553.50C284.78,1553.50 353.50,1484.78 353.50,1400C353.50,1315.22 284.78,1246.50 200.00,1246.50Z" fill="#5caaaa"/>
        <path d="M-1400,-1449.50C-1427.34,-1449.50 -1449.50,-1427.34 -1449.50,-1400C-1449.50,-1372.66 -1427.34,-1350.50 -1400,-1350.50C-1372.66,-1350.50 -1350.50,-1372.66 -1350.50,-1400C-1350.50,-1427.34 -1372.66,-1449.50 -1400,-1449.50Z" fill="#d2e1c8"/>
        <path d="M1637.79,-400C1623.93,-388.74 1611.26,-376.07 1600.00,-362.21L1600.00,-362.21L1600.00,-37.79L1600.00,-37.79C1611.26,-23.93 1623.93,-11.26 1637.79,0L1962.21,0C1976.07,-11.26 1988.74,-23.93 2000.00,-37.79L2000.00,-37.79L2000.00,-362.21L2000.00,-362.21C1988.74,-376.07 1976.07,-388.74 1962.21,-400Z" fill="#d94d27"/>
        <path d="M-1400,550.50C-1427.34,550.50 -1449.50,572.66 -1449.50,600C-1449.50,627.34 -1427.34,649.50 -1400,649.50C-1372.66,649.50 -1350.50,627.34 -1350.50,600C-1350.50,572.66 -1372.66,550.50 -1400,550.50Z" fill="#5caaaa"/>
        <path d="M-200.00,-1927.50C-270.42,-1927.50 -327.50,-1870.42 -327.50,-1800C-327.50,-1729.58 -270.42,-1672.50 -200.00,-1672.50C-129.58,-1672.50 -72.50,-1729.58 -72.50,-1800C-72.50,-1870.42 -129.58,-1927.50 -200.00,-1927.50Z" fill="#d2e1c8"/>
        <path d="M600,1220.50C500.86,1220.50 420.50,1300.86 420.50,1400C420.50,1499.14 500.86,1579.50 600,1579.50C699.14,1579.50 779.50,1499.14 779.50,1400C779.50,1300.86 699.14,1220.50 600,1220.50Z" fill="#d94d27"/>
        <path d="M-600,-1901.50C-656.06,-1901.50 -701.50,-1856.06 -701.50,-1800C-701.50,-1743.94 -656.06,-1698.50 -600,-1698.50C-543.94,-1698.50 -498.50,-1743.94 -498.50,-1800C-498.50,-1856.06 -543.94,-1901.50 -600,-1901.50Z" fill="#5caaaa"/>
        <path d="M-1400,-1049.50C-1427.34,-1049.50 -1449.50,-1027.34 -1449.50,-1000C-1449.50,-972.66 -1427.34,-950.50 -1400,-950.50C-1372.66,-950.50 -1350.50,-972.66 -1350.50,-1000C-1350.50,-1027.34 -1372.66,-1049.50 -1400,-1049.50Z" fill="#d2e1c8"/>
        <path d="M600,-1179.50C500.86,-1179.50 420.50,-1099.14 420.50,-1000C420.50,-900.86 500.86,-820.50 600,-820.50C699.14,-820.50 779.50,-900.86 779.50,-1000C779.50,-1099.14 699.14,-1179.50 600,-1179.50Z" fill="#d94d27"/>
        <path d="M-1800,-1423.50C-1812.98,-1423.50 -1823.50,-1412.98 -1823.50,-1400C-1823.50,-1387.02 -1812.98,-1376.50 -1800,-1376.50C-1787.02,-1376.50 -1776.50,-1387.02 -1776.50,-1400C-1776.50,-1412.98 -1787.02,-1423.50 -1800,-1423.50Z" fill="#5caaaa"/>
        <path d="M-600,1298.50C-656.06,1298.50 -701.50,1343.94 -701.50,1400C-701.50,1456.06 -656.06,1501.50 -600,1501.50C-543.94,1501.50 -498.50,1456.06 -498.50,1400C-498.50,1343.94 -543.94,1298.50 -600,1298.50Z" fill="#d2e1c8"/>
        <path d="M-1400,1350.50C-1427.34,1350.50 -1449.50,1372.66 -1449.50,1400C-1449.50,1427.34 -1427.34,1449.50 -1400,1449.50C-1372.66,1449.50 -1350.50,1427.34 -1350.50,1400C-1350.50,1372.66 -1372.66,1350.50 -1400,1350.50Z" fill="#d94d27"/>
        <path d="M200.00,-1553.50C115.22,-1553.50 46.50,-1484.78 46.50,-1400C46.50,-1315.22 115.22,-1246.50 200.00,-1246.50C284.78,-1246.50 353.50,-1315.22 353.50,-1400C353.50,-1484.78 284.78,-1553.50 200.00,-1553.50Z" fill="#5caaaa"/>
        <path d="M952.57,-400C877.17,-382.19 817.81,-322.83 800.00,-247.43L800.00,-247.43L800.00,-152.57L800.00,-152.57C817.81,-77.17 877.17,-17.81 952.57,0L1047.43,0C1122.83,-17.81 1182.19,-77.17 1200.00,-152.57L1200.00,-152.57L1200.00,-247.43L1200.00,-247.43C1182.19,-322.83 1122.83,-382.19 1047.43,-400Z" fill="#d2e1c8"/>
        <path d="M-1400,-249.50C-1427.34,-249.50 -1449.50,-227.34 -1449.50,-200C-1449.50,-172.66 -1427.34,-150.50 -1400,-150.50C-1372.66,-150.50 -1350.50,-172.66 -1350.50,-200C-1350.50,-227.34 -1372.66,-249.50 -1400,-249.50Z" fill="#d94d27"/>
        <path d="M-200.00,-1527.50C-270.42,-1527.50 -327.50,-1470.42 -327.50,-1400C-327.50,-1329.58 -270.42,-1272.50 -200.00,-1272.50C-129.58,-1272.50 -72.50,-1329.58 -72.50,-1400C-72.50,-1470.42 -129.58,-1527.50 -200.00,-1527.50Z" fill="#5caaaa"/>
        <path d="M1637.79,-1600C1623.93,-1588.74 1611.26,-1576.07 1600.00,-1562.21L1600.00,-1562.21L1600.00,-1237.79L1600.00,-1237.79C1611.26,-1223.93 1623.93,-1211.26 1637.79,-1200L1962.21,-1200C1976.07,-1211.26 1988.74,-1223.93 2000.00,-1237.79L2000.00,-1237.79L2000.00,-1562.21L2000.00,-1562.21C1988.74,-1576.07 1976.07,-1588.74 1962.21,-1600Z" fill="#d2e1c8"/>
        <path d="M-1000,-1875.50C-1041.70,-1875.50 -1075.50,-1841.70 -1075.50,-1800C-1075.50,-1758.30 -1041.70,-1724.50 -1000,-1724.50C-958.30,-1724.50 -924.50,-1758.30 -924.50,-1800C-924.50,-1841.70 -958.30,-1875.50 -1000,-1875.50Z" fill="#d94d27"/>
    </g>
</svg>