<?xml version="1.0"?>
<svg xmlns="http://www.w3.org/2000/svg" width="4000" height="4000" viewBox="-2000 -2000 4000 4000">
    <path d="M-2000,-2000L2000,-2000L2000,2000L-2000,2000Z" fill="#30421b"/>
    <g>
        <path d="M1200,-400L1200,0L1226.24,0L1600,-284.84L1600,-400Z" fill="#ae69a7"/>
        <path d="M0,400L0,800L17.54,800L368.44,400Z" fill="#ac8a3d"/>
        <path d="M0,0L0,400L17.54,400L368.44,0Z" fill="#c8d3e1"/>
        <path d="M-1600,-800L-1600,-400L-1594.05,-400L-1475.11,-800Z" fill="#ae69a7"/>
        <path d="M-400,1200L-400,1600L-385.35,1600L-92.44,1200Z" fill="#ac8a3d"/>
        <path d="M1200,-2000L1200,-1600L1226.24,-1600L1600,-1884.84L1600,-2000Z" fill="#c8d3e1"/>
        <path d="M1200,-800L1200,-400L1226.24,-400L1600,-684.84L1600,-800Z" fill="#ae69a7"/>
        <path d="M-400,-800L-400,-400L-385.35,-400L-92.44,-800Z" fill="#ac8a3d"/>
        <path d="M-400,1600L-400,2000L-385.35,2000L-92.44,1600Z" fill="#c8d3e1"/>
        <path d="M-800,0L-800,400L-788.25,400L-553.33,0Z" fill="#ae69a7"/>
        <path d="M-2000,-1200L-2000,-800L-1996.95,-800L-1936,-1200Z" fill="#ac8a3d"/>
        <path d="M0,-2000L0,-1600L17.54,-1600L368.44,-2000Z" fill="#c8d3e1"/>
        <path d="M-2000,1200L-2000,1600L-1996.95,1600L-1936,1200Z" fill="#ae69a7"/>
        <path d="M0,-1200L0,-800L17.54,-800L368.44,-1200Z" fill="#ac8a3d"/>
        <path d="M-800,-800L-800,-400L-788.25,-400L-553.33,-800Z" fill="#c8d3e1"/>
        <path d="M400,800L400,1200L420.44,1200L800,828.70L800,800Z" fill="#ae69a7"/>
        <path d="M-1200,800L-1200,1200L-1191.15,1200L-1014.22,800Z" fill="#ac8a3d"/>
        <path d="M-400,0L-400,400L-385.35,400L-92.44,0Z" fill="#c8d3e1"/>
        <path d="M-1200,-1600L-1200,-1200L-1191.15,-1200L-1014.22,-1600Z" fill="#ae69a7"/>
        <path d="M0,-800L0,-400L17.54,-400L368.44,-800Z" fill="#ac8a3d"/>
        <path d="M800,1200L800,1600L823.34,1600L1200,1277.30L1200,1200Z" fill="#c8d3e1"/>
        <path d="M800,400L800,800L823.34,800L1200,477.30L1200,400Z" fill="#ae69a7"/>
        <path d="M1600,-2000L1600,-1600L1629.14,-1600L2000,-1854.51L2000,-2000Z" fill="#ac8a3d"/>
        <path d="M0,1600L0,2000L17.54,2000L368.44,1600Z" fill="#c8d3e1"/>
        <path d="M-1600,1600L-1600,2000L-1594.05,2000L-1475.11,1600Z" fill="#ae69a7"/>
        <path d="M1600,800L1600,1200L1629.14,1200L2000,945.49L2000,800Z" fill="#ac8a3d"/>
        <path d="M1600,400L1600,800L1629.14,800L2000,545.49L2000,400Z" fill="#c8d3e1"/>
        <path d="M-1200,400L-1200,800L-1191.15,800L-1014.22,400Z" fill="#ae69a7"/>
        <path d="M-2000,-2000L-2000,-1600L-1996.95,-1600L-1936,-2000Z" fill="#ac8a3d"/>
        <path d="M800,800L800,1200L823.34,1200L1200,877.30L1200,800Z" fill="#c8d3e1"/>
        <path d="M-1600,800L-1600,1200L-1594.05,1200L-1475.11,800Z" fill="#ae69a7"/>
        <path d="M0,800L0,1200L17.54,1200L368.44,800Z" fill="#ac8a3d"/>
        <path d="M800,-2000L800,-1600L823.34,-1600L1200,-1922.70L1200,-2000Z" fill="#c8d3e1"/>
        <path d="M1200,800L1200,1200L1226.24,1200L1600,915.16L1600,800Z" fill="#ae69a7"/>
        <path d="M1200,1600L1200,2000L1226.24,2000L1600,1715.16L1600,1600Z" fill="#ac8a3d"/>
        <path d="M1600,-800L1600,-400L1629.14,-400L2000,-654.51L2000,-800Z" fill="#c8d3e1"/>
        <path d="M800,0L800,400L823.34,400L1200,77.30L1200,0Z" fill="#ae69a7"/>
        <path d="M800,-1600L800,-1200L823.34,-1200L1200,-1522.70L1200,-1600Z" fill="#ac8a3d"/>
        <path d="M1200,0L1200,400L1226.24,400L1600,115.16L1600,0Z" fill="#c8d3e1"/>
        <path d="M-400,-400L-400,0L-385.35,0L-92.44,-400Z" fill="#ae69a7"/>
        <path d="M-400,800L-400,1200L-385.35,1200L-92.44,800Z" fill="#ac8a3d"/>
        <path d="M-1200,-800L-1200,-400L-1191.15,-400L-1014.22,-800Z" fill="#c8d3e1"/>
        <path d="M400,400L400,800L420.44,800L800,428.70L800,400Z" fill="#ae69a7"/>
        <path d="M-2000,-800L-2000,-400L-1996.95,-400L-1936,-800Z" fill="#ac8a3d"/>
        <path d="M-1200,1600L-1200,2000L-1191.15,2000L-1014.22,1600Z" fill="#c8d3e1"/>
        <path d="M-800,1600L-800,2000L-788.25,2000L-553.33,1600Z" fill="#ae69a7"/>
        <path d="M-1200,-1200L-1200,-800L-1191.15,-800L-1014.22,-1200Z" fill="#ac8a3d"/>
        <path d="M-800,400L-800,800L-788.25,800L-553.33,400Z" fill="#c8d3e1"/>
        <path d="M1200,-1200L1200,-800L1226.24,-800L1600,-1084.84L1600,-1200Z" fill="#ae69a7"/>
        <path d="M-1600,0L-1600,400L-1594.05,400L-1475.11,0Z" fill="#ac8a3d"/>
        <path d="M0,-400L0,0L17.54,0L368.44,-400Z" fill="#c8d3e1"/>
        <path d="M1200,400L1200,800L1226.24,800L1600,515.16L1600,400Z" fill="#ae69a7"/>
        <path d="M1200,1200L1200,1600L1226.24,1600L1600,1315.16L1600,1200Z" fill="#ac8a3d"/>
        <path d="M-1200,-400L-1200,0L-1191.15,0L-1014.22,-400Z" fill="#c8d3e1"/>
        <path d="M400,-400L400,0L420.44,0L800,-371.30L800,-400Z" fill="#ae69a7"/>
        <path d="M-400,400L-400,800L-385.35,800L-92.44,400Z" fill="#ac8a3d"/>
        <path d="M-1200,1200L-1200,1600L-1191.15,1600L-1014.22,1200Z" fill="#c8d3e1"/>
        <path d="M-2000,1600L-2000,2000L-1996.95,2000L-1936,1600Z" fill="#ae69a7"/>
        <path d="M-800,800L-800,1200L-788.25,1200L-553.33,800Z" fill="#ac8a3d"/>
        <path d="M-800,-1600L-800,-1200L-788.25,-1200L-553.33,-1600Z" fill="#c8d3e1"/>
        <path d="M1600,1200L1600,1600L1629.14,1600L2000,1345.49L2000,1200Z" fill="#ae69a7"/>
        <path d="M400,1600L400,2000L420.44,2000L800,1628.70L800,1600Z" fill="#ac8a3d"/>
        <path d="M400,0L400,400L420.44,400L800,28.70L800,0Z" fill="#c8d3e1"/>
        <path d="M-400,-1200L-400,-800L-385.35,-800L-92.44,-1200Z" fill="#ae69a7"/>
        <path d="M-2000,400L-2000,800L-1996.95,800L-1936,400Z" fill="#ac8a3d"/>
        <path d="M-800,-400L-800,0L-788.25,0L-553.33,-400Z" fill="#c8d3e1"/>
        <path d="M1600,0L1600,400L1629.14,400L2000,145.49L2000,0Z" fill="#ae69a7"/>
        <path d="M800,1600L800,2000L823.34,2000L1200,1677.30L1200,1600Z" fill="#ac8a3d"/>
        <path d="M-1600,-2000L-1600,-1600L-1594.05,-1600L-1475.11,-2000Z" fill="#c8d3e1"/>
        <path d="M-2000,800L-2000,1200L-1996.95,1200L-1936,800Z" fill="#ae69a7"/>
        <path d="M400,-800L400,-400L420.44,-400L800,-771.30L800,-800Z" fill="#ac8a3d"/>
        <path d="M1600,1600L1600,2000L1629.14,2000L2000,1745.49L2000,1600Z" fill="#c8d3e1"/>
        <path d="M1200,-1600L1200,-1200L1226.24,-1200L1600,-1484.84L1600,-1600Z" fill="#ae69a7"/>
        <path d="M400,-2000L400,-1600L420.44,-1600L800,-1971.30L800,-2000Z" fill="#ac8a3d"/>
        <path d="M-800,-1200L-800,-800L-788.25,-800L-553.33,-1200Z" fill="#c8d3e1"/>
        <path d="M-1200,0L-1200,400L-1191.15,400L-1014.22,0Z" fill="#ae69a7"/>
        <path d="M800,-1200L800,-800L823.34,-800L1200,-1122.70L1200,-1200Z" fill="#ac8a3d"/>
        <path d="M-2000,0L-2000,400L-1996.95,400L-1936,0Z" fill="#c8d3e1"/>
        <path d="M400,-1600L400,-1200L420.44,-1200L800,-1571.30L800,-1600Z" fill="#ae69a7"/>
        <path d="M1600,-1200L1600,-800L1629.14,-800L2000,-1054.51L2000,-1200Z" fill="#ac8a3d"/>
        <path d="M-2000,-400L-2000,0L-1996.95,0L-1936,-400Z" fill="#c8d3e1"/>
        <path d="M800,-800L800,-400L823.34,-400L1200,-722.70L1200,-800Z" fill="#ae69a7"/>
        <path d="M0,1200L0,1600L17.54,1600L368.44,1200Z" fill="#ac8a3d"/>
        <path d="M-1600,-1600L-1600,-1200L-1594.05,-1200L-1475.11,-1600Z" fill="#c8d3e1"/>
        <path d="M1600,-400L1600,0L1629.14,0L2000,-254.51L2000,-400Z" fill="#ae69a7"/>
        <path d="M-1600,400L-1600,800L-1594.05,800L-1475.11,400Z" fill="#ac8a3d"/>
        <path d="M-400,-2000L-400,-1600L-385.35,-1600L-92.44,-2000Z" fill="#c8d3e1"/>
        <path d="M400,1200L400,1600L420.44,1600L800,1228.70L800,1200Z" fill="#ae69a7"/>
        <path d="M-800,-2000L-800,-1600L-788.25,-1600L-553.33,-2000Z" fill="#ac8a3d"/>
        <path d="M-1600,-1200L-1600,-800L-1594.05,-800L-1475.11,-1200Z" fill="#c8d3e1"/>
        <path d="M400,-1200L400,-800L420.44,-800L800,-1171.30L800,-1200Z" fill="#ae69a7"/>
        <path d="M-2000,-1600L-2000,-1200L-1996.95,-1200L-1936,-1600Z" fill="#ac8a3d"/>
        <path d="M-800,1200L-800,1600L-788.25,1600L-553.33,1200Z" fill="#c8d3e1"/>
        <path d="M-1600,1200L-1600,1600L-1594.05,1600L-1475.11,1200Z" fill="#ae69a7"/>
        <path d="M0,-1600L0,-1200L17.54,-1200L368.44,-1600Z" fill="#ac8a3d"/>
        <path d="M800,-400L800,0L823.34,0L1200,-322.70L1200,-400Z" fill="#c8d3e1"/>
        <path d="M-1600,-400L-1600,0L-1594.05,0L-1475.11,-400Z" fill="#ae69a7"/>
        <path d="M-400,-1600L-400,-1200L-385.35,-1200L-92.44,-1600Z" fill="#ac8a3d"/>
        <path d="M1600,-1600L1600,-1200L1629.14,-1200L2000,-1454.51L2000,-1600Z" fill="#c8d3e1"/>
        <path d="M-1200,-2000L-1200,-1600L-1191.15,-1600L-1014.22,-2000Z" fill="#ae69a7"/>
    </g>
</svg>