<?xml version="1.0"?>
<svg xmlns="http://www.w3.org/2000/svg" width="4000" height="4000" viewBox="-2000 -2000 4000 4000">
    <path d="M-2000,-2000L2000,-2000L2000,2000L-2000,2000Z" fill="#3b214c"/>
    <g>
        <path d="M1403.08,-400L1200,-48.24L1227.85,0L1600,0L1600,-400Z" fill="#ad3d3e"/>
        <path d="M131.33,400L0,627.48L99.60,800L400,800L400,410.39L394,400Z" fill="#d873cc"/>
        <path d="M131.33,0L0,227.48L99.60,400L400,400L400,10.39L394,0Z" fill="#e2d9c8"/>
        <path d="M-1435.67,-661.78L-1471.33,-600L-1435.67,-538.22L-1364.33,-538.22L-1328.67,-600L-1364.33,-661.78Z" fill="#ad3d3e"/>
        <path d="M-292.58,1213.94L-400,1400L-292.58,1586.06L-77.75,1586.06L0,1451.39L0,1348.61L-77.75,1213.94Z" fill="#d873cc"/>
        <path d="M1403.08,-2000L1200,-1648.24L1227.85,-1600L1600,-1600L1600,-2000Z" fill="#e2d9c8"/>
        <path d="M1403.08,-800L1200,-448.24L1227.85,-400L1600,-400L1600,-800Z" fill="#ad3d3e"/>
        <path d="M-292.58,-786.06L-400,-600L-292.58,-413.94L-77.75,-413.94L0,-548.61L0,-651.39L-77.75,-786.06Z" fill="#d873cc"/>
        <path d="M-292.58,1613.94L-400,1800L-292.58,1986.06L-77.75,1986.06L0,1851.39L0,1748.61L-77.75,1613.94Z" fill="#e2d9c8"/>
        <path d="M-683.50,55.37L-767,200L-683.50,344.63L-516.50,344.63L-433,200L-516.50,55.37Z" fill="#ad3d3e"/>
        <path d="M-1811.75,-1020.35L-1823.50,-1000L-1811.75,-979.65L-1788.25,-979.65L-1776.50,-1000L-1788.25,-1020.35Z" fill="#d873cc"/>
        <path d="M131.33,-2000L0,-1772.52L99.60,-1600L400,-1600L400,-1989.61L394,-2000Z" fill="#e2d9c8"/>
        <path d="M-1811.75,1379.65L-1823.50,1400L-1811.75,1420.35L-1788.25,1420.35L-1776.50,1400L-1788.25,1379.65Z" fill="#ad3d3e"/>
        <path d="M131.33,-1200L0,-972.52L99.60,-800L400,-800L400,-1189.61L394,-1200Z" fill="#d873cc"/>
        <path d="M-683.50,-744.63L-767,-600L-683.50,-455.37L-516.50,-455.37L-433,-600L-516.50,-744.63Z" fill="#e2d9c8"/>
        <path d="M555.25,800L400,1068.91L475.68,1200L800,1200L800,800Z" fill="#ad3d3e"/>
        <path d="M-1059.58,896.80L-1119.17,1000L-1059.58,1103.20L-940.42,1103.20L-880.83,1000L-940.42,896.80Z" fill="#d873cc"/>
        <path d="M-292.58,13.94L-400,200L-292.58,386.06L-77.75,386.06L0,251.39L0,148.61L-77.75,13.94Z" fill="#e2d9c8"/>
        <path d="M-1059.58,-1503.20L-1119.17,-1400L-1059.58,-1296.80L-940.42,-1296.80L-880.83,-1400L-940.42,-1503.20Z" fill="#ad3d3e"/>
        <path d="M131.33,-800L0,-572.52L99.60,-400L400,-400L400,-789.61L394,-800Z" fill="#d873cc"/>
        <path d="M979.17,1200L800,1510.33L851.77,1600L1200,1600L1200,1200Z" fill="#e2d9c8"/>
        <path d="M979.17,400L800,710.33L851.77,800L1200,800L1200,400Z" fill="#ad3d3e"/>
        <path d="M1827,-2000L1600,-1606.81L1603.93,-1600L2000,-1600L2000,-2000Z" fill="#d873cc"/>
        <path d="M131.33,1600L0,1827.48L99.60,2000L400,2000L400,1610.39L394,1600Z" fill="#e2d9c8"/>
        <path d="M-1435.67,1738.22L-1471.33,1800L-1435.67,1861.78L-1364.33,1861.78L-1328.67,1800L-1364.33,1738.22Z" fill="#ad3d3e"/>
        <path d="M1827,800L1600,1193.19L1603.93,1200L2000,1200L2000,800Z" fill="#d873cc"/>
        <path d="M1827,400L1600,793.19L1603.93,800L2000,800L2000,400Z" fill="#e2d9c8"/>
        <path d="M-1059.58,496.80L-1119.17,600L-1059.58,703.20L-940.42,703.20L-880.83,600L-940.42,496.80Z" fill="#ad3d3e"/>
        <path d="M-1811.75,-1820.35L-1823.50,-1800L-1811.75,-1779.65L-1788.25,-1779.65L-1776.50,-1800L-1788.25,-1820.35Z" fill="#d873cc"/>
        <path d="M979.17,800L800,1110.33L851.77,1200L1200,1200L1200,800Z" fill="#e2d9c8"/>
        <path d="M-1435.67,938.22L-1471.33,1000L-1435.67,1061.78L-1364.33,1061.78L-1328.67,1000L-1364.33,938.22Z" fill="#ad3d3e"/>
        <path d="M131.33,800L0,1027.48L99.60,1200L400,1200L400,810.39L394,800Z" fill="#d873cc"/>
        <path d="M979.17,-2000L800,-1689.67L851.77,-1600L1200,-1600L1200,-2000Z" fill="#e2d9c8"/>
        <path d="M1403.08,800L1200,1151.76L1227.85,1200L1600,1200L1600,800Z" fill="#ad3d3e"/>
        <path d="M1403.08,1600L1200,1951.76L1227.85,2000L1600,2000L1600,1600Z" fill="#d873cc"/>
        <path d="M1827,-800L1600,-406.81L1603.93,-400L2000,-400L2000,-800Z" fill="#e2d9c8"/>
        <path d="M979.17,0L800,310.33L851.77,400L1200,400L1200,0Z" fill="#ad3d3e"/>
        <path d="M979.17,-1600L800,-1289.67L851.77,-1200L1200,-1200L1200,-1600Z" fill="#d873cc"/>
        <path d="M1403.08,0L1200,351.76L1227.85,400L1600,400L1600,0Z" fill="#e2d9c8"/>
        <path d="M-292.58,-386.06L-400,-200L-292.58,-13.94L-77.75,-13.94L0,-148.61L0,-251.39L-77.75,-386.06Z" fill="#ad3d3e"/>
        <path d="M-292.58,813.94L-400,1000L-292.58,1186.06L-77.75,1186.06L0,1051.39L0,948.61L-77.75,813.94Z" fill="#d873cc"/>
        <path d="M-1059.58,-703.20L-1119.17,-600L-1059.58,-496.80L-940.42,-496.80L-880.83,-600L-940.42,-703.20Z" fill="#e2d9c8"/>
        <path d="M555.25,400L400,668.91L475.68,800L800,800L800,400Z" fill="#ad3d3e"/>
        <path d="M-1811.75,-620.35L-1823.50,-600L-1811.75,-579.65L-1788.25,-579.65L-1776.50,-600L-1788.25,-620.35Z" fill="#d873cc"/>
        <path d="M-1059.58,1696.80L-1119.17,1800L-1059.58,1903.20L-940.42,1903.20L-880.83,1800L-940.42,1696.80Z" fill="#e2d9c8"/>
        <path d="M-683.50,1655.37L-767,1800L-683.50,1944.63L-516.50,1944.63L-433,1800L-516.50,1655.37Z" fill="#ad3d3e"/>
        <path d="M-1059.58,-1103.20L-1119.17,-1000L-1059.58,-896.80L-940.42,-896.80L-880.83,-1000L-940.42,-1103.20Z" fill="#d873cc"/>
        <path d="M-683.50,455.37L-767,600L-683.50,744.63L-516.50,744.63L-433,600L-516.50,455.37Z" fill="#e2d9c8"/>
        <path d="M1403.08,-1200L1200,-848.24L1227.85,-800L1600,-800L1600,-1200Z" fill="#ad3d3e"/>
        <path d="M-1435.67,138.22L-1471.33,200L-1435.67,261.78L-1364.33,261.78L-1328.67,200L-1364.33,138.22Z" fill="#d873cc"/>
        <path d="M131.33,-400L0,-172.52L99.60,0L400,0L400,-389.61L394,-400Z" fill="#e2d9c8"/>
        <path d="M1403.08,400L1200,751.76L1227.85,800L1600,800L1600,400Z" fill="#ad3d3e"/>
        <path d="M1403.08,1200L1200,1551.76L1227.85,1600L1600,1600L1600,1200Z" fill="#d873cc"/>
        <path d="M-1059.58,-303.20L-1119.17,-200L-1059.58,-96.80L-940.42,-96.80L-880.83,-200L-940.42,-303.20Z" fill="#e2d9c8"/>
        <path d="M555.25,-400L400,-131.09L475.68,0L800,0L800,-400Z" fill="#ad3d3e"/>
        <path d="M-292.58,413.94L-400,600L-292.58,786.06L-77.75,786.06L0,651.39L0,548.61L-77.75,413.94Z" fill="#d873cc"/>
        <path d="M-1059.58,1296.80L-1119.17,1400L-1059.58,1503.20L-940.42,1503.20L-880.83,1400L-940.42,1296.80Z" fill="#e2d9c8"/>
        <path d="M-1811.75,1779.65L-1823.50,1800L-1811.75,1820.35L-1788.25,1820.35L-1776.50,1800L-1788.25,1779.65Z" fill="#ad3d3e"/>
        <path d="M-683.50,855.37L-767,1000L-683.50,1144.63L-516.50,1144.63L-433,1000L-516.50,855.37Z" fill="#d873cc"/>
        <path d="M-683.50,-1544.63L-767,-1400L-683.50,-1255.37L-516.50,-1255.37L-433,-1400L-516.50,-1544.63Z" fill="#e2d9c8"/>
        <path d="M1827,1200L1600,1593.19L1603.93,1600L2000,1600L2000,1200Z" fill="#ad3d3e"/>
        <path d="M555.25,1600L400,1868.91L475.68,2000L800,2000L800,1600Z" fill="#d873cc"/>
        <path d="M555.25,0L400,268.91L475.68,400L800,400L800,0Z" fill="#e2d9c8"/>
        <path d="M-292.58,-1186.06L-400,-1000L-292.58,-813.94L-77.75,-813.94L0,-948.61L0,-1051.39L-77.75,-1186.06Z" fill="#ad3d3e"/>
        <path d="M-1811.75,579.65L-1823.50,600L-1811.75,620.35L-1788.25,620.35L-1776.50,600L-1788.25,579.65Z" fill="#d873cc"/>
        <path d="M-683.50,-344.63L-767,-200L-683.50,-55.37L-516.50,-55.37L-433,-200L-516.50,-344.63Z" fill="#e2d9c8"/>
        <path d="M1827,0L1600,393.19L1603.93,400L2000,400L2000,0Z" fill="#ad3d3e"/>
        <path d="M979.17,1600L800,1910.33L851.77,2000L1200,2000L1200,1600Z" fill="#d873cc"/>
        <path d="M-1435.67,-1861.78L-1471.33,-1800L-1435.67,-1738.22L-1364.33,-1738.22L-1328.67,-1800L-1364.33,-1861.78Z" fill="#e2d9c8"/>
        <path d="M-1811.75,979.65L-1823.50,1000L-1811.75,1020.35L-1788.25,1020.35L-1776.50,1000L-1788.25,979.65Z" fill="#ad3d3e"/>
        <path d="M555.25,-800L400,-531.09L475.68,-400L800,-400L800,-800Z" fill="#d873cc"/>
        <path d="M1827,1600L1600,1993.19L1603.93,2000L2000,2000L2000,1600Z" fill="#e2d9c8"/>
        <path d="M1403.08,-1600L1200,-1248.24L1227.85,-1200L1600,-1200L1600,-1600Z" fill="#ad3d3e"/>
        <path d="M555.25,-2000L400,-1731.09L475.68,-1600L800,-1600L800,-2000Z" fill="#d873cc"/>
        <path d="M-683.50,-1144.63L-767,-1000L-683.50,-855.37L-516.50,-855.37L-433,-1000L-516.50,-1144.63Z" fill="#e2d9c8"/>
        <path d="M-1059.58,96.80L-1119.17,200L-1059.58,303.20L-940.42,303.20L-880.83,200L-940.42,96.80Z" fill="#ad3d3e"/>
        <path d="M979.17,-1200L800,-889.67L851.77,-800L1200,-800L1200,-1200Z" fill="#d873cc"/>
        <path d="M-1811.75,179.65L-1823.50,200L-1811.75,220.35L-1788.25,220.35L-1776.50,200L-1788.25,179.65Z" fill="#e2d9c8"/>
        <path d="M555.25,-1600L400,-1331.09L475.68,-1200L800,-1200L800,-1600Z" fill="#ad3d3e"/>
        <path d="M1827,-1200L1600,-806.81L1603.93,-800L2000,-800L2000,-1200Z" fill="#d873cc"/>
        <path d="M-1811.75,-220.35L-1823.50,-200L-1811.75,-179.65L-1788.25,-179.65L-1776.50,-200L-1788.25,-220.35Z" fill="#e2d9c8"/>
        <path d="M979.17,-800L800,-489.67L851.77,-400L1200,-400L1200,-800Z" fill="#ad3d3e"/>
        <path d="M131.33,1200L0,1427.48L99.60,1600L400,1600L400,1210.39L394,1200Z" fill="#d873cc"/>
        <path d="M-1435.67,-1461.78L-1471.33,-1400L-1435.67,-1338.22L-1364.33,-1338.22L-1328.67,-1400L-1364.33,-1461.78Z" fill="#e2d9c8"/>
        <path d="M1827,-400L1600,-6.81L1603.93,0L2000,0L2000,-400Z" fill="#ad3d3e"/>
        <path d="M-1435.67,538.22L-1471.33,600L-1435.67,661.78L-1364.33,661.78L-1328.67,600L-1364.33,538.22Z" fill="#d873cc"/>
        <path d="M-292.58,-1986.06L-400,-1800L-292.58,-1613.94L-77.75,-1613.94L0,-1748.61L0,-1851.39L-77.75,-1986.06Z" fill="#e2d9c8"/>
        <path d="M555.25,1200L400,1468.91L475.68,1600L800,1600L800,1200Z" fill="#ad3d3e"/>
        <path d="M-683.50,-1944.63L-767,-1800L-683.50,-1655.37L-516.50,-1655.37L-433,-1800L-516.50,-1944.63Z" fill="#d873cc"/>
        <path d="M-1435.67,-1061.78L-1471.33,-1000L-1435.67,-938.22L-1364.33,-938.22L-1328.67,-1000L-1364.33,-1061.78Z" fill="#e2d9c8"/>
        <path d="M555.25,-1200L400,-931.09L475.68,-800L800,-800L800,-1200Z" fill="#ad3d3e"/>
        <path d="M-1811.75,-1420.35L-1823.50,-1400L-1811.75,-1379.65L-1788.25,-1379.65L-1776.50,-1400L-1788.25,-1420.35Z" fill="#d873cc"/>
        <path d="M-683.50,1255.37L-767,1400L-683.50,1544.63L-516.50,1544.63L-433,1400L-516.50,1255.37Z" fill="#e2d9c8"/>
        <path d="M-1435.67,1338.22L-1471.33,1400L-1435.67,1461.78L-1364.33,1461.78L-1328.67,1400L-1364.33,1338.22Z" fill="#ad3d3e"/>
        <path d="M131.33,-1600L0,-1372.52L99.60,-1200L400,-1200L400,-1589.61L394,-1600Z" fill="#d873cc"/>
        <path d="M979.17,-400L800,-89.67L851.77,0L1200,0L1200,-400Z" fill="#e2d9c8"/>
        <path d="M-1435.67,-261.78L-1471.33,-200L-1435.67,-138.22L-1364.33,-138.22L-1328.67,-200L-1364.33,-261.78Z" fill="#ad3d3e"/>
        <path d="M-292.58,-1586.06L-400,-1400L-292.58,-1213.94L-77.75,-1213.94L0,-1348.61L0,-1451.39L-77.75,-1586.06Z" fill="#d873cc"/>
        <path d="M1827,-1600L1600,-1206.81L1603.93,-1200L2000,-1200L2000,-1600Z" fill="#e2d9c8"/>
        <path d="M-1059.58,-1903.20L-1119.17,-1800L-1059.58,-1696.80L-940.42,-1696.80L-880.83,-1800L-940.42,-1903.20Z" fill="#ad3d3e"/>
    </g>
</svg>