<?xml version="1.0" encoding="utf-8"?>
<!-- Generator: Adobe Illustrator 24.3.0, SVG Export Plug-In . SVG Version: 6.00 Build 0)  -->
<svg version="1.1" xmlns="http://www.w3.org/2000/svg" xmlns:xlink="http://www.w3.org/1999/xlink" x="0px" y="0px"
	 viewBox="0 0 1080 1350" style="enable-background:new 0 0 1080 1350;" xml:space="preserve">
<style type="text/css">
	.st0{fill:#FF0000;}
</style>
<g id="Camada_2">
	<rect x="54" y="54" class="st0" width="54" height="54"/>
	<rect x="108" y="54" class="st0" width="54" height="54"/>
	<rect x="162" y="54" class="st0" width="54" height="54"/>
	<rect x="216" y="54" class="st0" width="54" height="54"/>
	<rect x="270" y="54" class="st0" width="54" height="54"/>
	<rect x="324" y="54" class="st0" width="54" height="54"/>
	<rect x="378" y="54" class="st0" width="54" height="54"/>
	<rect x="432" y="54" class="st0" width="54" height="54"/>
	<rect x="486" y="54" class="st0" width="54" height="54"/>
	<rect x="540" y="54" class="st0" width="54" height="54"/>
	<rect x="594" y="54" class="st0" width="54" height="54"/>
	<rect x="648" y="54" class="st0" width="54" height="54"/>
	<rect x="702" y="54" class="st0" width="54" height="54"/>
	<rect x="756" y="54" class="st0" width="54" height="54"/>
	<rect x="810" y="54" class="st0" width="54" height="54"/>
	<rect x="864" y="54" class="st0" width="54" height="54"/>
	<rect x="918" y="54" class="st0" width="54" height="54"/>
	<rect x="972" y="54" class="st0" width="54" height="54"/>
	<rect x="54" y="162" class="st0" width="54" height="54"/>
	<rect x="108" y="162" class="st0" width="54" height="54"/>
	<rect x="162" y="162" class="st0" width="54" height="54"/>
	<rect x="324" y="162" class="st0" width="54" height="54"/>
	<rect x="378" y="162" class="st0" width="54" height="54"/>
	<rect x="540" y="162" class="st0" width="54" height="54"/>
	<rect x="594" y="162" class="st0" width="54" height="54"/>
	<rect x="648" y="162" class="st0" width="54" height="54"/>
	<rect x="864" y="162" class="st0" width="54" height="54"/>
	<rect x="918" y="162" class="st0" width="54" height="54"/>
	<rect x="54" y="216" class="st0" width="54" height="54"/>
	<rect x="324" y="216" class="st0" width="54" height="54"/>
	<rect x="378" y="216" class="st0" width="54" height="54"/>
	<rect x="540" y="216" class="st0" width="54" height="54"/>
	<rect x="594" y="216" class="st0" width="54" height="54"/>
	<rect x="648" y="216" class="st0" width="54" height="54"/>
	<rect x="864" y="216" class="st0" width="54" height="54"/>
	<rect x="918" y="216" class="st0" width="54" height="54"/>
	<rect x="54" y="270" class="st0" width="54" height="54"/>
	<rect x="108" y="324" class="st0" width="54" height="54"/>
	<rect x="162" y="324" class="st0" width="54" height="54"/>
	<rect x="108" y="378" class="st0" width="54" height="54"/>
	<rect x="162" y="378" class="st0" width="54" height="54"/>
	<rect x="108" y="216" class="st0" width="54" height="54"/>
	<rect x="162" y="216" class="st0" width="54" height="54"/>
	<rect x="270" y="270" class="st0" width="54" height="54"/>
	<rect x="432" y="270" class="st0" width="54" height="54"/>
	<rect x="540" y="270" class="st0" width="54" height="54"/>
	<rect x="702" y="270" class="st0" width="54" height="54"/>
	<rect x="810" y="270" class="st0" width="54" height="54"/>
	<rect x="972" y="270" class="st0" width="54" height="54"/>
	<rect x="54" y="324" class="st0" width="54" height="54"/>
	<rect x="270" y="324" class="st0" width="54" height="54"/>
	<rect x="432" y="324" class="st0" width="54" height="54"/>
	<rect x="540" y="324" class="st0" width="54" height="54"/>
	<rect x="594" y="324" class="st0" width="54" height="54"/>
	<rect x="648" y="324" class="st0" width="54" height="54"/>
	<rect x="810" y="324" class="st0" width="54" height="54"/>
	<rect x="972" y="324" class="st0" width="54" height="54"/>
	<rect x="54" y="378" class="st0" width="54" height="54"/>
	<rect x="270" y="378" class="st0" width="54" height="54"/>
	<rect x="432" y="378" class="st0" width="54" height="54"/>
	<rect x="540" y="378" class="st0" width="54" height="54"/>
	<rect x="648" y="378" class="st0" width="54" height="54"/>
	<rect x="594" y="378" class="st0" width="54" height="54"/>
	<rect x="810" y="378" class="st0" width="54" height="54"/>
	<rect x="972" y="378" class="st0" width="54" height="54"/>
	<rect x="54" y="432" class="st0" width="54" height="54"/>
	<rect x="270" y="432" class="st0" width="54" height="54"/>
	<rect x="432" y="432" class="st0" width="54" height="54"/>
	<rect x="540" y="432" class="st0" width="54" height="54"/>
	<rect x="702" y="432" class="st0" width="54" height="54"/>
	<rect x="810" y="432" class="st0" width="54" height="54"/>
	<rect x="972" y="432" class="st0" width="54" height="54"/>
	<rect x="54" y="486" class="st0" width="54" height="54"/>
	<rect x="270" y="486" class="st0" width="54" height="54"/>
	<rect x="432" y="486" class="st0" width="54" height="54"/>
	<rect x="540" y="486" class="st0" width="54" height="54"/>
	<rect x="702" y="486" class="st0" width="54" height="54"/>
	<rect x="810" y="486" class="st0" width="54" height="54"/>
	<rect x="972" y="486" class="st0" width="54" height="54"/>
	<rect x="54" y="540" class="st0" width="54" height="54"/>
	<rect x="324" y="540" class="st0" width="54" height="54"/>
	<rect x="378" y="540" class="st0" width="54" height="54"/>
	<rect x="540" y="540" class="st0" width="54" height="54"/>
	<rect x="702" y="540" class="st0" width="54" height="54"/>
	<rect x="810" y="540" class="st0" width="54" height="54"/>
	<rect x="864" y="432" class="st0" width="54" height="54"/>
	<rect x="918" y="432" class="st0" width="54" height="54"/>
	<rect x="864" y="486" class="st0" width="54" height="54"/>
	<rect x="918" y="486" class="st0" width="54" height="54"/>
	<rect x="972" y="540" class="st0" width="54" height="54"/>
	<rect x="54" y="594" class="st0" width="54" height="54"/>
	<rect x="324" y="594" class="st0" width="54" height="54"/>
	<rect x="378" y="594" class="st0" width="54" height="54"/>
	<rect x="540" y="594" class="st0" width="54" height="54"/>
	<rect x="702" y="594" class="st0" width="54" height="54"/>
	<rect x="810" y="594" class="st0" width="54" height="54"/>
	<rect x="972" y="594" class="st0" width="54" height="54"/>
	<rect x="54" y="702" class="st0" width="54" height="54"/>
	<rect x="108" y="702" class="st0" width="54" height="54"/>
	<rect x="162" y="702" class="st0" width="54" height="54"/>
	<rect x="378" y="702" class="st0" width="54" height="54"/>
	<rect x="432" y="702" class="st0" width="54" height="54"/>
	<rect x="594" y="702" class="st0" width="54" height="54"/>
	<rect x="648" y="702" class="st0" width="54" height="54"/>
	<rect x="702" y="702" class="st0" width="54" height="54"/>
	<rect x="864" y="702" class="st0" width="54" height="54"/>
	<rect x="918" y="702" class="st0" width="54" height="54"/>
	<rect x="54" y="756" class="st0" width="54" height="54"/>
	<rect x="108" y="756" class="st0" width="54" height="54"/>
	<rect x="162" y="756" class="st0" width="54" height="54"/>
	<rect x="378" y="756" class="st0" width="54" height="54"/>
	<rect x="432" y="756" class="st0" width="54" height="54"/>
	<rect x="594" y="756" class="st0" width="54" height="54"/>
	<rect x="648" y="756" class="st0" width="54" height="54"/>
	<rect x="702" y="756" class="st0" width="54" height="54"/>
	<rect x="864" y="756" class="st0" width="54" height="54"/>
	<rect x="918" y="756" class="st0" width="54" height="54"/>
	<rect x="54" y="810" class="st0" width="54" height="54"/>
	<rect x="216" y="810" class="st0" width="54" height="54"/>
	<rect x="324" y="810" class="st0" width="54" height="54"/>
	<rect x="486" y="810" class="st0" width="54" height="54"/>
	<rect x="702" y="810" class="st0" width="54" height="54"/>
	<rect x="810" y="810" class="st0" width="54" height="54"/>
	<rect x="972" y="810" class="st0" width="54" height="54"/>
	<rect x="54" y="864" class="st0" width="54" height="54"/>
	<rect x="108" y="864" class="st0" width="54" height="54"/>
	<rect x="162" y="864" class="st0" width="54" height="54"/>
	<rect x="324" y="864" class="st0" width="54" height="54"/>
	<rect x="486" y="864" class="st0" width="54" height="54"/>
	<rect x="702" y="918" class="st0" width="54" height="54"/>
	<rect x="810" y="864" class="st0" width="54" height="54"/>
	<rect x="972" y="864" class="st0" width="54" height="54"/>
	<rect x="54" y="918" class="st0" width="54" height="54"/>
	<rect x="108" y="918" class="st0" width="54" height="54"/>
	<rect x="162" y="918" class="st0" width="54" height="54"/>
	<rect x="324" y="918" class="st0" width="54" height="54"/>
	<rect x="486" y="918" class="st0" width="54" height="54"/>
	<rect x="648" y="918" class="st0" width="54" height="54"/>
	<rect x="648" y="972" class="st0" width="54" height="54"/>
	<rect x="648" y="864" class="st0" width="54" height="54"/>
	<rect x="810" y="918" class="st0" width="54" height="54"/>
	<rect x="972" y="918" class="st0" width="54" height="54"/>
	<rect x="54" y="972" class="st0" width="54" height="54"/>
	<rect x="216" y="972" class="st0" width="54" height="54"/>
	<rect x="324" y="972" class="st0" width="54" height="54"/>
	<rect x="486" y="972" class="st0" width="54" height="54"/>
	<rect x="594" y="918" class="st0" width="54" height="54"/>
	<rect x="810" y="972" class="st0" width="54" height="54"/>
	<rect x="972" y="972" class="st0" width="54" height="54"/>
	<rect x="54" y="1026" class="st0" width="54" height="54"/>
	<rect x="216" y="1026" class="st0" width="54" height="54"/>
	<rect x="324" y="1026" class="st0" width="54" height="54"/>
	<rect x="486" y="1026" class="st0" width="54" height="54"/>
	<rect x="594" y="1026" class="st0" width="54" height="54"/>
	<rect x="810" y="1026" class="st0" width="54" height="54"/>
	<rect x="972" y="1026" class="st0" width="54" height="54"/>
	<rect x="54" y="1080" class="st0" width="54" height="54"/>
	<rect x="108" y="1080" class="st0" width="54" height="54"/>
	<rect x="162" y="1080" class="st0" width="54" height="54"/>
	<rect x="378" y="1080" class="st0" width="54" height="54"/>
	<rect x="432" y="1080" class="st0" width="54" height="54"/>
	<rect x="594" y="1080" class="st0" width="54" height="54"/>
	<rect x="648" y="1080" class="st0" width="54" height="54"/>
	<rect x="702" y="1080" class="st0" width="54" height="54"/>
	<rect x="864" y="1080" class="st0" width="54" height="54"/>
	<rect x="918" y="1080" class="st0" width="54" height="54"/>
	<rect x="54" y="1134" class="st0" width="54" height="54"/>
	<rect x="108" y="1134" class="st0" width="54" height="54"/>
	<rect x="162" y="1134" class="st0" width="54" height="54"/>
	<rect x="378" y="1134" class="st0" width="54" height="54"/>
	<rect x="432" y="1134" class="st0" width="54" height="54"/>
	<rect x="594" y="1134" class="st0" width="54" height="54"/>
	<rect x="648" y="1134" class="st0" width="54" height="54"/>
	<rect x="702" y="1134" class="st0" width="54" height="54"/>
	<rect x="864" y="1134" class="st0" width="54" height="54"/>
	<rect x="918" y="1134" class="st0" width="54" height="54"/>
	<rect x="54" y="1242" class="st0" width="54" height="54"/>
	<rect x="108" y="1242" class="st0" width="54" height="54"/>
	<rect x="162" y="1242" class="st0" width="54" height="54"/>
	<rect x="216" y="1242" class="st0" width="54" height="54"/>
	<rect x="270" y="1242" class="st0" width="54" height="54"/>
	<rect x="324" y="1242" class="st0" width="54" height="54"/>
	<rect x="378" y="1242" class="st0" width="54" height="54"/>
	<rect x="432" y="1242" class="st0" width="54" height="54"/>
	<rect x="486" y="1242" class="st0" width="54" height="54"/>
	<rect x="540" y="1242" class="st0" width="54" height="54"/>
	<rect x="594" y="1242" class="st0" width="54" height="54"/>
	<rect x="648" y="1242" class="st0" width="54" height="54"/>
	<rect x="702" y="1242" class="st0" width="54" height="54"/>
	<rect x="756" y="1242" class="st0" width="54" height="54"/>
	<rect x="810" y="1242" class="st0" width="54" height="54"/>
	<rect x="864" y="1242" class="st0" width="54" height="54"/>
	<rect x="918" y="1242" class="st0" width="54" height="54"/>
	<rect x="972" y="1242" class="st0" width="54" height="54"/>
</g>
<g id="Camada_1">
</g>
</svg>
