<?xml version="1.0" encoding="utf-8"?>
<!-- Generator: Adobe Illustrator 24.3.0, SVG Export Plug-In . SVG Version: 6.00 Build 0)  -->
<svg version="1.1" xmlns="http://www.w3.org/2000/svg" xmlns:xlink="http://www.w3.org/1999/xlink" x="0px" y="0px"
	 viewBox="0 0 1080 1350" style="enable-background:new 0 0 1080 1350;" xml:space="preserve">
<style type="text/css">
	.st0{fill:#FF0000;}
</style>
<g id="Camada_2">
</g>
<g id="Camada_1">
	<g>
		<path d="M156.22,432v-41.8h18.21c9.31,0,14.63,4.18,14.63,14.63v12.54c0,10.45-5.31,14.63-14.63,14.63H156.22z M177.11,416.18
			v-10.15c0-2.99-0.9-3.88-4.48-3.88h-4.48v17.91h4.48C176.22,420.06,177.11,419.16,177.11,416.18z"/>
		<path d="M208.46,432.6c-11.94,0-16.42-4.18-16.42-11.94v-7.17c0-7.76,4.48-11.94,16.42-11.94c12.54,0,16.42,2.99,16.42,11.64v6.57
			h-20.9v0.9c0,2.33,0.9,2.99,4.48,2.99c3.58,0,4.48-0.42,4.48-1.49v-0.6h11.94v0.6C224.88,430.03,221,432.6,208.46,432.6z
			 M203.99,414.09h8.96v-0.9c0-2.09-0.9-2.69-4.48-2.69c-3.58,0-4.48,0.66-4.48,2.99V414.09z"/>
		<path d="M227.27,411.1c0-5.97,4.78-9.55,17.02-9.55c12.84,0,16.42,2.99,16.42,8.36v2.69h-11.94V412c0-0.9-0.6-0.9-4.48-0.9
			c-4.18,0-5.08,0-5.08,1.19c0,0.9,0.6,1.19,5.08,1.49c13.43,0.9,17.02,2.39,17.02,9.25c0,5.97-4.78,9.55-17.02,9.55
			c-12.84,0-16.42-2.99-16.42-8.36v-2.69h11.94v0.6c0,0.9,0.6,0.9,4.48,0.9c4.18,0,5.08,0,5.08-1.19c0-0.9-0.6-1.19-5.08-1.49
			C232.35,419.46,227.27,417.97,227.27,411.1z"/>
		<path d="M280.12,432.6c-11.94,0-16.42-4.18-16.42-11.94v-7.17c0-7.76,4.48-11.94,16.42-11.94c12.54,0,16.42,2.99,16.42,11.64v6.57
			h-20.9v0.9c0,2.33,0.9,2.99,4.48,2.99c3.58,0,4.48-0.42,4.48-1.49v-0.6h11.94v0.6C296.54,430.03,292.66,432.6,280.12,432.6z
			 M275.64,414.09h8.96v-0.9c0-2.09-0.9-2.69-4.48-2.69c-3.58,0-4.48,0.66-4.48,2.99V414.09z"/>
		<path d="M299.53,402.15h10.45l1.49,4.48c0.9-3.28,4.18-5.07,8.96-5.07c8.96,0,11.94,5.07,11.94,15.23V432h-11.94v-14.63
			c0-2.39-1.19-3.88-4.48-3.88s-4.48,1.49-4.48,3.88V432h-11.94V402.15z"/>
		<path d="M335.35,390.2h11.94v16.42c0.9-3.28,4.18-5.07,8.96-5.07c8.96,0,11.94,5.07,11.94,15.23V432h-11.94v-14.63
			c0-2.39-1.19-3.88-4.48-3.88s-4.48,1.49-4.48,3.88V432h-11.94V390.2z"/>
		<path d="M383.12,414.98c5.31,0,8,1.13,8.96,3.28v-4.78c0-2.39-0.6-2.69-4.48-2.69c-3.58,0-4.48,0.6-4.48,1.79v0.6h-11.94V412
			c0-6.99,3.88-10.45,16.42-10.45c11.94,0,16.42,4.18,16.42,10.75V432h-10.75l-0.9-4.78c-0.6,3.28-3.82,5.37-10.75,5.37
			c-7.11,0-11.05-2.39-11.05-8.66C370.58,417.67,375.12,414.98,383.12,414.98z M392.08,423.04c0-0.9-0.9-1.79-5.97-1.79
			c-2.69,0-3.58,0.3-3.58,1.79s0.9,1.79,3.58,1.79C391.18,424.83,392.08,423.94,392.08,423.04z"/>
		<path d="M407.01,402.15h10.45l1.49,4.48c0.9-3.28,4.18-5.07,8.96-5.07c8.96,0,11.94,5.07,11.94,15.23V432h-11.94v-14.63
			c0-2.39-1.19-3.88-4.48-3.88s-4.48,1.49-4.48,3.88V432h-11.94V402.15z"/>
		<path d="M453.58,432.6c-6.87,0-10.75-4.18-10.75-13.14v-4.78c0-8.96,3.88-13.14,10.75-13.14c5.67,0,8.36,1.49,10.15,5.37V390.2
			h11.94V432h-10.45l-1.49-4.78C461.94,431.1,459.26,432.6,453.58,432.6z M463.74,417.07c0-2.09-1.19-3.58-4.48-3.58
			s-4.48,1.49-4.48,3.58s1.19,3.58,4.48,3.58S463.74,419.16,463.74,417.07z"/>
		<path d="M478.37,417.97v-1.79c0-8.66,4.78-14.63,16.72-14.63s16.72,5.97,16.72,14.63v1.79c0,8.66-4.78,14.63-16.72,14.63
			S478.37,426.63,478.37,417.97z M499.86,417.07c0-2.45-1.19-4.18-4.78-4.18c-3.58,0-4.78,1.73-4.78,4.18
			c0,2.45,1.19,4.18,4.78,4.18C498.67,421.25,499.86,419.52,499.86,417.07z"/>
		<path d="M172.63,492.31c-11.82,0-16.42-4.18-16.42-11.94v-7.17c0-7.76,4.48-11.94,16.42-11.94c12.54,0,16.42,3.04,16.42,11.94V475
			h-11.94v-0.3c0-1.73-0.9-2.09-4.48-2.09c-3.58,0-4.48,0.6-4.48,3.58v1.19c0,2.87,0.9,3.58,4.48,3.58c3.58,0,4.48-0.36,4.48-2.09
			v-0.3h11.94v1.79C189.05,489.27,185.11,492.31,172.63,492.31z"/>
		<path d="M191.75,477.68v-1.79c0-8.66,4.78-14.63,16.72-14.63s16.72,5.97,16.72,14.63v1.79c0,8.66-4.78,14.63-16.72,14.63
			S191.75,486.34,191.75,477.68z M213.24,476.79c0-2.45-1.19-4.18-4.78-4.18c-3.58,0-4.78,1.73-4.78,4.18
			c0,2.45,1.19,4.18,4.78,4.18C212.05,480.97,213.24,479.23,213.24,476.79z"/>
		<path d="M227.87,461.86h11.34l0.6,4.78c0.3-3.28,2.99-5.37,7.17-5.37c3.58,0,5.97,1.49,7.46,5.37c1.19-3.88,4.18-5.37,8.36-5.37
			c6.57,0,9.85,4.18,9.85,15.52v14.93h-11.94v-14.63c0-2.99-0.6-3.88-2.09-3.88c-1.79,0-2.39,1.19-2.39,3.88v14.63h-11.94v-14.63
			c0-2.99-0.6-3.88-2.09-3.88c-1.79,0-2.39,1.19-2.39,3.88v14.63h-11.94V461.86z"/>
		<path d="M287.58,477.09v-12.54c0-10.45,5.31-14.63,14.63-14.63h3.58c9.31,0,14.63,4.18,14.63,13.14v4.78h-11.94v-2.09
			c0-2.99-1.19-3.88-4.48-3.88c-3.58,0-4.48,0.9-4.48,3.88v10.15c0,2.99,0.9,3.88,4.48,3.88c3.28,0,4.48-0.9,4.48-3.88v-2.09h11.94
			v4.78c0,8.96-5.31,13.14-14.63,13.14h-3.58C292.9,491.71,287.58,487.53,287.58,477.09z"/>
		<path d="M323.11,477.68v-1.79c0-8.66,4.78-14.63,16.72-14.63s16.72,5.97,16.72,14.63v1.79c0,8.66-4.78,14.63-16.72,14.63
			S323.11,486.34,323.11,477.68z M344.61,476.79c0-2.45-1.19-4.18-4.78-4.18c-3.58,0-4.78,1.73-4.78,4.18
			c0,2.45,1.19,4.18,4.78,4.18C343.41,480.97,344.61,479.23,344.61,476.79z M339.35,449.92h8.06v4.48l-4.18,4.48h-6.27
			L339.35,449.92z"/>
		<path d="M369.99,492.31c-6.87,0-10.75-4.18-10.75-13.14v-4.78c0-8.96,3.88-13.14,10.75-13.14c5.67,0,8.36,1.49,10.15,5.37v-16.72
			h11.94v41.8h-10.45l-1.49-4.78C378.35,490.82,375.66,492.31,369.99,492.31z M380.14,476.79c0-2.09-1.19-3.58-4.48-3.58
			s-4.48,1.49-4.48,3.58s1.19,3.58,4.48,3.58S380.14,478.88,380.14,476.79z"/>
		<path d="M395.07,449.92h11.94v9.25h-11.94V449.92z M395.07,461.86h11.94v29.85h-11.94V461.86z"/>
		<path d="M432.39,461.86h10.45v30.45c0,7.76-4.48,11.94-16.42,11.94c-12.84,0-17.02-2.99-17.02-9.55c0-4,2.21-6.45,6.09-7.76
			c-3.64-1.73-5.49-4.54-5.49-8.66v-3.88c0-8.96,3.88-13.14,10.75-13.14c5.67,0,8.36,1.49,10.15,5.37L432.39,461.86z M430.89,492.31
			v-4.48c-1.02,1.31-2.93,2.09-5.08,2.09c-3.28,0-4.48,1.19-4.48,2.99c0,1.79,0.72,2.39,4.78,2.39
			C429.88,495.3,430.89,494.7,430.89,492.31z M426.42,473.2c-3.28,0-4.48,1.49-4.48,3.58s1.19,3.58,4.48,3.58s4.48-1.49,4.48-3.58
			S429.7,473.2,426.42,473.2z"/>
		<path d="M445.53,477.68v-1.79c0-8.66,4.78-14.63,16.72-14.63s16.72,5.97,16.72,14.63v1.79c0,8.66-4.78,14.63-16.72,14.63
			S445.53,486.34,445.53,477.68z M467.02,476.79c0-2.45-1.19-4.18-4.78-4.18c-3.58,0-4.78,1.73-4.78,4.18
			c0,2.45,1.19,4.18,4.78,4.18C465.83,480.97,467.02,479.23,467.02,476.79z"/>
	</g>
	<g>
		<path d="M691.55,1109.32v21h-3v-9h-9v9h-3v-21h3v9h9v-9H691.55z"/>
		<path d="M707.3,1123.57h-10.44c0.33,2.49,2.4,3.75,4.44,3.75c3,0,4.5-1.5,4.5-1.5v3c0,0-1.5,1.5-4.5,1.5c-4.5,0-7.5-3-7.5-7.5
			s3-7.5,6.75-7.5s6.75,3,6.75,7.5V1123.57z M696.95,1121.32h7.2c-0.42-2.01-1.77-3-3.6-3S697.37,1119.31,696.95,1121.32z"/>
		<path d="M723.05,1121.32v9h-3v-7.5c0-3-1.5-4.5-3.75-4.5s-3.75,1.5-3.75,4.5v7.5h-3v-15h3v6c0-3.75,2.25-6,5.25-6
			S723.05,1117.57,723.05,1121.32z"/>
		<path d="M735.05,1115.32v3c-3,0-6,0.75-6,4.5v7.5h-3v-15h3v6C729.05,1117.57,731.3,1115.32,735.05,1115.32z"/>
		<path d="M747.05,1127.32v3h-9v-3h3v-9h-3v-3h6v12H747.05z M744.05,1112.32h-3v-3h3V1112.32z"/>
		<path d="M762.05,1136.32h-3v-6.24c-0.6,0.12-1.38,0.24-2.25,0.24c-4.5,0-7.5-3-7.5-7.5s3-7.5,7.5-7.5h5.25V1136.32z
			 M759.05,1126.99v-8.67h-2.25c-2.25,0-4.5,1.5-4.5,4.5s2.25,4.5,4.5,4.5C757.49,1127.32,758.33,1127.17,759.05,1126.99z"/>
		<path d="M777.05,1115.32v15h-3v-4.5c0,3-2.25,4.5-4.5,4.5c-2.25,0-4.5-1.5-4.5-4.5v-10.5h3v9c0,2.25,1.5,3,3,3s3-0.75,3-3v-9
			H777.05z"/>
		<path d="M792.8,1123.57h-10.44c0.33,2.49,2.4,3.75,4.44,3.75c3,0,4.5-1.5,4.5-1.5v3c0,0-1.5,1.5-4.5,1.5c-4.5,0-7.5-3-7.5-7.5
			s3-7.5,6.75-7.5c3.75,0,6.75,3,6.75,7.5V1123.57z M782.45,1121.32h7.2c-0.42-2.01-1.77-3-3.6-3
			C784.22,1118.32,782.87,1119.31,782.45,1121.32z"/>
		<path d="M679.55,1142.32v6h6v3h-6v6h9v3h-12v-21h12v3H679.55z"/>
		<path d="M700.55,1157.32v3h-9v-3h3v-9h-3v-3h6v12H700.55z M697.55,1142.32h-3v-3h3V1142.32z"/>
		<path d="M712.55,1145.32v3c-3,0-6,0.75-6,4.5v7.5h-3v-15h3v6C706.55,1147.57,708.8,1145.32,712.55,1145.32z"/>
		<path d="M727.55,1145.32v15h-3v-6c0,3.75-1.5,6-4.5,6c-3.75,0-6.75-3-6.75-7.5s3-7.5,6.75-7.5c3,0,4.5,2.25,4.5,6v-6H727.55z
			 M724.55,1152.82c0-3-1.5-4.5-3.75-4.5s-4.5,1.5-4.5,4.5s2.25,4.5,4.5,4.5S724.55,1155.82,724.55,1152.82z"/>
	</g>
	<g>
		<path d="M173.55,597v3h-6v18h-3v-18h-6v-3H173.55z"/>
		<path d="M185.55,603v15h-3v-4.5c0,3-2.25,4.5-4.5,4.5s-4.5-1.5-4.5-4.5V603h3v9c0,2.25,1.5,3,3,3s3-0.75,3-3v-9H185.55z"/>
		<path d="M197.55,603v3c-3,0-6,0.75-6,4.5v7.5h-3v-15h3v6C191.55,605.25,193.8,603,197.55,603z"/>
		<path d="M218.55,606.75V618h-3v-9.75c0-1.5-0.75-2.25-2.25-2.25s-2.25,0.75-2.25,2.25V618h-3v-12h-4.5v12h-3v-15h10.5v3.75
			c0-2.25,1.5-3.75,3.75-3.75S218.55,604.5,218.55,606.75z"/>
		<path d="M235.05,603v15h-3v-6c0,3.75-1.5,6-4.5,6c-3.75,0-6.75-3-6.75-7.5s3-7.5,6.75-7.5c3,0,4.5,2.25,4.5,6v-6H235.05z
			 M232.05,610.5c0-3-1.5-4.5-3.75-4.5s-4.5,1.5-4.5,4.5s2.25,4.5,4.5,4.5S232.05,613.5,232.05,610.5z"/>
		<path d="M160.8,637.5c0,5.25,3.75,7.5,7.5,7.5h2.25v-3h-3v-3h6v8.25c0,0-2.25,0.75-5.25,0.75c-6,0-10.5-3.75-10.5-10.5
			c0-6.75,4.5-10.5,10.5-10.5c3,0,5.25,1.5,5.25,1.5v3c0,0-2.25-1.5-5.25-1.5C164.55,630,160.8,632.25,160.8,637.5z"/>
		<path d="M185.55,633v3c-3,0-6,0.75-6,4.5v7.5h-3v-15h3v6C179.55,635.25,181.8,633,185.55,633z"/>
		<path d="M200.55,633v15h-3v-6c0,3.75-1.5,6-4.5,6c-3.75,0-6.75-3-6.75-7.5s3-7.5,6.75-7.5c3,0,4.5,2.25,4.5,6v-6H200.55z
			 M197.55,640.5c0-3-1.5-4.5-3.75-4.5s-4.5,1.5-4.5,4.5s2.25,4.5,4.5,4.5S197.55,643.5,197.55,640.5z"/>
		<path d="M209.55,630v6h4.5v3h-4.5v9h-3v-9h-3v-3h3v-3c0-3.75,2.25-6,6-6h1.5v3H209.55z"/>
		<path d="M230.55,633v15h-3v-6c0,3.75-1.5,6-4.5,6c-3.75,0-6.75-3-6.75-7.5s3-7.5,6.75-7.5c3,0,4.5,2.25,4.5,6v-6H230.55z
			 M227.55,640.5c0-3-1.5-4.5-3.75-4.5s-4.5,1.5-4.5,4.5s2.25,4.5,4.5,4.5S227.55,643.5,227.55,640.5z"/>
		<path d="M239.55,636v9h4.5v3h-3c-3,0-4.5-1.5-4.5-4.5V636h-3v-3h3v-6h3v6h4.5v3H239.55z"/>
		<path d="M262.8,642c0,3.75-3,6-8.25,6c-5.25,0-8.25-2.25-8.25-6s3-6,8.25-6C259.8,636,262.8,638.25,262.8,642z M249.3,642
			c0,2.25,2.25,3,5.25,3s5.25-0.75,5.25-3s-2.25-3-5.25-3S249.3,639.75,249.3,642z M256.05,633h-6v-3h6V633z M259.05,630h-3v-3h3
			V630z"/>
		<path d="M274.05,633v3c-3,0-6,0.75-6,4.5v7.5h-3v-15h3v6C268.05,635.25,270.3,633,274.05,633z"/>
		<path d="M286.05,645v3h-9v-3h3v-9h-3v-3h6v12H286.05z M283.05,630h-3v-3h3V630z"/>
		<path d="M303.3,640.5c0,4.5-3,7.5-7.5,7.5c-4.5,0-7.5-3-7.5-7.5s3-7.5,7.5-7.5C300.3,633,303.3,636,303.3,640.5z M291.3,640.5
			c0,3,2.25,4.5,4.5,4.5c2.25,0,4.5-1.5,4.5-4.5s-2.25-4.5-4.5-4.5C293.55,636,291.3,637.5,291.3,640.5z"/>
	</g>
	<g>
		<path d="M681.55,618c-3.75,0-6-1.5-6-1.5v-3c0,0,3,1.5,6,1.5s3.75-1.5,3.75-3c0-3.75-10.5-2.25-10.5-9c0-3.75,3-6,6.75-6
			s6,1.5,6,1.5v3c0,0-3-1.5-6-1.5s-3.75,1.5-3.75,3c0,3.75,10.5,2.25,10.5,9C688.3,615.75,685.3,618,681.55,618z"/>
		<path d="M703.3,611.25h-10.44c0.33,2.49,2.4,3.75,4.44,3.75c3,0,4.5-1.5,4.5-1.5v3c0,0-1.5,1.5-4.5,1.5c-4.5,0-7.5-3-7.5-7.5
			s3-7.5,6.75-7.5s6.75,3,6.75,7.5V611.25z M692.95,609h7.2c-0.42-2.01-1.77-3-3.6-3S693.37,606.99,692.95,609z"/>
		<path d="M710.05,606v9h4.5v3h-3c-3,0-4.5-1.5-4.5-4.5V606h-3v-3h3v-6h3v6h4.5v3H710.05z"/>
		<path d="M730.3,611.25h-10.44c0.33,2.49,2.4,3.75,4.44,3.75c3,0,4.5-1.5,4.5-1.5v3c0,0-1.5,1.5-4.5,1.5c-4.5,0-7.5-3-7.5-7.5
			s3-7.5,6.75-7.5c3.75,0,6.75,3,6.75,7.5V611.25z M719.95,609h7.2c-0.42-2.01-1.77-3-3.6-3C721.72,606,720.37,606.99,719.95,609z"
			/>
		<path d="M750.55,606.75V618h-3v-9.75c0-1.5-0.75-2.25-2.25-2.25s-2.25,0.75-2.25,2.25V618h-3v-12h-4.5v12h-3v-15h10.5v3.75
			c0-2.25,1.5-3.75,3.75-3.75S750.55,604.5,750.55,606.75z"/>
		<path d="M766.3,610.5c0,4.5-3,7.5-7.5,7.5h-5.25v-21h3v6.24c0.6-0.12,1.38-0.24,2.25-0.24C763.3,603,766.3,606,766.3,610.5z
			 M763.3,610.5c0-3-2.25-4.5-4.5-4.5c-0.69,0-1.53,0.15-2.25,0.33V615h2.25C761.05,615,763.3,613.5,763.3,610.5z"/>
		<path d="M777.55,603v3c-3,0-6,0.75-6,4.5v7.5h-3v-15h3v6C771.55,605.25,773.8,603,777.55,603z"/>
		<path d="M793.3,610.5c0,4.5-3,7.5-7.5,7.5c-4.5,0-7.5-3-7.5-7.5s3-7.5,7.5-7.5C790.3,603,793.3,606,793.3,610.5z M781.3,610.5
			c0,3,2.25,4.5,4.5,4.5c2.25,0,4.5-1.5,4.5-4.5s-2.25-4.5-4.5-4.5C783.55,606,781.3,607.5,781.3,610.5z"/>
		<path d="M675.55,630h3v3h-3V630z M678.55,642v3h12v3h-15v-6H678.55z M687.55,627v3h-9v-3H687.55z M681.55,642h-3v-3h3V642z
			 M687.55,639h-6v-3h6V639z M690.55,636h-3v-6h3V636z"/>
		<path d="M708.55,634.5v6l-6,7.5h-3l-6-7.5v-6l6-7.5h3L708.55,634.5z M705.55,635.25l-4.5-5.64l-4.5,5.64v4.5l4.5,5.61l4.5-5.61
			V635.25z"/>
		<path d="M711.55,630h3v3h-3V630z M714.55,642v3h12v3h-15v-6H714.55z M723.55,627v3h-9v-3H723.55z M717.55,642h-3v-3h3V642z
			 M723.55,639h-6v-3h6V639z M726.55,636h-3v-6h3V636z"/>
		<path d="M744.55,634.5v6l-6,7.5h-3l-6-7.5v-6l6-7.5h3L744.55,634.5z M741.55,635.25l-4.5-5.64l-4.5,5.64v4.5l4.5,5.61l4.5-5.61
			V635.25z"/>
	</g>
</g>
</svg>
